<svg width="20" height="20" viewBox="0 0 20 20" fill="none" xmlns="http://www.w3.org/2000/svg">
<path opacity="0.5" d="M19 16V18H1V16C1 15.4696 1.21062 14.9609 1.58569 14.5858C1.96077 14.2107 2.46957 14 3 14H17C17.5304 14 18.0392 14.2107 18.4143 14.5858C18.7894 14.9609 19 15.4696 19 16Z" fill="white"/>
<path d="M6.32075 2.81279L5.85355 3.27999C5.65829 3.47525 5.65829 3.79184 5.85355 3.9871L13.0536 11.1871C13.2488 11.3824 13.5654 11.3824 13.7607 11.1871L14.2279 10.7199C14.4231 10.5247 14.4231 10.2081 14.2279 10.0128L7.02786 2.81279C6.83259 2.61753 6.51601 2.61753 6.32075 2.81279Z" fill="white"/>
<path d="M14.227 3.27998L13.7598 2.81278C13.5645 2.61752 13.248 2.61752 13.0527 2.81278L5.85267 10.0128C5.65741 10.2081 5.65741 10.5246 5.85267 10.7199L6.31987 11.1871C6.51513 11.3824 6.83172 11.3824 7.02698 11.1871L14.227 3.98709C14.4223 3.79182 14.4223 3.47524 14.227 3.27998Z" fill="white"/>
</svg>
