<svg width="20" height="20" viewBox="0 0 20 20" fill="none" xmlns="http://www.w3.org/2000/svg">
<path opacity="0.5" d="M19 16V18H1V16C1 15.4696 1.21062 14.9609 1.58569 14.5858C1.96077 14.2107 2.46957 14 3 14H17C17.5304 14 18.0392 14.2107 18.4143 14.5858C18.7894 14.9609 19 15.4696 19 16Z" fill="white"/>
<path fill-rule="evenodd" clip-rule="evenodd" d="M11 1.5C11 1.08798 11.4704 0.852786 11.8 1.1L18.4667 6.1C18.7333 6.3 18.7333 6.7 18.4667 6.9L11.8 11.9C11.4704 12.1472 11 11.912 11 11.5V1.5Z" fill="white"/>
<path d="M8.5 3H7.5C7.22386 3 7 3.22386 7 3.5V9.5C7 9.77614 7.22386 10 7.5 10H8.5C8.77614 10 9 9.77614 9 9.5V3.5C9 3.22386 8.77614 3 8.5 3Z" fill="white"/>
<path d="M4.5 5H3.5C3.22386 5 3 5.22386 3 5.5V7.5C3 7.77614 3.22386 8 3.5 8H4.5C4.77614 8 5 7.77614 5 7.5V5.5C5 5.22386 4.77614 5 4.5 5Z" fill="white"/>
</svg>
