<svg width="20" height="20" viewBox="0 0 20 20" fill="none" xmlns="http://www.w3.org/2000/svg">
<path opacity="0.5" fill-rule="evenodd" clip-rule="evenodd" d="M15.5 16L14.5 11.5L20 18V19H0V18L2.5 15L2.91421 15.4142C3.28929 15.7893 3.79799 16 4.32843 16H15.5Z" fill="white"/>
<path d="M4.9118 14.8372L16.6748 8.49989C16.7731 8.44707 16.8551 8.36863 16.9124 8.27283C16.9697 8.17704 17 8.06747 17 7.95586C17 7.84424 16.9697 7.73467 16.9124 7.63888C16.8551 7.54308 16.7731 7.46464 16.6748 7.41183L4.9118 1.07453C4.81766 1.02355 4.71156 0.997901 4.60452 1.00013C4.49748 1.00237 4.39312 1.03241 4.30118 1.08728C4.20925 1.14214 4.1332 1.21993 4.08041 1.31307C4.02763 1.40622 3.99983 1.5115 4 1.61856V14.2931C3.99983 14.4002 4.02763 14.5055 4.08041 14.5986C4.1332 14.6918 4.20925 14.7696 4.30118 14.8244C4.39312 14.8793 4.49748 14.9093 4.60452 14.9116C4.71156 14.9138 4.81766 14.8882 4.9118 14.8372V14.8372Z" fill="white"/>
</svg>
