<svg width="20" height="20" viewBox="0 0 20 20" fill="none" xmlns="http://www.w3.org/2000/svg">
<path d="M10 0.625C9.22124 0.625 8.46002 0.855855 7.8125 1.28851C7.16498 1.72117 6.66045 2.33612 6.36243 3.0556C6.06441 3.77509 5.98619 4.56689 6.13812 5.33069C6.29005 6.09449 6.66497 6.79619 7.21564 7.34686C7.76631 7.89753 8.46801 8.27245 9.23181 8.42438C9.99561 8.57631 10.7874 8.49809 11.5069 8.20007C12.2264 7.90205 12.8413 7.39752 13.274 6.75C13.7066 6.10248 13.9375 5.34126 13.9375 4.5625C13.9375 3.51821 13.5228 2.51656 12.7844 1.77814C12.0459 1.03971 11.0443 0.625 10 0.625ZM3 16.0776V17H6V12.1845C6 11.4255 6.81248 10.9432 7.47885 11.3066L17 16.5V16.0776C17 14.2211 16.2624 12.4403 14.9496 11.1276C13.6369 9.81481 11.8565 9.07764 10 9.07764C8.14348 9.07764 6.36311 9.81481 5.05035 11.1276C3.7376 12.4403 3 14.2211 3 16.0776Z" fill="white"/>
<path d="M7.45879 19.9625L13.3776 16.7737C13.4271 16.7472 13.4684 16.7077 13.4972 16.6595C13.526 16.6113 13.5413 16.5562 13.5413 16.5C13.5413 16.4438 13.526 16.3887 13.4972 16.3405C13.4684 16.2923 13.4271 16.2528 13.3776 16.2263L7.45879 13.0375C7.41142 13.0119 7.35804 12.9989 7.30418 13.0001C7.25032 13.0012 7.19781 13.0163 7.15155 13.0439C7.10529 13.0715 7.06702 13.1107 7.04046 13.1575C7.0139 13.2044 6.99991 13.2574 7 13.3112V19.6888C6.99991 19.7426 7.0139 19.7956 7.04046 19.8425C7.06702 19.8893 7.10529 19.9285 7.15155 19.9561C7.19781 19.9837 7.25032 19.9988 7.30418 19.9999C7.35804 20.0011 7.41142 19.9881 7.45879 19.9625V19.9625Z" fill="white"/>
</svg>
