<svg width="16" height="16" viewBox="0 0 16 16" fill="none" xmlns="http://www.w3.org/2000/svg">
<path d="M13.5 7L11.5 12L9.5 7L13.5 7Z" fill="white"/>
<path fill-rule="evenodd" clip-rule="evenodd" d="M9.13357 8.59082C8.28927 9.27843 7.75 10.3262 7.75 11.5C7.75 13.5711 9.42893 15.25 11.5 15.25C13.5711 15.25 15.25 13.5711 15.25 11.5C15.25 10.3263 14.7108 9.27854 13.8666 8.59092L13.4446 9.55549C13.9422 10.0531 14.25 10.7406 14.25 11.5C14.25 13.0188 13.0188 14.25 11.5 14.25C9.98122 14.25 8.75 13.0188 8.75 11.5C8.75 10.7406 9.05785 10.053 9.55556 9.55537L9.13357 8.59082Z" fill="white"/>
</svg>
