<svg width="64" height="64" viewBox="0 0 64 64" fill="none" xmlns="http://www.w3.org/2000/svg">
<path d="M6.26086 30.1929C6.26086 30.1929 29.3926 45.4305 32.0746 47.0344L57.8882 30.1929L32.0746 18.6979L6.26086 30.1929Z" fill="url(#paint0_linear_17528_204)"/>
<path d="M6.26086 17.495C6.26086 17.495 29.3926 32.7326 32.0746 34.3365L58 17.495L32.1863 6L6.26086 17.495Z" fill="white"/>
<path d="M44.1856 58.8479L59.5958 47.5279C60.1347 47.0871 60.1347 46.0579 59.5958 45.6171L44.1856 34.15C43.6467 33.7089 43 34.297 43 35.1791V57.9659C43 58.7013 43.6467 59.2892 44.1856 58.8479Z" fill="url(#paint1_linear_17528_204)"/>
<defs>
<linearGradient id="paint0_linear_17528_204" x1="32.5363" y1="15.6486" x2="31.0991" y2="47.2901" gradientUnits="userSpaceOnUse">
<stop stop-color="#4D4D4D"/>
<stop offset="1" stop-color="#999999"/>
</linearGradient>
<linearGradient id="paint1_linear_17528_204" x1="719.6" y1="184" x2="719.6" y2="909" gradientUnits="userSpaceOnUse">
<stop stop-color="white"/>
<stop offset="1" stop-color="#999999" stop-opacity="0.05"/>
</linearGradient>
</defs>
</svg>
