<svg width="64" height="64" viewBox="0 0 64 64" fill="none" xmlns="http://www.w3.org/2000/svg">
<path d="M54.2 13.5H9.69995V49.5H54.2V13.5Z" fill="url(#paint0_linear_8292:14693)"/>
<path opacity="0.7" d="M52.5999 14H24.2999C23.7999 14 23.3999 14.3 23.3999 14.8V20.5C23.3999 20.9 23.7999 21.3 24.2999 21.3H52.5999C53.0999 21.3 53.4999 21 53.4999 20.5V14.8C53.4999 14.4 53.0999 14 52.5999 14Z" fill="white"/>
<path opacity="0.7" d="M17.5999 14H11.2999C10.7999 14 10.3999 14.4 10.3999 14.9V47C11.2999 46 12 45 15 45C16.4001 43.6 17.5 42.5 18.4999 41.5V14.9C18.3999 14.4 17.9999 14 17.5999 14Z" fill="white"/>
<path opacity="0.7" d="M52.7 27H46.5C46 27 45.7 27.4 45.7 27.9V48C45.7 48.5 46.1 48.9 46.5 48.9H52.7C53.2 48.9 53.5 48.5 53.5 48V27.9C53.5 27.4 53.1 27 52.7 27Z" fill="white"/>
<path opacity="0.7" fill-rule="evenodd" clip-rule="evenodd" d="M28.1901 34.5C27.7377 33.2217 27.6609 31.8406 27.9686 30.52C28.2763 29.1994 28.9558 27.9946 29.9266 27.0479C30.8974 26.1013 32.119 25.4525 33.447 25.1782C34.7749 24.9039 36.1536 25.0155 37.4201 25.5L33.0001 29.92C32.5934 30.4978 32.4037 31.2005 32.4644 31.9045C32.5251 32.6085 32.8323 33.2685 33.3319 33.7682C33.8316 34.2678 34.4915 34.575 35.1955 34.6357C35.8995 34.6964 36.6023 34.5067 37.1801 34.1L41.5601 29.7199C42.0301 30.983 42.1303 32.3538 41.8491 33.6717C41.568 34.9897 40.917 36.2003 39.9726 37.1616C39.0281 38.1229 37.8292 38.795 36.5164 39.0993C35.2036 39.4037 33.8312 39.3276 32.5601 38.88L28.1901 34.5Z" fill="white"/>
<path fill-rule="evenodd" clip-rule="evenodd" d="M30.68 40.38L19.54 51.53C19.5717 52.1206 19.4796 52.7112 19.2695 53.264C19.0594 53.8169 18.736 54.3196 18.32 54.74C17.8168 55.2596 17.1904 55.6435 16.499 55.8561C15.8077 56.0687 15.0738 56.1029 14.3656 55.9558C13.6574 55.8087 12.9979 55.4849 12.4484 55.0145C11.8989 54.5442 11.4774 53.9425 11.2228 53.2655C10.9682 52.5885 10.8889 51.8581 10.9923 51.1422C11.0957 50.4263 11.3785 49.7482 11.8143 49.1709C12.25 48.5936 12.8247 48.1358 13.4848 47.8402C14.1449 47.5446 14.8691 47.4207 15.59 47.48L26.65 36.42L30.68 40.38ZM16.73 50.3199C16.4508 50.0391 16.0944 49.8474 15.7061 49.7693C15.3178 49.6912 14.9151 49.7301 14.549 49.8811C14.1828 50.0321 13.8698 50.2885 13.6495 50.6177C13.4292 50.9468 13.3116 51.3339 13.3116 51.73C13.3116 52.126 13.4292 52.5133 13.6495 52.8424C13.8698 53.1716 14.1828 53.4278 14.549 53.5789C14.9151 53.7299 15.3178 53.7688 15.7061 53.6907C16.0944 53.6125 16.4508 53.4209 16.73 53.14C17.1025 52.7653 17.3116 52.2584 17.3116 51.73C17.3116 51.2016 17.1025 50.6947 16.73 50.3199Z" fill="url(#paint1_linear_8292:14693)"/>
<defs>
<linearGradient id="paint0_linear_8292:14693" x1="31.9421" y1="14.5901" x2="31.9421" y2="49.5186" gradientUnits="userSpaceOnUse">
<stop stop-color="#808080"/>
<stop offset="0.591" stop-color="#505050"/>
<stop offset="1" stop-color="#333333"/>
</linearGradient>
<linearGradient id="paint1_linear_8292:14693" x1="17.42" y1="43.51" x2="23.48" y2="49.58" gradientUnits="userSpaceOnUse">
<stop stop-color="#B3B3B3"/>
<stop offset="1" stop-color="#4D4D4D"/>
</linearGradient>
</defs>
</svg>
