<svg width="64" height="64" viewBox="0 0 64 64" fill="none" xmlns="http://www.w3.org/2000/svg">
<path d="M42.7 21V18.2H31.4C29.7 18.2 28.6 19.6 28.6 21V29.5H20.1V32.2999H28.6V40.7999C28.6 42.4999 30 43.5999 31.4 43.5999L34 40.7999H33.1C32.3 40.7999 31.4 39.9999 31.4 39.0999V22.7C31.4 21.9 32.2 21 33.1 21H42.7Z" fill="#7F7F7F"/>
<path d="M25.9 29.5H22.9V32.3H25.9V29.5Z" fill="url(#paint0_linear_9393_25481)"/>
<path d="M22.9 26.9V34.7999C22.9 35.6999 22.1 36.5 21.2 36.5H10.5C9.60005 36.5 8.80005 35.6999 8.80005 34.7999V26.9C8.80005 26 9.60005 25.2 10.5 25.2H21.2C22.2 25.2 22.9 25.9 22.9 26.9Z" fill="url(#paint1_linear_9393_25481)"/>
<path d="M41.1 18.1953H38.1V21.0001H41.1V18.1953Z" fill="url(#paint2_linear_9393_25481)"/>
<path d="M55.1 15.5999V23.4999C55.1 24.3999 54.3 25.1999 53.4 25.1999H42.7C41.8 25.1999 41 24.3999 41 23.4999V15.5999C41 14.6999 41.8 13.8999 42.7 13.8999H53.4C54.4 13.8999 55.1 14.6999 55.1 15.5999Z" fill="url(#paint3_linear_9393_25481)"/>
<path opacity="0.7" fill-rule="evenodd" clip-rule="evenodd" d="M42.1901 36.4999C41.7377 35.2216 41.6609 33.8405 41.9686 32.5199C42.2763 31.1993 42.9558 29.9945 43.9266 29.0478C44.8974 28.1012 46.119 27.4524 47.447 27.1781C48.7749 26.9038 50.1536 27.0154 51.4201 27.4999L47.0001 31.9199C46.5934 32.4977 46.4037 33.2004 46.4644 33.9044C46.5251 34.6084 46.8323 35.2684 47.3319 35.768C47.8316 36.2677 48.4915 36.5749 49.1955 36.6356C49.8995 36.6963 50.6023 36.5065 51.1801 36.0998L55.5601 31.7198C56.0301 32.9828 56.1303 34.3536 55.8491 35.6716C55.568 36.9896 54.917 38.2002 53.9726 39.1615C53.0281 40.1228 51.8292 40.7949 50.5164 41.0992C49.2036 41.4036 47.8312 41.3275 46.5601 40.8799L42.1901 36.4999Z" fill="white"/>
<path fill-rule="evenodd" clip-rule="evenodd" d="M44.68 42.3799L33.54 53.5299C33.5717 54.1205 33.4796 54.7111 33.2695 55.2639C33.0594 55.8167 32.736 56.3195 32.32 56.7399C31.8168 57.2595 31.1904 57.6434 30.499 57.856C29.8077 58.0685 29.0738 58.1028 28.3656 57.9557C27.6574 57.8086 26.9979 57.4848 26.4484 57.0144C25.8989 56.544 25.4774 55.9424 25.2228 55.2654C24.9682 54.5884 24.8889 53.858 24.9923 53.1421C25.0957 52.4262 25.3785 51.7481 25.8143 51.1708C26.25 50.5935 26.8247 50.1357 27.4848 49.8401C28.1449 49.5445 28.8691 49.4206 29.59 49.4799L40.65 38.4199L44.68 42.3799ZM30.73 52.3198C30.4508 52.0389 30.0944 51.8473 29.7061 51.7692C29.3178 51.691 28.9151 51.73 28.549 51.881C28.1828 52.032 27.8698 52.2884 27.6495 52.6176C27.4292 52.9467 27.3116 53.3338 27.3116 53.7299C27.3116 54.1259 27.4292 54.5131 27.6495 54.8423C27.8698 55.1714 28.1828 55.4277 28.549 55.5787C28.9151 55.7298 29.3178 55.7687 29.7061 55.6906C30.0944 55.6124 30.4508 55.4208 30.73 55.1399C31.1025 54.7652 31.3116 54.2582 31.3116 53.7299C31.3116 53.2015 31.1025 52.6945 30.73 52.3198Z" fill="url(#paint4_linear_9393_25481)"/>
<defs>
<linearGradient id="paint0_linear_9393_25481" x1="22.9844" y1="30.9171" x2="25.9927" y2="30.9371" gradientUnits="userSpaceOnUse">
<stop stop-color="#4D4D4D"/>
<stop offset="1" stop-color="#808080"/>
</linearGradient>
<linearGradient id="paint1_linear_9393_25481" x1="15.939" y1="36.8308" x2="15.8709" y2="25.3797" gradientUnits="userSpaceOnUse">
<stop stop-color="#999999"/>
<stop offset="1" stop-color="#E6E6E6"/>
</linearGradient>
<linearGradient id="paint2_linear_9393_25481" x1="41.0156" y1="19.5626" x2="38.0073" y2="19.5426" gradientUnits="userSpaceOnUse">
<stop stop-color="#4D4D4D"/>
<stop offset="1" stop-color="#808080"/>
</linearGradient>
<linearGradient id="paint3_linear_9393_25481" x1="48.1325" y1="25.5568" x2="48.0643" y2="14.1056" gradientUnits="userSpaceOnUse">
<stop stop-color="#999999"/>
<stop offset="1" stop-color="#E6E6E6"/>
</linearGradient>
<linearGradient id="paint4_linear_9393_25481" x1="31.42" y1="45.5099" x2="37.48" y2="51.5799" gradientUnits="userSpaceOnUse">
<stop stop-color="#B3B3B3"/>
<stop offset="1" stop-color="#4D4D4D"/>
</linearGradient>
</defs>
</svg>
