<svg width="16" height="16" viewBox="0 0 16 16" fill="none" xmlns="http://www.w3.org/2000/svg">
<g clip-path="url(#clip0_9393_25501)">
<path d="M15.5 0H11.5C11.2239 0 11 0.223858 11 0.5V3.5C11 3.77614 11.2239 4 11.5 4H15.5C15.7761 4 16 3.77614 16 3.5V0.5C16 0.223858 15.7761 0 15.5 0Z" fill="white"/>
<path d="M0 4.5L0 7.5C0 7.77614 0.223858 8 0.5 8H4.5C4.77614 8 5 7.77614 5 7.5V4.5C5 4.22386 4.77614 4 4.5 4H0.5C0.223858 4 0 4.22386 0 4.5Z" fill="white"/>
<path opacity="0.5" d="M12 3V2H8C7.73478 2 7.48044 2.10531 7.29291 2.29285C7.10537 2.48038 7 2.73478 7 3V6H4V7H7V10L8 9V3.59998C8 3.44085 8.0632 3.2883 8.17572 3.17578C8.28824 3.06326 8.44085 3 8.59998 3H12Z" fill="white"/>
<path fill-rule="evenodd" clip-rule="evenodd" d="M11.1701 8.31993C11.0102 7.87778 10.9799 7.39921 11.0827 6.94041C11.1854 6.48162 11.4169 6.06171 11.7501 5.72997C12.0902 5.39021 12.5211 5.15577 12.9911 5.05467C13.4611 4.95358 13.9503 4.99017 14.4001 5.16002L12.8501 6.70995C12.6564 6.90488 12.5482 7.16873 12.5492 7.44347C12.5501 7.71821 12.6601 7.98143 12.8551 8.17503C13.05 8.36864 13.3139 8.47687 13.5886 8.47594C13.8634 8.475 14.1265 8.36496 14.3201 8.17003L15.8501 6.64C16.0138 7.08025 16.0491 7.55789 15.952 8.01744C15.8548 8.47699 15.6291 8.89953 15.3012 9.23582C14.9733 9.57212 14.5566 9.80837 14.0997 9.9171C13.6427 10.0258 13.1643 10.0025 12.72 9.84996L11.1701 8.31993Z" fill="white"/>
<path opacity="0.5" fill-rule="evenodd" clip-rule="evenodd" d="M12 10.38L8.09996 14.28C8.11734 14.5849 8.04128 14.8877 7.88194 15.1482C7.72261 15.4086 7.48761 15.6142 7.2083 15.7375C6.92899 15.8609 6.61872 15.8961 6.31889 15.8384C6.01907 15.7807 5.74401 15.6328 5.53044 15.4146C5.31688 15.1963 5.17496 14.9182 5.1237 14.6172C5.07245 14.3162 5.11427 14.0067 5.24358 13.7301C5.37288 13.4535 5.58352 13.223 5.84734 13.0693C6.11116 12.9156 6.41557 12.8461 6.71996 12.87L10.59 9L12 10.38ZM7.11998 13.86C7.02152 13.7635 6.89679 13.6983 6.7614 13.6725C6.62601 13.6466 6.48601 13.6612 6.35893 13.7146C6.23186 13.768 6.12333 13.8577 6.04704 13.9725C5.97076 14.0873 5.9301 14.2221 5.9301 14.36C5.9301 14.4978 5.97076 14.6326 6.04704 14.7474C6.12333 14.8622 6.23186 14.952 6.35893 15.0054C6.48601 15.0588 6.62601 15.0735 6.7614 15.0476C6.89679 15.0218 7.02152 14.9565 7.11998 14.86C7.25734 14.7324 7.33862 14.5556 7.34612 14.3683C7.35361 14.1809 7.28668 13.9982 7.15996 13.86H7.11998Z" fill="white"/>
</g>
<defs>
<clipPath id="clip0_9393_25501">
<rect width="16" height="16" fill="white"/>
</clipPath>
</defs>
</svg>
