<svg width="16" height="16" viewBox="0 0 16 16" fill="none" xmlns="http://www.w3.org/2000/svg">
<g clip-path="url(#clip0_8292:14704)">
<path d="M16 1H5V4H16V1Z" fill="white"/>
<path d="M0.530029 11.86C0.857593 11.5502 1.24704 11.3135 1.67279 11.1653C2.09854 11.017 2.5509 10.9607 3 11V1H0V12.58C0.142763 12.3168 0.321136 12.0745 0.530029 11.86V11.86Z" fill="white"/>
<path d="M16 6H13V14H16V6Z" fill="white"/>
<path fill-rule="evenodd" clip-rule="evenodd" d="M7.09996 8.37C6.93735 7.91556 6.90867 7.42401 7.01732 6.95374C7.12597 6.48347 7.3674 6.05422 7.71288 5.71717C8.05835 5.38012 8.49336 5.14938 8.96617 5.05237C9.43898 4.95537 9.9297 4.99627 10.38 5.17005L8.80998 6.72999C8.61395 6.9284 8.50401 7.19607 8.50401 7.47498C8.50401 7.7539 8.61395 8.02157 8.80998 8.21998C8.90371 8.3231 9.01794 8.40554 9.14537 8.46192C9.2728 8.5183 9.41062 8.54737 9.54997 8.54737C9.68932 8.54737 9.82714 8.5183 9.95457 8.46192C10.082 8.40554 10.1962 8.3231 10.29 8.21998L11.85 6.66004C12.0136 7.11141 12.0461 7.59995 11.9434 8.06898C11.8407 8.538 11.6073 8.96833 11.27 9.31007C10.9369 9.64441 10.5162 9.87801 10.0563 9.98414C9.59643 10.0903 9.11592 10.0646 8.66997 9.91004L7.09996 8.37Z" fill="white"/>
<path opacity="0.5" fill-rule="evenodd" clip-rule="evenodd" d="M7.99996 10.46L3.99996 14.46C4.01927 14.7714 3.94287 15.0815 3.78102 15.3483C3.61918 15.6151 3.37965 15.826 3.0945 15.9528C2.80935 16.0795 2.49227 16.1161 2.18575 16.0575C1.87923 15.9989 1.59791 15.848 1.37959 15.625C1.16128 15.402 1.01637 15.1176 0.964311 14.8099C0.91225 14.5022 0.955535 14.186 1.08833 13.9036C1.22113 13.6212 1.43711 13.3861 1.70729 13.23C1.97748 13.0738 2.28894 13.0041 2.59993 13.03L6.52999 9.09998L7.99996 10.46ZM2.99996 13.98C2.86385 13.8665 2.69024 13.808 2.5132 13.816C2.33616 13.824 2.16848 13.8979 2.04317 14.0232C1.91786 14.1485 1.84395 14.3162 1.83595 14.4933C1.82796 14.6703 1.88646 14.8439 1.99996 14.98C2.13606 15.0935 2.30967 15.152 2.48671 15.144C2.66375 15.136 2.83143 15.0621 2.95674 14.9368C3.08206 14.8115 3.15596 14.6438 3.16396 14.4668C3.17196 14.2898 3.11346 14.1161 2.99996 13.98Z" fill="white"/>
</g>
<defs>
<clipPath id="clip0_8292:14704">
<rect width="16" height="16" fill="white"/>
</clipPath>
</defs>
</svg>
