<?xml version="1.0" encoding="utf-8"?>
<!-- Generator: Adobe Illustrator 27.9.0, SVG Export Plug-In . SVG Version: 6.00 Build 0)  -->
<svg version="1.1"
	 id="SVGRoot" xmlns:inkscape="http://www.inkscape.org/namespaces/inkscape" xmlns:svg="http://www.w3.org/2000/svg" xmlns:sodipodi="http://sodipodi.sourceforge.net/DTD/sodipodi-0.dtd" inkscape:version="1.1.1 (3bf5ae0d25, 2021-09-20)"
	 xmlns="http://www.w3.org/2000/svg" xmlns:xlink="http://www.w3.org/1999/xlink" x="0px" y="0px" viewBox="0 0 64 64"
	 style="enable-background:new 0 0 64 64;" xml:space="preserve">
<style type="text/css">
	.st0{fill:#FFFFFF;}
	.st1{opacity:0.5;fill-rule:evenodd;clip-rule:evenodd;fill:#FFFFFF;enable-background:new    ;}
	.st2{opacity:0.5;fill:#FFFFFF;enable-background:new    ;}
</style>
<sodipodi:namedview  bordercolor="#666666" borderopacity="1.0" id="namedview19" inkscape:current-layer="layer1" inkscape:cx="32.989285" inkscape:cy="41.266743" inkscape:document-units="px" inkscape:pagecheckerboard="0" inkscape:pageopacity="0.0" inkscape:pageshadow="2" inkscape:window-height="1377" inkscape:window-maximized="1" inkscape:window-width="1440" inkscape:window-x="1432" inkscape:window-y="742" inkscape:zoom="12.443434" pagecolor="#ffffff" showgrid="true">
	<inkscape:grid  id="grid25" type="xygrid"></inkscape:grid>
</sodipodi:namedview>
<g id="layer1" inkscape:groupmode="layer" inkscape:label="Layer 1">
	<g id="g65" transform="matrix(4.2666667,0,0,4.9285368,-4.2666667,-9.8570736)">
		<path id="path50" class="st0" d="M1,4.8c0,0,6.7,3.7,7.5,4.1L16,4.8L8.5,2C8.5,2,1,4.8,1,4.8z"/>
		<path id="path54" class="st1" d="M10,10.3l-1.5,0.8L2.7,7.9c0,0-1.7,0.9-1.7,0.9c0,0,6.7,3.7,7.5,4.2l1.5-0.8V10.3z"/>
	</g>
</g>
<path class="st0" d="M49.9,34.5h6.6v13.6h-6.6c-0.7,0-1.3-0.3-1.7-0.7c-0.5-0.5-0.7-1.1-0.7-1.7V37c0-0.7,0.3-1.3,0.7-1.7
	C48.6,34.8,49.2,34.5,49.9,34.5L49.9,34.5z"/>
<path class="st2" d="M64.1,37.5H58v3h6.1V37.5z"/>
<path class="st2" d="M64.1,42.1H58v3h6.1V42.1z"/>
<path class="st2" d="M43.5,58c1.1-0.4,2.2-0.9,3.1-1.7c0.5-0.4,0.8-0.9,1-1.5c0.1-0.6,0-1.2-0.3-1.8c-0.7-0.8-1.6-1.4-2.7-1.7
	c-1.3-0.4-2.5-1.1-3.5-2c-0.4-0.5-0.8-1.1-1-1.7c-0.2-0.6-0.3-1.3-0.2-1.9c0-0.7,0.2-1.4,0.4-2c0.3-0.6,0.7-1.2,1.2-1.7
	c1.3-1.1,3-1.7,4.7-1.7v1.9c-1.3,0-2.5,0.5-3.4,1.3c-0.6,0.6-1,1.5-1,2.3c-0.1,0.8,0.1,1.6,0.6,2.2c0.8,0.7,1.7,1.2,2.7,1.5
	c1.5,0.4,2.8,1.3,3.7,2.6c0.3,0.7,0.4,1.6,0.3,2.4c-0.2,0.8-0.6,1.5-1.2,2.1C46.6,57.4,45.1,57.9,43.5,58z"/>
</svg>
