<?xml version="1.0" encoding="utf-8"?>
<!-- Generator: Adobe Illustrator 27.9.0, SVG Export Plug-In . SVG Version: 6.00 Build 0)  -->
<svg version="1.1" id="Layer_1" xmlns="http://www.w3.org/2000/svg" xmlns:xlink="http://www.w3.org/1999/xlink" x="0px" y="0px"
	 viewBox="0 0 16 16" style="enable-background:new 0 0 16 16;" xml:space="preserve">
<style type="text/css">
	.st0{fill:#FFFFFF;}
	.st1{opacity:0.5;fill-rule:evenodd;clip-rule:evenodd;fill:#FFFFFF;enable-background:new    ;}
	.st2{opacity:0.5;fill:#FFFFFF;enable-background:new    ;}
</style>
<g id="layer1">
	<g id="g65" transform="matrix(4.2666667,0,0,4.9285368,-4.2666667,-9.8570736)">
		<path id="path50" class="st0" d="M1.2,3c0,0,1.6,0.7,1.8,0.8L4.7,3L3,2.4C3,2.4,1.2,3,1.2,3z"/>
		<path id="path54" class="st1" d="M3.3,4.1L3,4.3L1.6,3.6c0,0-0.4,0.2-0.4,0.2c0,0,1.6,0.7,1.8,0.8l0.4-0.2V4.1z"/>
	</g>
</g>
<path class="st0" d="M12.7,9h1.5v2.8h-1.5c-0.2,0-0.3-0.1-0.4-0.1c-0.1-0.1-0.2-0.2-0.2-0.4V9.5c0-0.1,0.1-0.3,0.2-0.4
	C12.4,9,12.5,9,12.7,9L12.7,9z"/>
<path class="st2" d="M16,9.6h-1.4v0.6H16V9.6z"/>
<path class="st2" d="M16,10.5h-1.4v0.6H16V10.5z"/>
<path class="st2" d="M11.2,13.8c0.3-0.1,0.5-0.2,0.7-0.3c0.1-0.1,0.2-0.2,0.2-0.3c0-0.1,0-0.3-0.1-0.4c-0.2-0.2-0.4-0.3-0.6-0.3
	c-0.3-0.1-0.6-0.2-0.8-0.4c-0.1-0.1-0.2-0.2-0.2-0.3c0-0.1-0.1-0.3-0.1-0.4c0-0.1,0-0.3,0.1-0.4c0.1-0.1,0.2-0.2,0.3-0.3
	c0.3-0.2,0.7-0.3,1.1-0.3v0.4c-0.3,0-0.6,0.1-0.8,0.3c-0.1,0.1-0.2,0.3-0.2,0.5c0,0.2,0,0.3,0.1,0.4c0.2,0.1,0.4,0.2,0.6,0.3
	c0.4,0.1,0.7,0.3,0.9,0.5c0.1,0.2,0.1,0.3,0.1,0.5c0,0.2-0.1,0.3-0.3,0.4C11.9,13.6,11.6,13.7,11.2,13.8z"/>
</svg>
