<svg width="16" height="16" viewBox="0 0 16 16" fill="none" xmlns="http://www.w3.org/2000/svg">
<path d="M3.5 3.5V5.5C3.5 7.5 4.5 8.5 6 8.5C7.5 8.5 8.5 6.5 8.5 5.5V4.5C8.5 3.5 8.88 1.5 10.5 1.5C12.12 1.5 12.5 3.5 12.5 4.5V12" stroke="white" stroke-width="1.25" stroke-miterlimit="10"/>
<path d="M3.4975 4.80945C4.22099 4.80945 4.8075 4.22295 4.8075 3.49945C4.8075 2.77596 4.22099 2.18945 3.4975 2.18945C2.774 2.18945 2.1875 2.77596 2.1875 3.49945C2.1875 4.22295 2.774 4.80945 3.4975 4.80945Z" fill="white"/>
<path d="M12.5025 10.8409C11.779 10.8409 11.1925 11.4274 11.1925 12.1509C11.1925 12.8744 11.779 13.4609 12.5025 13.4609C13.226 13.4609 13.8125 12.8744 13.8125 12.1509C13.8125 11.4274 13.226 10.8409 12.5025 10.8409Z" fill="white"/>
<path opacity="0.5" d="M3.5 0C2.57174 0 1.68152 0.368769 1.02515 1.02515C0.368769 1.68152 0 2.57174 0 3.5C0.00112591 4.1605 0.189668 4.80714 0.543701 5.36475C0.897734 5.92235 1.40272 6.36804 2 6.65002V5.80005C1.61693 5.55075 1.30199 5.20981 1.08374 4.80823C0.865491 4.40665 0.750813 3.95705 0.75 3.5C0.75 2.77065 1.03969 2.07114 1.55542 1.55542C2.07114 1.03969 2.77065 0.75 3.5 0.75C4.22935 0.75 4.92886 1.03969 5.44458 1.55542C5.96031 2.07114 6.25 2.77065 6.25 3.5C6.24919 3.95705 6.13451 4.40665 5.91626 4.80823C5.69801 5.20981 5.38307 5.55075 5 5.80005V6.65002C5.59728 6.36804 6.10227 5.92235 6.4563 5.36475C6.81033 4.80714 6.99887 4.1605 7 3.5C7 2.57174 6.63123 1.68152 5.97485 1.02515C5.31848 0.368769 4.42826 0 3.5 0Z" fill="white"/>
<path opacity="0.5" d="M12.5 15.6504C13.4283 15.6504 14.3185 15.2816 14.9749 14.6252C15.6312 13.9689 16 13.0786 16 12.1504C15.9989 11.4899 15.8103 10.8432 15.4563 10.2856C15.1023 9.72804 14.5973 9.28235 14 9.00037L14 9.85034C14.3831 10.0996 14.698 10.4406 14.9163 10.8422C15.1345 11.2437 15.2492 11.6933 15.25 12.1504C15.25 12.8797 14.9603 13.5792 14.4446 14.095C13.9289 14.6107 13.2293 14.9004 12.5 14.9004C11.7707 14.9004 11.0711 14.6107 10.5554 14.095C10.0397 13.5792 9.75 12.8797 9.75 12.1504C9.75081 11.6933 9.86549 11.2437 10.0837 10.8422C10.302 10.4406 10.6169 10.0996 11 9.85034L11 9.00037C10.4027 9.28235 9.89773 9.72804 9.5437 10.2856C9.18967 10.8432 9.00113 11.4899 9 12.1504C9 13.0786 9.36877 13.9689 10.0251 14.6252C10.6815 15.2816 11.5717 15.6504 12.5 15.6504Z" fill="white"/>
</svg>
