<svg width="64" height="64" viewBox="0 0 64 64" fill="none" xmlns="http://www.w3.org/2000/svg">
<g clip-path="url(#clip0_6488_8127)">
<path d="M34 31H30V57H34V31Z" fill="url(#paint0_linear_6488_8127)"/>
<path d="M43.5498 42H20.4371C19.5988 42 19 42.6 19 43.2V43.8C19 44.5 19.7185 45 20.4371 45H43.5498C44.3881 45 44.9869 44.4 44.9869 43.8V43.2C45.1066 42.6 44.3881 42 43.5498 42Z" fill="url(#paint1_linear_6488_8127)"/>
<path d="M41.6559 48H22.4495C21.604 48 21 48.6 21 49.2V49.8C21 50.5 21.7248 51 22.4495 51H41.5351C42.3806 51 42.9846 50.4 42.9846 49.8V49.2C43.1054 48.6 42.5014 48 41.6559 48Z" fill="url(#paint2_linear_6488_8127)"/>
<path d="M40.4713 54H23.5287C22.6369 54 22 54.6 22 55.2V55.8C22 56.5 22.7643 57 23.5287 57H40.4713C41.3631 57 42 56.4 42 55.8V55.2C42 54.6 41.3631 54 40.4713 54Z" fill="url(#paint3_linear_6488_8127)"/>
<path d="M46.2796 34H17.7204C16.8029 34 16 34.875 16 35.875V36.125C16 37.125 16.8029 38 17.7204 38H46.2796C47.1971 38 48 37.125 48 36.125V35.875C47.8853 34.875 47.1971 34 46.2796 34Z" fill="url(#paint4_linear_6488_8127)"/>
<path fill-rule="evenodd" clip-rule="evenodd" d="M10.7814 57.294L15.7212 38.259C15.7212 38.031 15.9564 37.917 16.0741 37.6891L17.603 36.6632C17.9559 36.4352 18.0735 35.9793 17.9559 35.6374L17.3678 34.2696C17.1326 33.8137 16.5445 33.4717 15.9564 33.6997L15.7212 33.8137C15.2508 33.9276 14.7803 33.8137 14.5451 33.4717L14.4275 33.3577C14.0746 32.9018 13.3689 32.9018 12.8985 33.2437L11.7223 34.1556C11.3695 34.3836 11.2519 34.8395 11.4871 35.2954L12.3104 36.8912C12.428 37.1191 12.428 37.3471 12.428 37.5751L7.60585 56.4961C7.48823 56.9521 7.84108 57.522 8.42915 57.636L9.60528 57.9779C10.0757 58.0919 10.6638 57.7499 10.7814 57.294Z" fill="url(#paint5_linear_6488_8127)"/>
<path fill-rule="evenodd" clip-rule="evenodd" d="M53.2186 57.2014L48.2788 38.1495C48.2788 37.9214 48.0435 37.8073 47.9259 37.5791L46.3969 36.6665C46.0441 36.4383 45.9265 35.982 46.0441 35.6397L46.6322 34.2707C46.8674 33.8144 47.4555 33.4721 48.0435 33.7003L48.2788 33.8144C48.7492 33.9285 49.2197 33.8144 49.4549 33.4721L49.5725 33.358C49.9254 32.9017 50.631 32.9017 51.1015 33.244L52.2776 34.1566C52.6305 34.3848 52.7481 34.8411 52.5129 35.2975L51.572 36.7805C51.4543 37.0087 51.4543 37.2369 51.4543 37.465L56.3941 56.5169C56.5117 56.9733 56.1589 57.5437 55.5708 57.6578L54.3947 58C53.9242 58 53.3362 57.6578 53.2186 57.2014Z" fill="url(#paint6_linear_6488_8127)"/>
<path fill-rule="evenodd" clip-rule="evenodd" d="M31.9526 8C25.9479 8.02531 22 11.2577 22 14.1043V24.3926C22 24.8834 22.3791 25.2761 22.8531 25.2761H25.981C26.455 25.2761 26.8341 25.6687 26.8341 26.1595V29.5C26.8341 29.8926 27.0237 30.1871 27.3081 30.2853C30.436 31.6595 33.564 31.6595 36.6919 30.2853C36.9763 30.1871 37.1659 29.7945 37.1659 29.5V26.1595C37.1659 25.6687 37.545 25.2761 38.019 25.2761H41.1469C41.6209 25.2761 42 24.8834 42 24.3926V14.1043C42 11.2577 38 8 31.9526 8ZM26 21C25.3841 21 25 20.6871 25 20V17C25 16.411 25.4739 16.0184 25.9479 16.0184H29.9289C30.5924 16.0184 30.8152 16.773 30.7204 17.362C30.3412 20.0123 29 21 26 21ZM30.7385 26C30.3848 26 30.1429 25.6427 30.2743 25.3143L31.5358 22.1606C31.7034 21.7415 32.2966 21.7415 32.4642 22.1606L33.7257 25.3143C33.8571 25.6427 33.6152 26 33.2615 26H30.7385ZM39.0616 20C39.0616 20.6871 38.0758 21 37.5 21C35 21 33.6588 20.0123 33.1848 17.362C33.09 16.773 33.564 16.0184 34.1327 16.0184H38.1137C38.6825 16.0184 39.0616 16.5092 39.0616 17V20Z" fill="url(#paint7_linear_6488_8127)"/>
</g>
<defs>
<linearGradient id="paint0_linear_6488_8127" x1="31.7757" y1="32.4467" x2="32.0029" y2="57.2647" gradientUnits="userSpaceOnUse">
<stop stop-color="#383838"/>
<stop offset="0.2193" stop-color="#818181"/>
<stop offset="1" stop-color="#656565"/>
</linearGradient>
<linearGradient id="paint1_linear_6488_8127" x1="31.8922" y1="45.0857" x2="31.8942" y2="41.9958" gradientUnits="userSpaceOnUse">
<stop stop-color="#B3B3B3"/>
<stop offset="1" stop-color="white"/>
</linearGradient>
<linearGradient id="paint2_linear_6488_8127" x1="31.9088" y1="51.0857" x2="31.9111" y2="47.9958" gradientUnits="userSpaceOnUse">
<stop stop-color="#B3B3B3"/>
<stop offset="1" stop-color="white"/>
</linearGradient>
<linearGradient id="paint3_linear_6488_8127" x1="31.9171" y1="57.0857" x2="31.9196" y2="53.9958" gradientUnits="userSpaceOnUse">
<stop stop-color="#B3B3B3"/>
<stop offset="1" stop-color="white"/>
</linearGradient>
<linearGradient id="paint4_linear_6488_8127" x1="31.8673" y1="38.1143" x2="31.8702" y2="33.9944" gradientUnits="userSpaceOnUse">
<stop stop-color="#B3B3B3"/>
<stop offset="1" stop-color="white"/>
</linearGradient>
<linearGradient id="paint5_linear_6488_8127" x1="12.6254" y1="33.0287" x2="12.9116" y2="57.9267" gradientUnits="userSpaceOnUse">
<stop stop-color="white"/>
<stop offset="0.6346" stop-color="#AFAFAF"/>
<stop offset="1" stop-color="#808080"/>
</linearGradient>
<linearGradient id="paint6_linear_6488_8127" x1="51.0476" y1="32.895" x2="51.3352" y2="57.9029" gradientUnits="userSpaceOnUse">
<stop stop-color="white"/>
<stop offset="0.6346" stop-color="#AFAFAF"/>
<stop offset="1" stop-color="#808080"/>
</linearGradient>
<linearGradient id="paint7_linear_6488_8127" x1="31.9171" y1="31.982" x2="32.0734" y2="7.96826" gradientUnits="userSpaceOnUse">
<stop stop-color="#B3B3B3"/>
<stop offset="1" stop-color="white"/>
</linearGradient>
<clipPath id="clip0_6488_8127">
<rect width="64" height="64" fill="white"/>
</clipPath>
</defs>
</svg>
