<svg width="21" height="20" viewBox="0 0 21 20" fill="none" xmlns="http://www.w3.org/2000/svg">
<path d="M8.83333 10.208C8.48815 10.208 8.20833 10.4878 8.20833 10.833C8.20833 11.1782 8.48815 11.458 8.83333 11.458H12.1667C12.5118 11.458 12.7917 11.1782 12.7917 10.833C12.7917 10.4878 12.5118 10.208 12.1667 10.208H8.83333Z" fill="white"/>
<path fill-rule="evenodd" clip-rule="evenodd" d="M2.375 4.58301C2.375 3.54747 3.21447 2.70801 4.25 2.70801H16.75C17.7855 2.70801 18.625 3.54747 18.625 4.58301V6.24967C18.625 6.89976 18.2942 7.47258 17.7917 7.80893V15.4163C17.7917 16.4519 16.9522 17.2913 15.9167 17.2913H5.08333C4.0478 17.2913 3.20833 16.4519 3.20833 15.4163V7.80894C2.70584 7.47258 2.375 6.89976 2.375 6.24967V4.58301ZM4.45833 8.12467H16.5417V15.4163C16.5417 15.7615 16.2618 16.0413 15.9167 16.0413H5.08333C4.73816 16.0413 4.45833 15.7615 4.45833 15.4163V8.12467ZM17.375 6.24967C17.375 6.59485 17.0952 6.87467 16.75 6.87467H4.25C3.90482 6.87467 3.625 6.59485 3.625 6.24967V4.58301C3.625 4.23783 3.90482 3.95801 4.25 3.95801H16.75C17.0952 3.95801 17.375 4.23783 17.375 4.58301V6.24967Z" fill="white"/>
</svg>
