<svg width="21" height="20" viewBox="0 0 21 20" fill="none" xmlns="http://www.w3.org/2000/svg">
<path d="M7.3763 11.6667C7.3763 11.3215 7.65612 11.0417 8.0013 11.0417H13.0013C13.3465 11.0417 13.6263 11.3215 13.6263 11.6667C13.6263 12.0118 13.3465 12.2917 13.0013 12.2917H8.0013C7.65612 12.2917 7.3763 12.0118 7.3763 11.6667Z" fill="white"/>
<path d="M7.3763 14.1667C7.3763 13.8215 7.65612 13.5417 8.0013 13.5417H11.3346C11.6798 13.5417 11.9596 13.8215 11.9596 14.1667C11.9596 14.5118 11.6798 14.7917 11.3346 14.7917H8.0013C7.65612 14.7917 7.3763 14.5118 7.3763 14.1667Z" fill="white"/>
<path fill-rule="evenodd" clip-rule="evenodd" d="M5.91797 1.875C4.88244 1.875 4.04297 2.71447 4.04297 3.75V16.25C4.04297 17.2855 4.88243 18.125 5.91797 18.125H15.0846C16.1202 18.125 16.9596 17.2855 16.9596 16.25V7.18443C16.9596 6.68715 16.7621 6.21024 16.4105 5.85861L12.976 2.42417C12.6244 2.07254 12.1475 1.875 11.6502 1.875H5.91797ZM5.91797 3.125C5.57279 3.125 5.29297 3.40482 5.29297 3.75V16.25C5.29297 16.5952 5.57279 16.875 5.91797 16.875H15.0846C15.4298 16.875 15.7096 16.5952 15.7096 16.25V8.125H12.168C11.3626 8.125 10.7096 7.47208 10.7096 6.66667V3.125H5.91797ZM11.9596 3.20697V6.66667C11.9596 6.78173 12.0529 6.875 12.168 6.875H15.6277C15.6003 6.82693 15.5664 6.7823 15.5266 6.74249L12.0921 3.30806C12.0523 3.26825 12.0077 3.23437 11.9596 3.20697Z" fill="white"/>
</svg>
