<svg width="20" height="20" viewBox="0 0 20 20" fill="none" xmlns="http://www.w3.org/2000/svg">
<path fill-rule="evenodd" clip-rule="evenodd" d="M2.30674 16.6133C2.03711 16.2886 1.875 15.8714 1.875 15.4163V4.58301C1.875 3.54747 2.71447 2.70801 3.75 2.70801H6.98223C7.47951 2.70801 7.95643 2.90555 8.30806 3.25718L10.2589 5.20801H15.4167C16.4522 5.20801 17.2917 6.04747 17.2917 7.08301V8.54134H17.2945C18.2275 8.54134 18.9205 9.40528 18.7181 10.316L17.4218 16.1494C17.2735 16.8166 16.6817 17.2913 15.9982 17.2913H3.53885C3.01259 17.2913 2.56267 17.0165 2.30674 16.6133ZM3.125 4.58301C3.125 4.23783 3.40482 3.95801 3.75 3.95801H6.98223C7.14799 3.95801 7.30696 4.02386 7.42417 4.14107L9.55806 6.27495C9.67527 6.39216 9.83424 6.45801 10 6.45801H15.4167C15.7618 6.45801 16.0417 6.73783 16.0417 7.08301V8.54134H4.83514C4.15162 8.54134 3.55981 9.01608 3.41154 9.68332L3.125 10.9727V4.58301ZM3.75 16.0413C3.59175 16.0413 3.44724 15.9825 3.33713 15.8856C3.32908 15.8548 3.32798 15.8215 3.33547 15.7878L4.63177 9.95448C4.65295 9.85916 4.7375 9.79134 4.83514 9.79134H17.2945C17.4278 9.79134 17.5268 9.91476 17.4979 10.0449L16.2016 15.8782C16.1804 15.9735 16.0958 16.0413 15.9982 16.0413H3.75Z" fill="white"/>
</svg>
