<svg width="21" height="20" viewBox="0 0 21 20" fill="none" xmlns="http://www.w3.org/2000/svg">
<path d="M7.16667 10.833C7.6269 10.833 8 10.4599 8 9.99967C8 9.53944 7.6269 9.16634 7.16667 9.16634C6.70643 9.16634 6.33333 9.53944 6.33333 9.99967C6.33333 10.4599 6.70643 10.833 7.16667 10.833Z" fill="white"/>
<path d="M11.3333 9.99967C11.3333 10.4599 10.9602 10.833 10.5 10.833C10.0398 10.833 9.66667 10.4599 9.66667 9.99967C9.66667 9.53944 10.0398 9.16634 10.5 9.16634C10.9602 9.16634 11.3333 9.53944 11.3333 9.99967Z" fill="white"/>
<path d="M13.8333 10.833C14.2936 10.833 14.6667 10.4599 14.6667 9.99967C14.6667 9.53944 14.2936 9.16634 13.8333 9.16634C13.3731 9.16634 13 9.53944 13 9.99967C13 10.4599 13.3731 10.833 13.8333 10.833Z" fill="white"/>
<path fill-rule="evenodd" clip-rule="evenodd" d="M10.5 2.70801C6.08392 2.70801 2.375 5.90543 2.375 9.99967C2.375 11.5843 2.93802 13.0455 3.88297 14.2334L3.21684 18.2303C3.17677 18.4707 3.28012 18.7125 3.48159 18.8496C3.68306 18.9868 3.94589 18.9943 4.15489 18.8689L7.58776 16.8092C8.4933 17.1211 9.47549 17.2913 10.5 17.2913C14.9161 17.2913 18.625 14.0939 18.625 9.99967C18.625 5.90543 14.9161 2.70801 10.5 2.70801ZM3.625 9.99967C3.625 6.73012 6.6318 3.95801 10.5 3.95801C14.3682 3.95801 17.375 6.73012 17.375 9.99967C17.375 13.2692 14.3682 16.0413 10.5 16.0413C9.5186 16.0413 8.58764 15.8607 7.74625 15.5367C7.56663 15.4676 7.36516 15.485 7.20012 15.5841L4.67233 17.1007L5.16289 14.1574C5.19343 13.9742 5.14088 13.7868 5.01949 13.6462C4.13888 12.6262 3.625 11.3625 3.625 9.99967Z" fill="white"/>
</svg>
