<svg width="21" height="20" viewBox="0 0 21 20" fill="none" xmlns="http://www.w3.org/2000/svg">
<path fill-rule="evenodd" clip-rule="evenodd" d="M10.1674 1.97C10.3701 1.84333 10.6273 1.84333 10.8299 1.97L16.9091 5.76948C17.4573 6.11211 17.7904 6.713 17.7904 7.35948V15.4167C17.7904 16.4522 16.9509 17.2917 15.9154 17.2917H12.9987C12.6535 17.2917 12.3737 17.0118 12.3737 16.6667V12.9167C12.3737 12.5715 12.0939 12.2917 11.7487 12.2917H9.2487C8.90352 12.2917 8.6237 12.5715 8.6237 12.9167V16.6667C8.6237 17.0118 8.34388 17.2917 7.9987 17.2917H5.08203C4.0465 17.2917 3.20703 16.4522 3.20703 15.4167V7.35948C3.20703 6.71299 3.54007 6.11211 4.08828 5.76948L10.1674 1.97ZM10.4987 3.23703L4.75078 6.82948C4.56804 6.94369 4.45703 7.14398 4.45703 7.35948V15.4167C4.45703 15.7618 4.73685 16.0417 5.08203 16.0417H7.3737V12.9167C7.3737 11.8811 8.21316 11.0417 9.2487 11.0417H11.7487C12.7842 11.0417 13.6237 11.8811 13.6237 12.9167V16.0417H15.9154C16.2605 16.0417 16.5404 15.7618 16.5404 15.4167V7.35948C16.5404 7.14398 16.4294 6.94369 16.2466 6.82948L10.4987 3.23703Z" fill="white"/>
</svg>
