<svg width="20" height="20" viewBox="0 0 20 20" fill="none" xmlns="http://www.w3.org/2000/svg">
<path d="M10.0017 6.15419C7.8734 6.15419 6.15672 7.87125 6.15672 10C6.15672 12.1288 7.8734 13.8458 10.0017 13.8458C12.13 13.8458 13.8466 12.1288 13.8466 10C13.8466 7.87125 12.13 6.15419 10.0017 6.15419ZM10.0017 12.5003C8.62633 12.5003 7.50195 11.379 7.50195 10C7.50195 8.621 8.62298 7.49972 10.0017 7.49972C11.3804 7.49972 12.5014 8.621 12.5014 10C12.5014 11.379 11.377 12.5003 10.0017 12.5003ZM14.9007 5.99688C14.9007 6.49559 14.4992 6.8939 14.0039 6.8939C13.5053 6.8939 13.1071 6.49225 13.1071 5.99688C13.1071 5.50151 13.5086 5.09985 14.0039 5.09985C14.4992 5.09985 14.9007 5.50151 14.9007 5.99688ZM17.4473 6.90729C17.3904 5.70568 17.116 4.6413 16.2359 3.76436C15.3592 2.88743 14.295 2.61296 13.0937 2.55272C11.8555 2.48243 8.14445 2.48243 6.9063 2.55272C5.70831 2.60962 4.64417 2.88408 3.76408 3.76102C2.88399 4.63796 2.61294 5.70233 2.5527 6.90394C2.48243 8.14236 2.48243 11.8543 2.5527 13.0927C2.60959 14.2943 2.88399 15.3587 3.76408 16.2356C4.64417 17.1126 5.70496 17.387 6.9063 17.4473C8.14445 17.5176 11.8555 17.5176 13.0937 17.4473C14.295 17.3904 15.3592 17.1159 16.2359 16.2356C17.1127 15.3587 17.3871 14.2943 17.4473 13.0927C17.5176 11.8543 17.5176 8.14571 17.4473 6.90729ZM15.8477 14.4215C15.5867 15.0775 15.0814 15.583 14.4222 15.8474C13.435 16.239 11.0926 16.1486 10.0017 16.1486C8.91076 16.1486 6.56497 16.2356 5.58115 15.8474C4.92526 15.5863 4.41997 15.0809 4.15561 14.4215C3.76408 13.4341 3.85443 11.0912 3.85443 10C3.85443 8.90885 3.76743 6.56254 4.15561 5.57849C4.41662 4.92246 4.92192 4.41705 5.58115 4.15263C6.56832 3.76102 8.91076 3.85139 10.0017 3.85139C11.0926 3.85139 13.4384 3.76436 14.4222 4.15263C15.0781 4.4137 15.5834 4.91911 15.8477 5.57849C16.2393 6.56588 16.1489 8.90885 16.1489 10C16.1489 11.0912 16.2393 13.4375 15.8477 14.4215Z" fill="white"/>
</svg>
