<svg width="21" height="20" viewBox="0 0 21 20" fill="none" xmlns="http://www.w3.org/2000/svg">
<path d="M12.3763 6.66699C12.3763 6.32181 12.6561 6.04199 13.0013 6.04199H16.3346C16.6798 6.04199 16.9596 6.32181 16.9596 6.66699C16.9596 7.01217 16.6798 7.29199 16.3346 7.29199H13.0013C12.6561 7.29199 12.3763 7.01217 12.3763 6.66699Z" fill="white"/>
<path d="M12.3763 9.16699C12.3763 8.82181 12.6561 8.54199 13.0013 8.54199H16.3346C16.6798 8.54199 16.9596 8.82181 16.9596 9.16699C16.9596 9.51217 16.6798 9.79199 16.3346 9.79199H13.0013C12.6561 9.79199 12.3763 9.51217 12.3763 9.16699Z" fill="white"/>
<path d="M7.3763 11.667C7.3763 11.3218 7.65612 11.042 8.0013 11.042H16.3346C16.6798 11.042 16.9596 11.3218 16.9596 11.667C16.9596 12.0122 16.6798 12.292 16.3346 12.292H8.0013C7.65612 12.292 7.3763 12.0122 7.3763 11.667Z" fill="white"/>
<path d="M7.3763 14.167C7.3763 13.8218 7.65612 13.542 8.0013 13.542H16.3346C16.6798 13.542 16.9596 13.8218 16.9596 14.167C16.9596 14.5122 16.6798 14.792 16.3346 14.792H8.0013C7.65612 14.792 7.3763 14.5122 7.3763 14.167Z" fill="white"/>
<path d="M7.3763 6.66699C7.3763 6.32181 7.65612 6.04199 8.0013 6.04199H10.5013C10.8465 6.04199 11.1263 6.32181 11.1263 6.66699V9.16699C11.1263 9.51217 10.8465 9.79199 10.5013 9.79199H8.0013C7.65612 9.79199 7.3763 9.51217 7.3763 9.16699V6.66699Z" fill="white"/>
<path fill-rule="evenodd" clip-rule="evenodd" d="M6.7513 3.54199C5.71577 3.54199 4.8763 4.38146 4.8763 5.41699V15.0003C4.8763 15.5756 4.40993 16.042 3.83464 16.042C3.25934 16.042 2.79297 15.5756 2.79297 15.0003V5.83366C2.79297 5.48848 2.51315 5.20866 2.16797 5.20866C1.82279 5.20866 1.54297 5.48848 1.54297 5.83366V15.0003C1.54297 16.266 2.56898 17.292 3.83464 17.292H17.5846C18.6202 17.292 19.4596 16.4525 19.4596 15.417V5.41699C19.4596 4.38146 18.6202 3.54199 17.5846 3.54199H6.7513ZM5.87642 16.042H17.5846C17.9298 16.042 18.2096 15.7622 18.2096 15.417V5.41699C18.2096 5.07181 17.9298 4.79199 17.5846 4.79199H6.7513C6.40612 4.79199 6.1263 5.07181 6.1263 5.41699V15.0003C6.1263 15.3754 6.03619 15.7295 5.87642 16.042Z" fill="white"/>
</svg>
