<svg width="24" height="20" viewBox="0 0 24 20" fill="none" xmlns="http://www.w3.org/2000/svg">
<path d="M3.53033 0.46967C3.23744 0.176777 2.76256 0.176777 2.46967 0.46967C2.17678 0.762563 2.17678 1.23744 2.46967 1.53033L20.4697 19.5303C20.7626 19.8232 21.2374 19.8232 21.5303 19.5303C21.8232 19.2374 21.8232 18.7626 21.5303 18.4697L3.53033 0.46967Z" fill="#FD5E5E"/>
<path d="M7.82789 1.82789L9.06403 3.06403C10.01 2.85834 10.9923 2.75 12 2.75C15.9176 2.75 19.4516 4.38742 21.957 7.01729C22.2427 7.31719 22.7174 7.3287 23.0173 7.04298C23.3172 6.75727 23.3287 6.28254 23.043 5.98264C20.2663 3.06796 16.3448 1.25 12 1.25C10.5535 1.25 9.15392 1.4515 7.82789 1.82789Z" fill="#FD5E5E"/>
<path d="M2.53895 4.5389C1.97828 4.98294 1.44961 5.46553 0.956977 5.98264C0.671267 6.28254 0.682773 6.75727 0.982677 7.04298C1.28258 7.3287 1.75731 7.31719 2.04303 7.01729C2.52759 6.50865 3.05062 6.03714 3.60747 5.60742L2.53895 4.5389Z" fill="#FD5E5E"/>
<path d="M7.18982 9.18978C6.36819 9.73146 5.64344 10.4078 5.04717 11.187C4.79545 11.516 4.85806 11.9867 5.18701 12.2384C5.51597 12.4901 5.9867 12.4275 6.23841 12.0986C6.79592 11.37 7.48795 10.7506 8.27732 10.2773L7.18982 9.18978Z" fill="#FD5E5E"/>
<path d="M13.9736 7.97357L18.392 12.392C18.5396 12.3853 18.6868 12.335 18.813 12.2384C19.1419 11.9867 19.2046 11.516 18.9528 11.187C17.7376 9.59887 15.9887 8.43825 13.9736 7.97357Z" fill="#FD5E5E"/>
<path d="M12 14L14 16C14 17.1045 13.1046 18 12 18C10.8954 18 10 17.1046 10 16C10 14.8954 10.8955 14 12 14Z" fill="#FD5E5E"/>
</svg>
