<svg width="18" height="18" viewBox="0 0 18 18" fill="none" xmlns="http://www.w3.org/2000/svg">
<path d="M9.625 6.08333C9.625 5.73815 9.34518 5.45833 9 5.45833C8.65482 5.45833 8.375 5.73815 8.375 6.08333V8.375H6.08333C5.73815 8.375 5.45833 8.65482 5.45833 9C5.45833 9.34518 5.73815 9.625 6.08333 9.625H8.375V11.9167C8.375 12.2618 8.65482 12.5417 9 12.5417C9.34518 12.5417 9.625 12.2618 9.625 11.9167V9.625H11.9167C12.2618 9.625 12.5417 9.34518 12.5417 9C12.5417 8.65482 12.2618 8.375 11.9167 8.375H9.625V6.08333Z" fill="white"/>
<path fill-rule="evenodd" clip-rule="evenodd" d="M9 0.875C4.51269 0.875 0.875 4.51269 0.875 9C0.875 13.4873 4.51269 17.125 9 17.125C13.4873 17.125 17.125 13.4873 17.125 9C17.125 4.51269 13.4873 0.875 9 0.875ZM2.125 9C2.125 5.20304 5.20304 2.125 9 2.125C12.797 2.125 15.875 5.20304 15.875 9C15.875 12.797 12.797 15.875 9 15.875C5.20304 15.875 2.125 12.797 2.125 9Z" fill="white"/>
</svg>
