<svg width="21" height="20" viewBox="0 0 21 20" fill="none" xmlns="http://www.w3.org/2000/svg">
<path fill-rule="evenodd" clip-rule="evenodd" d="M7.71919 4.79134C7.76659 4.99197 7.79167 5.20123 7.79167 5.41634V11.6663C7.79167 12.0115 7.51184 12.2913 7.16667 12.2913H5.08333C4.27792 12.2913 3.625 12.9443 3.625 13.7497C3.625 14.5551 4.27792 15.208 5.08333 15.208H7.58333C7.92851 15.208 8.20833 15.4878 8.20833 15.833C8.20833 16.1782 7.92851 16.458 7.58333 16.458H5.08333C3.58756 16.458 2.375 15.2454 2.375 13.7497V5.41634C2.375 3.92057 3.58756 2.70801 5.08333 2.70801C5.8514 2.70801 6.54479 3.02773 7.03768 3.54134H16.75C17.7855 3.54134 18.625 4.38081 18.625 5.41634C18.625 5.76152 18.3452 6.04134 18 6.04134C17.6548 6.04134 17.375 5.76152 17.375 5.41634C17.375 5.07116 17.0952 4.79134 16.75 4.79134H7.71919ZM3.625 5.41634C3.625 4.61093 4.27792 3.95801 5.08333 3.95801C5.55671 3.95801 5.9774 4.18355 6.24382 4.53303C6.24788 4.53862 6.25202 4.54414 6.25626 4.54959C6.43561 4.7919 6.54167 5.09173 6.54167 5.41634V11.0413H5.08333C4.5464 11.0413 4.04596 11.1976 3.625 11.4671V5.41634Z" fill="white"/>
<path fill-rule="evenodd" clip-rule="evenodd" d="M18.2392 7.75558C18.4727 7.85232 18.625 8.08022 18.625 8.33301V15.833C18.625 16.1782 18.3452 16.458 18 16.458H10.5C10.2472 16.458 10.0193 16.3057 9.92258 16.0722C9.82584 15.8386 9.87931 15.5698 10.0581 15.3911L17.5581 7.89107C17.7368 7.71232 18.0056 7.65884 18.2392 7.75558ZM12.0089 15.208H17.375V9.84189L12.0089 15.208Z" fill="white"/>
</svg>
