<svg width="21" height="20" viewBox="0 0 21 20" fill="none" xmlns="http://www.w3.org/2000/svg">
<path fill-rule="evenodd" clip-rule="evenodd" d="M9.58942 1.45751C10.1557 1.14291 10.8443 1.14291 11.4106 1.45751L17.6606 4.92973C18.2558 5.26043 18.625 5.88784 18.625 6.56878V13.4311C18.625 14.112 18.2558 14.7395 17.6606 15.0701L11.4106 18.5424C10.8443 18.857 10.1557 18.857 9.58942 18.5424L3.33942 15.0701C2.74417 14.7395 2.375 14.112 2.375 13.4311V6.56878C2.375 5.88784 2.74417 5.26043 3.33942 4.92973L9.58942 1.45751ZM10.8035 2.55021C10.6148 2.44534 10.3852 2.44534 10.1965 2.55021L8.20267 3.65788L14.4077 7.11398L16.713 5.83325L10.8035 2.55021ZM13.1217 7.82847L6.91659 4.37237L4.28698 5.83326L10.5 9.28497L13.1217 7.82847ZM3.625 13.4311V6.89544L9.87503 10.3677V17.2711L3.94647 13.9775C3.74806 13.8672 3.625 13.6581 3.625 13.4311ZM17.0535 13.9775L11.125 17.2711V10.3677L17.375 6.89542V13.4311C17.375 13.6581 17.2519 13.8672 17.0535 13.9775Z" fill="white"/>
</svg>
