<svg width="21" height="20" viewBox="0 0 21 20" fill="none" xmlns="http://www.w3.org/2000/svg">
<path fill-rule="evenodd" clip-rule="evenodd" d="M18.1903 2.31005C17.9501 2.06972 17.6317 1.96475 17.3502 1.91764C17.059 1.86893 16.7327 1.86963 16.3978 1.9005C15.7261 1.96239 14.9283 2.15454 14.1183 2.43021C12.5119 2.97687 10.7142 3.90192 9.64138 4.97479C9.56647 5.04971 9.4913 5.12771 9.41604 5.20839L5.91667 5.20839C5.70117 5.20839 5.50088 5.3194 5.38667 5.50214L3.30333 8.83547C3.12418 9.12212 3.20539 9.49925 3.48665 9.68676L5.93515 11.3191L9.18096 14.5649L10.8133 17.0134C11.0008 17.2947 11.3779 17.3759 11.6646 17.1967L14.9979 15.1134C15.1807 14.9992 15.2917 14.7989 15.2917 14.5834V11.084C15.3723 11.0087 15.4503 10.9336 15.5252 10.8587C16.5982 9.7859 17.5232 7.98826 18.0698 6.38201C18.3455 5.572 18.5376 4.77423 18.5995 4.10254C18.6304 3.76758 18.6311 3.4413 18.5825 3.15017C18.5354 2.86863 18.4305 2.55032 18.1903 2.31005ZM6.26307 6.45839H8.38323C7.88637 7.12059 7.41685 7.82487 7.02164 8.44943C6.65721 9.02535 6.34875 9.54513 6.1313 9.92107L6.12025 9.94018L4.68498 8.98333L6.26307 6.45839ZM14.0417 12.1168C13.3795 12.6136 12.6752 13.0831 12.0507 13.4783C11.4747 13.8428 10.955 14.1513 10.579 14.3687L10.5599 14.3798L11.5167 15.8151L14.0417 14.237V12.1168ZM9.77369 13.3899L7.11018 10.7264C7.14167 10.6712 7.17612 10.6113 7.21333 10.5469C7.42461 10.1817 7.72438 9.67656 8.07793 9.11783C8.79289 7.98796 9.69958 6.6844 10.5253 5.85866C11.4072 4.97666 13.003 4.13016 14.521 3.61356C15.2731 3.35761 15.9701 3.1952 16.5125 3.14522C16.7845 3.12016 16.9951 3.1256 17.1439 3.1505C17.2404 3.16665 17.2873 3.1869 17.3045 3.19555C17.3132 3.21276 17.3334 3.25968 17.3496 3.35631C17.3745 3.50516 17.3799 3.71573 17.3548 3.98781C17.3048 4.53018 17.1424 5.22722 16.8865 5.97929C16.3699 7.4972 15.5234 9.09284 14.6414 9.97476C13.8157 10.8004 12.5121 11.7071 11.3822 12.4221C10.8235 12.7756 10.3184 13.0754 9.95312 13.2867C9.88877 13.3239 9.82881 13.3584 9.77369 13.3899Z" fill="white"/>
<path fill-rule="evenodd" clip-rule="evenodd" d="M2.375 17.4998C2.375 17.4998 2.375 17.5001 3 17.5001L2.375 17.4998C2.375 17.845 2.65482 18.1251 3 18.1251V17.5001C3 18.1251 3 18.1251 3 18.1251L3.00373 18.1251L3.01129 18.125L3.03751 18.1248C3.0598 18.1245 3.09154 18.124 3.13167 18.123C3.21187 18.1209 3.3259 18.1169 3.46512 18.1089C3.74263 18.0931 4.12497 18.0612 4.54172 17.997C4.95623 17.9332 5.41938 17.8351 5.85301 17.6819C6.27895 17.5314 6.72437 17.3112 7.05944 16.9762C8.03575 15.9998 8.03575 14.4169 7.05944 13.4406C6.08313 12.4643 4.50021 12.4643 3.5239 13.4406C3.18883 13.7757 2.96866 14.2211 2.81817 14.6471C2.66496 15.0807 2.56688 15.5438 2.50302 15.9583C2.43881 16.3751 2.40699 16.7574 2.39111 17.0349C2.38314 17.1742 2.37912 17.2882 2.37709 17.3684C2.37607 17.4085 2.37555 17.4403 2.37528 17.4625L2.37504 17.4888L2.37501 17.4963L2.375 17.4987L2.375 17.4998ZM4.40779 14.3245C4.89594 13.8364 5.6874 13.8364 6.17555 14.3245C6.66371 14.8127 6.66371 15.6041 6.17555 16.0923C6.0277 16.2401 5.77947 16.3821 5.43659 16.5033C5.10138 16.6217 4.72052 16.7047 4.35139 16.7616C4.10112 16.8002 3.86292 16.8257 3.65747 16.8426C3.67434 16.6371 3.69988 16.3989 3.73844 16.1487C3.79531 15.7795 3.87833 15.3987 3.99676 15.0635C4.11791 14.7206 4.25993 14.4724 4.40779 14.3245Z" fill="white"/>
</svg>
