<svg width="21" height="20" viewBox="0 0 21 20" fill="none" xmlns="http://www.w3.org/2000/svg">
<path fill-rule="evenodd" clip-rule="evenodd" d="M10.4987 17.2916C8.95943 17.2916 7.39936 17.0367 6.1237 16.5462V16.8338C6.49732 17.05 6.7487 17.4539 6.7487 17.9166C6.7487 18.607 6.18905 19.1666 5.4987 19.1666C4.80834 19.1666 4.2487 18.607 4.2487 17.9166C4.2487 17.4539 4.50007 17.05 4.8737 16.8338V15.9269C3.92117 15.3196 3.20703 14.4617 3.20703 13.3333V13.3021L3.59274 9.44498L1.03275 8.04862C0.831961 7.9391 0.707031 7.72865 0.707031 7.49994C0.707031 7.27122 0.831961 7.06077 1.03275 6.95125L9.00229 2.60423C9.93503 2.09546 11.0624 2.09546 11.9951 2.60423L19.9646 6.95125C20.1654 7.06077 20.2904 7.27122 20.2904 7.49994C20.2904 7.72865 20.1654 7.9391 19.9646 8.04862L17.4047 9.44498L17.7904 13.3021V13.3333C17.7904 14.7545 16.6576 15.7466 15.3424 16.3494C13.9921 16.9683 12.2322 17.2916 10.4987 17.2916ZM9.60085 3.7016C10.1605 3.39634 10.8369 3.39634 11.3965 3.7016L18.3602 7.49994L11.3965 11.2983C10.8369 11.6035 10.1605 11.6035 9.60085 11.2983L7.06546 9.91533L10.7782 8.05895C11.0869 7.90459 11.2121 7.52917 11.0577 7.22043C10.9033 6.91169 10.5279 6.78655 10.2192 6.94092L5.72868 9.18618L2.63724 7.49994L9.60085 3.7016ZM4.784 10.0948L4.8737 10.1437V14.3196C4.59896 14.0088 4.46468 13.6838 4.45735 13.3613L4.784 10.0948ZM6.1237 10.8255V15.1889C6.14092 15.1969 6.15827 15.205 6.17577 15.213C7.32544 15.74 8.89888 16.0416 10.4987 16.0416C12.0985 16.0416 13.672 15.74 14.8216 15.213C15.9898 14.6776 16.5252 14.0143 16.54 13.3613L16.2134 10.0948L11.9951 12.3956C11.0624 12.9044 9.93503 12.9044 9.00229 12.3956L6.1237 10.8255Z" fill="white"/>
</svg>
