<svg width="100" height="120" viewBox="0 0 100 120" fill="none" xmlns="http://www.w3.org/2000/svg">
<path fill-rule="evenodd" clip-rule="evenodd" d="M90.3825 40.3854C90.3825 62.6895 72.3013 80.7707 49.9972 80.7707C27.693 80.7707 9.61182 62.6895 9.61182 40.3854C9.61182 18.0812 27.693 0 49.9972 0C72.3013 0 90.3825 18.0812 90.3825 40.3854ZM73.9946 46.203C73.2976 49.5598 70.201 58.1748 60.3259 62.8382L56.3594 58.3829L49.6682 65.1095C45.8598 65.0593 42.1164 64.1281 38.728 62.3903C35.3396 60.6524 32.3992 58.1543 30.1372 55.0912C30.8491 55.3143 31.5814 55.4518 32.3249 55.5039C33.4215 55.5224 34.6073 55.121 34.6073 53.2809V35.1272C34.6241 34.6606 34.5293 34.196 34.3341 33.7722C34.1371 33.3484 33.8453 32.9767 33.481 32.6849C33.1167 32.393 32.6892 32.1923 32.2319 32.0957C31.7747 31.999 31.3026 32.0102 30.8509 32.1291C27.7525 32.8428 25.2786 40.5731 25.2786 40.5731C25.2433 37.0044 25.9868 33.4692 27.4551 30.2165C28.9235 26.9638 31.0833 24.0699 33.7839 21.7354C37.3377 18.6611 41.6889 16.6538 46.3356 15.9456C42.9509 17.8731 41.0514 21.0161 41.0514 23.6535C41.0514 27.8988 43.6089 27.3839 44.3654 26.7594V51.2623C44.4955 51.569 44.6628 51.859 44.8654 52.1229C45.2036 52.5894 45.6479 52.9705 46.1627 53.2307C46.6776 53.4909 47.2482 53.6247 47.8244 53.621C50.3838 53.621 53.7052 50.6992 53.7052 50.6992V30.8689C53.7052 28.8504 52.183 26.4137 50.6607 25.5773C50.6607 25.5773 53.4803 25.0773 55.655 26.7427C56.0639 26.2427 56.4988 25.765 56.9561 25.3115C62.0321 20.3302 66.8126 18.9102 70.7958 18.202C70.7958 18.202 63.5544 23.8933 63.5544 31.5288C63.5544 37.207 63.7012 51.0542 63.7012 51.0542C66.3889 53.6489 70.3832 49.9018 73.9946 46.203Z" fill="white"/>
<path d="M15.7028 93.7889V100.666C15.7028 104.625 13.0077 107.227 8.15652 107.227C3.30537 107.227 0.589844 104.625 0.589844 100.666V93.7889H4.38155V100.369C4.38155 102.636 5.64545 104.105 8.15466 104.105C10.6639 104.105 11.9092 102.636 11.9092 100.369V93.7889H15.7028Z" fill="white"/>
<path d="M33.6113 93.7889V106.8H30.2843L21.883 98.2497V106.8H18.2214V93.7889H22.2362L29.9497 101.744V93.7889H33.6113Z" fill="white"/>
<path fill-rule="evenodd" clip-rule="evenodd" d="M47.3543 106.8L43.9157 102.692H40.0868V106.8H36.3137V93.7889H45.4398C48.7669 93.7889 51.3504 95.2573 51.3504 98.2311C51.3504 100.406 49.975 101.781 47.9305 102.376L51.7593 106.8H47.3543ZM45.161 99.9411C46.5179 99.9411 47.503 99.5694 47.503 98.3055C47.503 97.0416 46.5179 96.6698 45.161 96.6698H40.0682V99.9411H45.161Z" fill="white"/>
<path d="M67.2459 103.9V106.8H53.3597V93.7889H67.0396V96.6884H57.0957V98.8259H65.2925V101.595H57.0957V103.9H67.2459Z" fill="white"/>
<path fill-rule="evenodd" clip-rule="evenodd" d="M73.2883 104.309L72.0616 106.8H68.084L74.8124 93.7889H78.9573L85.6857 106.8H81.6523L80.4256 104.309H73.2883ZM79.1059 101.614L76.8569 97.0044L74.5894 101.614H79.1059Z" fill="white"/>
<path d="M99.4028 103.751V106.8H86.8567V93.7889H90.6484V103.751H99.4028Z" fill="white"/>
<path d="M29.3919 119.717H20.2286V111.13H29.2562V113.043H22.6932V114.454H28.102V116.281H22.6932V117.801H29.3919V119.717Z" fill="white"/>
<path d="M40.9456 111.132V119.719H38.7505L33.2061 114.076V119.719H30.7898V111.132H33.4384L38.5293 116.383V111.132H40.9456Z" fill="white"/>
<path d="M52.8689 118.099C51.9488 119.24 50.2556 120 47.962 120C44.4416 120 42.2577 118.333 42.2577 115.424C42.2577 112.515 44.4416 110.848 47.962 110.848C50.0846 110.848 51.618 111.597 52.512 112.43L50.6849 113.779C49.9489 113.117 49.1757 112.822 48.0233 112.822C45.9379 112.822 44.7966 113.742 44.7966 115.422C44.7966 117.115 45.9732 118.035 48.0586 118.035C49.1125 118.035 49.947 117.827 50.5493 117.275V116.502H47.7036V114.747H52.867V118.099H52.8689Z" fill="white"/>
<path d="M54.3613 119.717V111.13H56.8631V119.717H54.3613Z" fill="white"/>
<path d="M68.7978 111.132V119.719H66.6027L61.0582 114.076V119.719H58.642V111.132H61.2906L66.3815 116.383V111.132H68.7978Z" fill="white"/>
<path d="M79.7639 117.801V119.717H70.6006V111.13H79.6282V113.043H73.0652V114.454H78.4739V116.281H73.0652V117.801H79.7639Z" fill="white"/>
</svg>
