<svg width="20" height="20" viewBox="0 0 20 20" fill="none" xmlns="http://www.w3.org/2000/svg">
<path d="M18.1686 6.69629C18.1686 6.69629 18.0059 5.5472 17.5046 5.04264C16.8698 4.37858 16.1602 4.37533 15.8346 4.33626C13.5039 4.16699 10.0046 4.16699 10.0046 4.16699H9.99805C9.99805 4.16699 6.4987 4.16699 4.16797 4.33626C3.84245 4.37533 3.13281 4.37858 2.49805 5.04264C1.99674 5.5472 1.83724 6.69629 1.83724 6.69629C1.83724 6.69629 1.66797 8.0472 1.66797 9.39486V10.6579C1.66797 12.0055 1.83398 13.3564 1.83398 13.3564C1.83398 13.3564 1.99674 14.5055 2.49479 15.0101C3.12956 15.6742 3.96289 15.6514 4.33398 15.723C5.66862 15.8499 10.0013 15.889 10.0013 15.889C10.0013 15.889 13.5039 15.8825 15.8346 15.7165C16.1602 15.6774 16.8698 15.6742 17.5046 15.0101C18.0059 14.5055 18.1686 13.3564 18.1686 13.3564C18.1686 13.3564 18.3346 12.0088 18.3346 10.6579V9.39486C18.3346 8.0472 18.1686 6.69629 18.1686 6.69629ZM8.2793 12.1911V7.50684L12.7812 9.8571L8.2793 12.1911Z" fill="white"/>
</svg>
