<svg width="16" height="16" viewBox="0 0 16 16" fill="none" xmlns="http://www.w3.org/2000/svg">
<path d="M9.25772 13.8321L7.08984 11.6642L13.5132 5.24088C13.8343 4.91971 14.3161 4.91971 14.6373 5.24088L15.6811 6.36496C16.0022 6.68613 16.0022 7.16788 15.6811 7.48904L9.25772 13.8321Z" fill="white"/>
<path d="M5 16.0002L6.04394 12.7881L8.21211 14.9563L5 16.0002Z" fill="white"/>
<path fill-rule="evenodd" clip-rule="evenodd" d="M3.96626 8.02575L0.991566 11.0004C0.991566 11.0004 0.771218 11.0004 0.330522 10.6699C1.97006e-07 10.2292 0 10.0089 0 10.0089L2.9747 7.03418L3.96626 8.02575Z" fill="white"/>
<path d="M6.60849 1.30487C8.2611 1.30487 9.69336 2.62695 9.69336 4.38974C9.69336 6.15252 8.37127 7.47461 6.60849 7.47461C4.8457 7.47461 3.52362 6.04235 3.52362 4.38974C3.52362 2.73713 4.95588 1.30487 6.60849 1.30487ZM6.60849 0.203125C4.29483 0.203125 2.42188 2.07608 2.42188 4.38974C2.42188 6.70339 4.29483 8.57635 6.60849 8.57635C8.92214 8.57635 10.7951 6.70339 10.7951 4.38974C10.7951 2.07608 8.92214 0.203125 6.60849 0.203125Z" fill="white"/>
</svg>
