<svg width="20" height="20" viewBox="0 0 20 20" fill="none" xmlns="http://www.w3.org/2000/svg">
<rect x="0.5" y="2.5" width="19" height="15" rx="1.5" stroke="white"/>
<path d="M5.56104 12.0063V8.85352C5.56104 8.62435 5.52523 8.43994 5.45361 8.30029C5.38558 8.16064 5.28174 8.05859 5.14209 7.99414C5.00602 7.92969 4.83415 7.89746 4.62646 7.89746C4.42594 7.89746 4.25228 7.93864 4.10547 8.021C3.96224 8.10335 3.85124 8.21257 3.77246 8.34863C3.69727 8.4847 3.65967 8.63509 3.65967 8.7998H2.70898C2.70898 8.59212 2.75374 8.38623 2.84326 8.18213C2.93636 7.97803 3.06885 7.79362 3.24072 7.62891C3.4126 7.46061 3.61849 7.32812 3.8584 7.23145C4.10189 7.13118 4.37402 7.08105 4.6748 7.08105C5.03288 7.08105 5.34977 7.14014 5.62549 7.2583C5.9012 7.37288 6.11784 7.56087 6.27539 7.82227C6.43294 8.08366 6.51172 8.43099 6.51172 8.86426V11.7324C6.51172 11.9258 6.52604 12.1317 6.55469 12.3501C6.58691 12.5685 6.63167 12.7565 6.68896 12.9141V13H5.70605C5.65951 12.8854 5.6237 12.7332 5.59863 12.5435C5.57357 12.3501 5.56104 12.1711 5.56104 12.0063ZM5.71143 9.47656L5.72217 10.1748H5.06152C4.83594 10.1748 4.63005 10.1999 4.44385 10.25C4.26123 10.3001 4.10368 10.3735 3.97119 10.4702C3.8387 10.5633 3.73665 10.6797 3.66504 10.8193C3.59701 10.959 3.56299 11.1183 3.56299 11.2974C3.56299 11.5301 3.59521 11.7163 3.65967 11.856C3.72412 11.992 3.8208 12.0905 3.94971 12.1514C4.07861 12.2122 4.24154 12.2427 4.43848 12.2427C4.67839 12.2427 4.88965 12.1872 5.07227 12.0762C5.25488 11.9652 5.39632 11.8309 5.49658 11.6733C5.60042 11.5158 5.64876 11.369 5.6416 11.2329L5.85107 11.6787C5.83675 11.8184 5.7902 11.9705 5.71143 12.1353C5.63623 12.2964 5.5306 12.4521 5.39453 12.6025C5.25846 12.7493 5.09733 12.8711 4.91113 12.9678C4.72852 13.0609 4.52262 13.1074 4.29346 13.1074C3.95687 13.1074 3.66146 13.043 3.40723 12.9141C3.15658 12.7852 2.96143 12.5954 2.82178 12.3447C2.68213 12.0941 2.6123 11.7843 2.6123 11.4155C2.6123 11.1362 2.66064 10.8784 2.75732 10.6421C2.854 10.4058 2.99723 10.2017 3.18701 10.0298C3.37679 9.85433 3.61491 9.71826 3.90137 9.62158C4.19141 9.5249 4.5262 9.47656 4.90576 9.47656H5.71143ZM7.98877 4.75H8.93945V11.8721L8.85889 13H7.98877V4.75ZM12.1997 9.83105V10.3735C12.1997 10.8319 12.1567 11.2329 12.0708 11.5767C11.9884 11.9168 11.8649 12.2015 11.7002 12.4307C11.5355 12.6562 11.335 12.8263 11.0986 12.9409C10.8623 13.0519 10.592 13.1074 10.2876 13.1074C9.98682 13.1074 9.72721 13.0465 9.50879 12.9248C9.29036 12.8031 9.10775 12.6276 8.96094 12.3984C8.81413 12.1693 8.69775 11.8918 8.61182 11.5659C8.52946 11.2401 8.47217 10.873 8.43994 10.4648V9.73975C8.47217 9.32796 8.52946 8.95915 8.61182 8.6333C8.69417 8.30387 8.80876 8.02458 8.95557 7.79541C9.10238 7.56266 9.28499 7.38542 9.50342 7.26367C9.72184 7.14193 9.98145 7.08105 10.2822 7.08105C10.5902 7.08105 10.8623 7.13477 11.0986 7.24219C11.3385 7.34961 11.5391 7.51611 11.7002 7.7417C11.8649 7.9637 11.9884 8.24837 12.0708 8.5957C12.1567 8.93945 12.1997 9.35124 12.1997 9.83105ZM11.249 10.3735V9.83105C11.249 9.50879 11.2275 9.2277 11.1846 8.98779C11.1452 8.74788 11.0789 8.54915 10.9858 8.3916C10.8927 8.23405 10.7674 8.11589 10.6099 8.03711C10.4559 7.95833 10.2643 7.91895 10.0352 7.91895C9.8418 7.91895 9.67171 7.95833 9.5249 8.03711C9.38167 8.11589 9.25814 8.22331 9.1543 8.35938C9.05046 8.49186 8.96452 8.64404 8.89648 8.81592C8.82845 8.98421 8.77832 9.15967 8.74609 9.34229V10.8677C8.79264 11.1004 8.86605 11.3242 8.96631 11.5391C9.07015 11.7503 9.2098 11.924 9.38525 12.0601C9.56071 12.1961 9.77913 12.2642 10.0405 12.2642C10.259 12.2642 10.4434 12.2266 10.5938 12.1514C10.7477 12.0762 10.873 11.9616 10.9697 11.8076C11.0664 11.6501 11.1362 11.4531 11.1792 11.2168C11.2257 10.9769 11.249 10.6958 11.249 10.3735ZM15.4277 12.2964C15.6175 12.2964 15.7894 12.2588 15.9434 12.1836C16.1009 12.1048 16.2298 11.9831 16.3301 11.8184C16.4303 11.6501 16.4876 11.4316 16.502 11.1631H17.3936C17.3792 11.5498 17.2808 11.89 17.0981 12.1836C16.9191 12.4736 16.6828 12.701 16.3892 12.8657C16.0991 13.0269 15.7786 13.1074 15.4277 13.1074C15.0518 13.1074 14.7241 13.0465 14.4448 12.9248C14.1691 12.8031 13.9399 12.6276 13.7573 12.3984C13.5783 12.1657 13.444 11.8846 13.3545 11.5552C13.265 11.2222 13.2202 10.8444 13.2202 10.4219V9.7666C13.2202 9.34408 13.265 8.9681 13.3545 8.63867C13.444 8.30566 13.5783 8.02458 13.7573 7.79541C13.9399 7.56266 14.1691 7.38542 14.4448 7.26367C14.7241 7.14193 15.0518 7.08105 15.4277 7.08105C15.8216 7.08105 16.1618 7.1652 16.4482 7.3335C16.7383 7.49821 16.9639 7.73812 17.125 8.05322C17.2897 8.36475 17.3792 8.74251 17.3936 9.18652H16.502C16.4876 8.90007 16.4357 8.66195 16.3462 8.47217C16.2567 8.27881 16.1349 8.13558 15.981 8.04248C15.827 7.9458 15.6426 7.89746 15.4277 7.89746C15.1771 7.89746 14.9694 7.94222 14.8047 8.03174C14.6436 8.11768 14.5164 8.243 14.4233 8.40771C14.3302 8.57243 14.264 8.76937 14.2246 8.99854C14.1888 9.2277 14.1709 9.48372 14.1709 9.7666V10.4219C14.1709 10.7048 14.1888 10.9626 14.2246 11.1953C14.264 11.4245 14.3285 11.6214 14.418 11.7861C14.5111 11.9508 14.64 12.078 14.8047 12.1675C14.9694 12.2534 15.1771 12.2964 15.4277 12.2964Z" fill="white"/>
<rect x="3" y="14" width="14" height="2" fill="white"/>
</svg>
