<svg width="20" height="20" viewBox="0 0 20 20" fill="none" xmlns="http://www.w3.org/2000/svg">
<rect x="0.5" y="2.5" width="19" height="15" rx="1.5" stroke="white"/>
<path d="M6.14844 5.22461L3.32422 13H2.16992L5.42188 4.46875H6.16602L6.14844 5.22461ZM8.51562 13L5.68555 5.22461L5.66797 4.46875H6.41211L9.67578 13H8.51562ZM8.36914 9.8418V10.7676H3.57617V9.8418H8.36914ZM14.3926 11.916V8.65234C14.3926 8.40234 14.3418 8.18555 14.2402 8.00195C14.1426 7.81445 13.9941 7.66992 13.7949 7.56836C13.5957 7.4668 13.3496 7.41602 13.0566 7.41602C12.7832 7.41602 12.543 7.46289 12.3359 7.55664C12.1328 7.65039 11.9727 7.77344 11.8555 7.92578C11.7422 8.07812 11.6855 8.24219 11.6855 8.41797H10.6016C10.6016 8.19141 10.6602 7.9668 10.7773 7.74414C10.8945 7.52148 11.0625 7.32031 11.2812 7.14062C11.5039 6.95703 11.7695 6.8125 12.0781 6.70703C12.3906 6.59766 12.7383 6.54297 13.1211 6.54297C13.582 6.54297 13.9883 6.62109 14.3398 6.77734C14.6953 6.93359 14.9727 7.16992 15.1719 7.48633C15.375 7.79883 15.4766 8.19141 15.4766 8.66406V11.6172C15.4766 11.8281 15.4941 12.0527 15.5293 12.291C15.5684 12.5293 15.625 12.7344 15.6992 12.9062V13H14.5684C14.5137 12.875 14.4707 12.709 14.4395 12.502C14.4082 12.291 14.3926 12.0957 14.3926 11.916ZM14.5801 9.15625L14.5918 9.91797H13.4961C13.1875 9.91797 12.9121 9.94336 12.6699 9.99414C12.4277 10.041 12.2246 10.1133 12.0605 10.2109C11.8965 10.3086 11.7715 10.4316 11.6855 10.5801C11.5996 10.7246 11.5566 10.8945 11.5566 11.0898C11.5566 11.2891 11.6016 11.4707 11.6914 11.6348C11.7812 11.7988 11.916 11.9297 12.0957 12.0273C12.2793 12.1211 12.5039 12.168 12.7695 12.168C13.1016 12.168 13.3945 12.0977 13.6484 11.957C13.9023 11.8164 14.1035 11.6445 14.252 11.4414C14.4043 11.2383 14.4863 11.041 14.498 10.8496L14.9609 11.3711C14.9336 11.5352 14.8594 11.7168 14.7383 11.916C14.6172 12.1152 14.4551 12.3066 14.252 12.4902C14.0527 12.6699 13.8145 12.8203 13.5371 12.9414C13.2637 13.0586 12.9551 13.1172 12.6113 13.1172C12.1816 13.1172 11.8047 13.0332 11.4805 12.8652C11.1602 12.6973 10.9102 12.4727 10.7305 12.1914C10.5547 11.9062 10.4668 11.5879 10.4668 11.2363C10.4668 10.8965 10.5332 10.5977 10.666 10.3398C10.7988 10.0781 10.9902 9.86133 11.2402 9.68945C11.4902 9.51367 11.791 9.38086 12.1426 9.29102C12.4941 9.20117 12.8867 9.15625 13.3203 9.15625H14.5801Z" fill="white"/>
<rect x="2" y="14" width="8" height="2" fill="white"/>
</svg>
