<svg width="16" height="16" viewBox="0 0 16 16" fill="none" xmlns="http://www.w3.org/2000/svg">
<g clip-path="url(#clip0_25918_25187)">
<path fill-rule="evenodd" clip-rule="evenodd" d="M6.5 0C9.95177 0 12.7499 2.86641 12.75 6.40234C12.75 9.93838 9.95185 12.8047 6.5 12.8047C3.04821 12.8046 0.25 9.93834 0.25 6.40234C0.250115 2.86645 3.04828 6.59964e-05 6.5 0ZM11.3652 5.91992C10.7472 7.54466 9.28321 9.17871 6.59375 9.17871C4.61338 9.17869 3.43007 8.85022 3.42969 9.27344C3.42969 9.88317 4.31634 10.6957 6.56934 10.6963C8.76658 10.6963 11.3651 9.6214 11.3652 5.91992ZM4.52441 3.6582C4.01927 3.6582 3.60938 4.34071 3.60938 5.18262C3.60938 6.02453 4.01927 6.70703 4.52441 6.70703C5.02938 6.70668 5.43848 6.02432 5.43848 5.18262C5.43847 4.34092 5.02938 3.65855 4.52441 3.6582ZM8.50098 3.6582C7.99583 3.6582 7.58594 4.34071 7.58594 5.18262C7.58594 6.02453 7.99583 6.70703 8.50098 6.70703C9.00595 6.70668 9.41504 6.02432 9.41504 5.18262C9.41504 4.34092 9.00595 3.65855 8.50098 3.6582Z" fill="white"/>
<path d="M16 13H14V16H13V13H11L13.5 9L16 13Z" fill="white"/>
</g>
<defs>
<clipPath id="clip0_25918_25187">
<rect width="16" height="16" fill="white"/>
</clipPath>
</defs>
</svg>
