<?xml version="1.0" encoding="utf-8"?>
<!-- Generator: Adobe Illustrator 28.1.0, SVG Export Plug-In . SVG Version: 6.00 Build 0)  -->
<svg version="1.1" id="Layer_1" xmlns="http://www.w3.org/2000/svg" xmlns:xlink="http://www.w3.org/1999/xlink" x="0px" y="0px"
	 viewBox="0 0 16 16" style="enable-background:new 0 0 16 16;" xml:space="preserve">
<style type="text/css">
	.st0{fill:#FFFFFF;}
	.st1{opacity:0.5;}
	.st2{fill:#231F20;stroke:#231F20;stroke-width:0.5;stroke-miterlimit:10;}
	.st3{fill:#231F20;enable-background:new    ;}
</style>
<path class="st0" d="M14,7V5c0-0.6-0.4-1-1-1H8L6.3,2.3C6.1,2.1,5.9,2,5.6,2H1C0.4,2,0,2.4,0,3v10l4-6H14z"/>
<path class="st0" d="M4.8,8l-4.3,6h11.8c0.3,0,0.6-0.2,0.8-0.4l2.7-4.1C16.3,8.9,15.8,8,15,8H4.8z"/>
<g class="st1">
	<path class="st2" d="M10.4,8.7h2.5l-3.4,4.7H7c-0.3,0-0.4-0.1-0.5-0.3c0-0.1,0-0.3,0.2-0.5l2.2-3C9.1,9.4,9.4,9.2,9.7,9
		C9.9,8.8,10.2,8.7,10.4,8.7L10.4,8.7z"/>
	<path class="st3" d="M14.7,9.8h-2l-0.8,1.1h2L14.7,9.8z"/>
	<path class="st3" d="M13.5,11.4h-2l-0.8,1.1h2L13.5,11.4z"/>
	<path class="st3" d="M1.8,14.4c0.2,0.1,0.5,0.2,0.9,0.1c0.3,0,0.4-0.1,0.6-0.2c0.2-0.1,0.4-0.3,0.5-0.4c0.2-0.3,0.2-0.4,0.4-0.7
		c0.1-0.5-0.1-0.6,0.1-1.1c0.1-0.2,0.2-0.4,0.4-0.6c0.1-0.1,0.2-0.2,0.4-0.4c0.3-0.2,0.4-0.3,0.7-0.4c0.2-0.1,0.5-0.2,0.7-0.2
		c0.5-0.1,0.8-0.1,1.3-0.1l-0.3,0.4c-0.3,0-0.7,0-1.1,0.1c-0.2,0.1-0.6,0.2-0.8,0.4c-0.2,0.1-0.5,0.4-0.6,0.6
		c-0.2,0.3-0.2,0.6-0.2,0.8c0,0.4,0,0.6-0.3,1.1c-0.1,0.2-0.3,0.3-0.5,0.5c-0.3,0.2-0.5,0.3-0.8,0.3C2.5,14.9,1.9,14.7,1.8,14.4z"/>
</g>
</svg>
