<svg width="16" height="16" viewBox="0 0 16 16" fill="none" xmlns="http://www.w3.org/2000/svg">
<path d="M8 4L6.33 2.33C6.12 2.12 5.83 2 5.54 2H1.12C0.5 2 0 2.5 0 3.12V4H8Z" fill="white"/>
<path fill-rule="evenodd" clip-rule="evenodd" d="M0 5V12.88C0 13.2507 0.178722 13.5785 0.454959 13.7821C0.482873 13.3911 0.5 12.9627 0.5 12.5C0.5 10 2 9 5 9V7.26778C5 6.93154 5.12267 6.60908 5.34101 6.37132C5.55936 6.13357 5.8555 6 6.16429 6H10V8H13V9H10V10H13V11H10V13H6.16429C5.8555 13 5.55936 12.8664 5.34101 12.6287C5.12267 12.3909 5 12.0685 5 11.7322V10C2.98021 10 1.5 10.4815 1.5 13C1.5 13.353 1.45603 13.6877 1.38315 14H14.88C15.5 14 16 13.5 16 12.88V6.12C16 5.5 15.5 5 14.88 5H0Z" fill="white"/>
</svg>
