<svg width="16" height="16" viewBox="0 0 16 16" fill="none" xmlns="http://www.w3.org/2000/svg">
<path d="M14 7V5C14 4.44772 13.5523 4 13 4H8L6.28 2.28C6.1 2.1 5.86 2 5.6 2H0.96C0.43 2 0 2.43 0 2.96V13L4 7H14Z" fill="white"/>
<path d="M15.5005 8.12999C15.3505 8.03999 15.1805 7.98999 15.0005 7.98999H4.80047L0.480469 14H1.48047C1.68047 13.75 1.88047 13.48 2.10047 13.18C3.24047 11.57 4.27047 10.93 6.37047 10.93L7.16047 9.81999C7.31047 9.59999 7.55047 9.39999 7.81047 9.23999C8.07047 9.08999 8.34047 8.99999 8.56047 8.99999H11.7305L10.9783 10.0665H13.6979L13.1342 10.8623H10.4147L9.74988 11.8008H12.4694L11.96 12.52H9.24047L8.56047 13.48H5.39047C5.17047 13.48 5.03047 13.39 4.98047 13.24C4.94047 13.09 5.00047 12.88 5.15047 12.66L5.83632 11.7469C4.41632 11.7469 3.62526 12.1154 2.71553 13.48C2.59553 13.66 2.44553 13.82 2.29553 13.98H12.3705C12.5305 13.98 12.6805 13.94 12.8205 13.86C12.9605 13.79 13.0805 13.68 13.1705 13.55L15.8905 9.47999C15.9805 9.32999 16 9.17976 16 8.99976C16 8.63915 15.8073 8.31407 15.5005 8.12999Z" fill="white"/>
</svg>
