<?xml version="1.0" encoding="utf-8"?>
<!-- Generator: Adobe Illustrator 28.1.0, SVG Export Plug-In . SVG Version: 6.00 Build 0)  -->
<svg version="1.1" id="Layer_1" xmlns="http://www.w3.org/2000/svg" xmlns:xlink="http://www.w3.org/1999/xlink" x="0px" y="0px"
	 viewBox="0 0 16 16" style="enable-background:new 0 0 16 16;" xml:space="preserve">
<style type="text/css">
	.st0{fill:#FFFFFF;}
	.st1{opacity:0.5;}
	.st2{fill:#231F20;stroke:#231F20;stroke-width:0.5;stroke-miterlimit:10;}
	.st3{fill:#231F20;enable-background:new    ;}
</style>
<path class="st0" d="M0,5v7.9C0,13.5,0.5,14,1.1,14h13.8c0.6,0,1.1-0.5,1.1-1.1V6.1C16,5.5,15.5,5,14.9,5H0z"/>
<path class="st0" d="M8,4L6.3,2.3C6.1,2.1,5.8,2,5.5,2H1.1C0.5,2,0,2.5,0,3.1V4H8z"/>
<g class="st1">
	<path class="st2" d="M8.2,6h3.5v6.8H8.2c-0.4,0-0.7-0.1-0.9-0.4C7.1,12.3,7,12,7,11.7V7.3c0-0.4,0.2-0.6,0.4-0.9
		C7.6,6.2,7.9,6,8.2,6L8.2,6z"/>
	<path class="st3" d="M15.1,7.6h-2.9v1.5h2.9V7.6z"/>
	<path class="st3" d="M15.1,9.9h-2.9v1.5h2.9V9.9z"/>
	<path class="st3" d="M2.1,14.2c0.4,0.1,0.9,0.2,1.4,0.1c0.3,0,0.5-0.1,0.7-0.2c0.2-0.1,0.3-0.4,0.3-0.6c0-0.5-0.1-0.7-0.4-1.1
		C3.8,12,3.5,11.5,3.4,11c0-0.3-0.1-0.5,0-0.8C3.5,10,3.6,9.9,3.7,9.7C3.8,9.5,4,9.3,4.3,9.1C4.5,9,4.7,8.9,5,8.9
		c0.3-0.1,1-0.2,1.5-0.1l0,0.6C6,9.4,5.4,9.4,5,9.5C4.6,9.6,4.4,9.8,4.2,10c-0.2,0.2-0.3,0.5-0.3,0.8c0,0.4,0.3,0.8,0.6,1.1
		c0.4,0.5,0.5,0.8,0.6,1.5c0,0.3,0,0.5-0.3,0.8c-0.2,0.2-0.7,0.3-0.8,0.3C3.4,14.6,2.6,14.5,2.1,14.2z"/>
</g>
</svg>
