<svg width="64" height="64" viewBox="0 0 64 64" fill="none" xmlns="http://www.w3.org/2000/svg">
<path d="M1.23074 12.3076C1.23074 9.58864 3.43488 7.38452 6.15379 7.38452H22.7534C24.1748 7.38452 25.5269 7.99886 26.4618 9.06957L28.7567 11.6979C29.0022 11.9791 29.1069 12.3564 29.0413 12.7238L27.559 21.0245H1.23071L1.23074 12.3076Z" fill="url(#paint0_linear_18933_17307)"/>
<path d="M1.23074 9.92218C1.23075 8.52064 2.3669 7.38452 3.76841 7.38452H23.8374C24.57 7.38452 25.267 7.7012 25.7489 8.25314L28.9449 11.9134C29.0714 12.0584 29.1254 12.2528 29.0916 12.4422L27.559 21.0245H1.23071L1.23074 9.92218Z" fill="url(#paint1_linear_18933_17307)"/>
<path fill-rule="evenodd" clip-rule="evenodd" d="M23.8374 7.70175H3.76841C2.54209 7.70175 1.54796 8.69584 1.54796 9.92218L1.54793 20.7073H27.2934L28.7793 12.3864C28.7962 12.2918 28.7692 12.1945 28.706 12.1221L25.5099 8.46175C25.0883 7.9788 24.4785 7.70175 23.8374 7.70175ZM27.559 21.0245L29.0916 12.4422C29.1254 12.2528 29.0714 12.0584 28.9449 11.9134L25.7489 8.25314C25.267 7.7012 24.57 7.38452 23.8374 7.38452H3.76841C2.3669 7.38452 1.23075 8.52064 1.23074 9.92218L1.23071 21.0245H27.559Z" fill="url(#paint2_linear_18933_17307)"/>
<path d="M1.23071 18.1698C1.23071 17.469 1.79879 16.9009 2.49955 16.9009H24.1189C24.8898 16.9009 25.6189 16.5505 26.1005 15.9485L28.9546 12.3809C29.075 12.2304 29.2572 12.1428 29.45 12.1428H60.2315C61.6332 12.1428 62.7692 13.2789 62.7692 14.6805V52.4283C62.7692 52.7786 62.4849 53.0627 62.1347 53.0627H1.86513C1.51475 53.0627 1.23071 52.7786 1.23071 52.4283V18.1698Z" fill="url(#paint3_linear_18933_17307)"/>
<path fill-rule="evenodd" clip-rule="evenodd" d="M62.4522 52.4283V14.6805C62.4522 13.4541 61.4578 12.46 60.2315 12.46H29.45C29.3536 12.46 29.2625 12.5038 29.2023 12.5791L26.3482 16.1467C25.8064 16.8239 24.9862 17.2181 24.1189 17.2181H2.49955C1.97398 17.2181 1.54792 17.6442 1.54792 18.1698V52.4283C1.54792 52.6035 1.68994 52.7455 1.86513 52.7455H62.1347C62.3101 52.7455 62.4522 52.6035 62.4522 52.4283ZM2.49955 16.9009C1.79879 16.9009 1.23071 17.469 1.23071 18.1698V52.4283C1.23071 52.7786 1.51475 53.0627 1.86513 53.0627H62.1347C62.4849 53.0627 62.7692 52.7786 62.7692 52.4283V14.6805C62.7692 13.2789 61.6332 12.1428 60.2315 12.1428H29.45C29.2572 12.1428 29.075 12.2304 28.9546 12.3809L26.1005 15.9485C25.6189 16.5505 24.8898 16.9009 24.1189 16.9009H2.49955Z" fill="url(#paint4_linear_18933_17307)"/>
<path d="M1.23071 52.3076H62.7692C62.7692 52.8332 62.3433 53.2592 61.8178 53.2592H2.18234C1.65677 53.2592 1.23071 52.8332 1.23071 52.3076Z" fill="#878787"/>
<g opacity="0.4">
<path d="M27.8766 23H43V46L27.8766 46C26.8414 46 25.8487 45.5469 25.1168 44.7404C24.3848 43.9339 23.9736 42.8401 23.9736 41.6995V27.3005C23.9736 26.1599 24.3848 25.0661 25.1168 24.2596C25.8487 23.4531 26.8414 23 27.8766 23Z" fill="black"/>
<path d="M54.0039 28H43V32.0939H54.0039V28Z" fill="black"/>
<path d="M54.0039 37H43V41H54.0039V37Z" fill="black"/>
<path d="M10.2305 43.7419C10.2305 35.6357 14.2462 32.0939 23.9736 32.0939V35.935C17.6874 35.935 13.473 37.1969 13.473 45.3631C13.473 49.0135 12.5 52.3178 12.5 52.3178H9.05591C9.05591 52.3178 10.2305 49.0135 10.2305 43.7419Z" fill="black"/>
</g>
<defs>
<linearGradient id="paint0_linear_18933_17307" x1="15.1879" y1="7.38452" x2="15.1879" y2="21.0245" gradientUnits="userSpaceOnUse">
<stop offset="0.349258" stop-color="#878787"/>
<stop offset="1" stop-color="#464646"/>
</linearGradient>
<linearGradient id="paint1_linear_18933_17307" x1="15.1879" y1="7.38452" x2="15.1879" y2="21.0245" gradientUnits="userSpaceOnUse">
<stop offset="0.349258" stop-color="#BEBEBE"/>
<stop offset="1" stop-color="#464646"/>
</linearGradient>
<linearGradient id="paint2_linear_18933_17307" x1="15.1661" y1="7.38452" x2="15.1661" y2="17.218" gradientUnits="userSpaceOnUse">
<stop stop-color="#DAB277" stop-opacity="0.21"/>
<stop offset="1" stop-opacity="0"/>
</linearGradient>
<linearGradient id="paint3_linear_18933_17307" x1="44.371" y1="10.7154" x2="1.23068" y2="53.0627" gradientUnits="userSpaceOnUse">
<stop stop-color="#C5C5C5"/>
<stop offset="1" stop-color="white"/>
</linearGradient>
<linearGradient id="paint4_linear_18933_17307" x1="31.9999" y1="12.1428" x2="31.9999" y2="53.0627" gradientUnits="userSpaceOnUse">
<stop stop-color="white"/>
<stop offset="0.84496" stop-color="white" stop-opacity="0"/>
</linearGradient>
</defs>
</svg>
