<svg width="64" height="64" viewBox="0 0 64 64" fill="none" xmlns="http://www.w3.org/2000/svg">
<path d="M4 8.25H49C50.5188 8.25 51.75 9.48122 51.75 11V27.25H15.5C14.2574 27.25 13.25 28.2574 13.25 29.5V52.75H5C2.92893 52.75 1.25 51.0711 1.25 49V11C1.25 9.48122 2.48122 8.25 4 8.25Z" fill="url(#paint0_linear_18933_17306)" stroke="url(#paint1_linear_18933_17306)" stroke-width="0.5"/>
<path d="M57.9999 52.75H7.80775C7.95576 52.6584 8.09669 52.554 8.22851 52.4369C8.84699 51.8871 9.24992 51.0678 9.24992 50V49.9786V49.9569V49.935V49.9128V49.8904V49.8678V49.8449V49.8218V49.7985V49.7749V49.7512V49.7271V49.7029V49.6784V49.6537V49.6288V49.6036V49.5782V49.5526V49.5268V49.5008V49.4745V49.448V49.4213V49.3944V49.3672V49.3398V49.3123V49.2845V49.2565V49.2282V49.1998V49.1711V49.1423V49.1132V49.0839V49.0544V49.0247V48.9948V48.9647V48.9344V48.9039V48.8732V48.8423V48.8111V48.7798V48.7483V48.7166V48.6846V48.6525V48.6202V48.5877V48.555V48.5221V48.489V48.4557V48.4222V48.3886V48.3547V48.3207V48.2864V48.252V48.2174V48.1826V48.1477V48.1125V48.0772V48.0416V48.0059V47.9701V47.934V47.8978V47.8613V47.8247V47.788V47.751V47.7139V47.6766V47.6392V47.6015V47.5637V47.5257V47.4876V47.4493V47.4108V47.3722V47.3334V47.2944V47.2553V47.216V47.1765V47.1369V47.0971V47.0571V47.017V46.9768V46.9364V46.8958V46.8551V46.8142V46.7732V46.732V46.6906V46.6492V46.6075V46.5657V46.5238V46.4817V46.4395V46.3971V46.3546V46.3119V46.2691V46.2262V46.1831V46.1399V46.0965V46.053V46.0094V45.9656V45.9217V45.8776V45.8334V45.7891V45.7447V45.7001V45.6554V45.6105V45.5656V45.5205V45.4752V45.4299V45.3844V45.3388V45.2931V45.2472V45.2013V45.1552V45.109V45.0626V45.0162V44.9696V44.9229V44.8761V44.8292V44.7822V44.735V44.6877V44.6404V44.5929V44.5453V44.4976V44.4498V44.4019V44.3539V44.3057V44.2575V44.2092V44.1607V44.1122V44.0635V44.0148V43.9659V43.917V43.8679V43.8188V43.7696V43.7202V43.6708V43.6213V43.5717V43.522V43.4722V43.4223V43.3723V43.3223V43.2721V43.2219V43.1716V43.1211V43.0707V43.0201V42.9694V42.9187V42.8679V42.817V42.766V42.7149V42.6638V42.6126V42.5613V42.5099V42.4585V42.407V42.3554V42.3038V42.252V42.2003V42.1484V42.0965V42.0445V41.9924V41.9403V41.8881V41.8358V41.7835V41.7311V41.6787V41.6262V41.5737V41.521V41.4684V41.4156V41.3629V41.31V41.2571V41.2042V41.1512V41.0981V41.045V40.9919V40.9387V40.8854V40.8321V40.7788V40.7254V40.672V40.6185V40.565V40.5114V40.4578V40.4042V40.3505V40.2968V40.243V40.1892V40.1354V40.0815V40.0276V39.9737V39.9197V39.8658V39.8117V39.7577V39.7036V39.6495V39.5953V39.5412V39.487V39.4328V39.3785V39.3243V39.27V39.2157V39.1613V39.107V39.0526V38.9983V38.9439V38.8894V38.835V38.7806V38.7261V38.6716V38.6172V38.5627V38.5082V38.4537V38.3991V38.3446V38.2901V38.2355V38.181V38.1264V38.0719V38.0173V37.9628V37.9082V37.8537V37.7991V37.7446V37.69V37.6355V37.5809V37.5264V37.4719V37.4174V37.3628V37.3083V37.2539V37.1994V37.1449V37.0904V37.036V36.9816V36.9271V36.8727V36.8184V36.764V36.7097V36.6553V36.601V36.5467V36.4925V36.4382V36.384V36.3298V36.2756V36.2215V36.1674V36.1133V36.0592V36.0052V35.9512V35.8973V35.8433V35.7894V35.7356V35.6817V35.6279V35.5742V35.5205V35.4668V35.4131V35.3595V35.306V35.2524V35.199V35.1455V35.0921V35.0388V34.9855V34.9322V34.879V34.8259V34.7728V34.7197V34.6667V34.6138V34.5609V34.508V34.4552V34.4025V34.3498V34.2972V34.2446V34.1921V34.1397V34.0873V34.035V33.9827V33.9305V33.8784V33.8263V33.7743V33.7224V33.6705V33.6187V33.567V33.5154V33.4638V33.4123V33.3608V33.3094V33.2582V33.2069V33.1558V33.1047V33.0538V33.0028V32.952V32.9013V32.8506V32.8V32.7495V32.6991V32.6488V32.5985V32.5484V32.4983V32.4483V32.3984V32.3486V32.2989V32.2493V32.1998V32.1503V32.101V32.0518V32.0026V31.9536V31.9046V31.8558V31.807V31.7583V31.7098V31.6613V31.613V31.5648V31.5166V31.4686V31.4207V31.3728V31.3251V31.2775V31.23V31.1827V31.1354V31.0882V31.0412V30.9943V30.9475V30.9008V30.8542V30.8077V30.7614V30.7151V30.669V30.6231V30.5772V30.5315V30.4858V30.4404V30.395V30.3498V30.3046V30.2597V30.2148V30.1701V30.1255V30.081V30.0367V29.9925V29.9484V29.9045V29.8607V29.8171V29.7736V29.7302V29.6869V29.6438V29.6009V29.5581V29.5154V29.4729V29.4305V29.3882V29.3462V29.3042V29.2624V29.2208V29.1793V29.1379V29.0967V29.0557V29.0148V28.974V28.9335V28.893V28.8528V28.8126V28.7727V28.7329V28.6933V28.6538V28.6145V28.5753V28.5363V28.4975V28.4588V28.4204V28.382V28.3439V28.3059V28.2681V28.2304V28.1929V28.1556V28.1185V28.0815V28.0448V28.0082V27.9717V27.9355V27.8994V27.8635V27.8278V27.7922V27.7569V27.7217V27.6867V27.6519V27.6173V27.5829V27.5486V27.5146V27.4807V27.447V27.4135V27.3802V27.3471V27.3142V27.2815V27.2489V27.2166V27.1845V27.1525V27.1208V27.0892V27.0579V27.0268V26.9958C9.24992 26.03 10.0327 25.25 10.9999 25.25H58.9999C59.9664 25.25 60.7499 26.0335 60.7499 27V50C60.7499 51.5188 59.5187 52.75 57.9999 52.75Z" fill="url(#paint2_linear_18933_17306)" stroke="url(#paint3_linear_18933_17306)" stroke-width="0.5"/>
<path d="M8.30932 52C7.73197 52.6667 6.86595 53 5.99992 53C4.0473 53 4.99992 53 4.99992 53H57.9999C58.8884 53 59.6867 52.6137 60.236 52H8.30932Z" fill="#878787"/>
<defs>
<linearGradient id="paint0_linear_18933_17306" x1="26.5329" y1="8" x2="26.5329" y2="52.9999" gradientUnits="userSpaceOnUse">
<stop offset="0.09" stop-color="#BEBEBE"/>
<stop offset="0.545" stop-color="#828282"/>
<stop offset="1" stop-color="#464646"/>
</linearGradient>
<linearGradient id="paint1_linear_18933_17306" x1="26" y1="8" x2="26" y2="53" gradientUnits="userSpaceOnUse">
<stop stop-color="#D7D7D7"/>
<stop offset="1" stop-color="#565656"/>
</linearGradient>
<linearGradient id="paint2_linear_18933_17306" x1="34" y1="25" x2="34" y2="53" gradientUnits="userSpaceOnUse">
<stop stop-color="#C8C8C8"/>
<stop offset="0.91" stop-color="#DDDDDD"/>
<stop offset="1" stop-color="#989898"/>
</linearGradient>
<linearGradient id="paint3_linear_18933_17306" x1="34" y1="25" x2="34" y2="53" gradientUnits="userSpaceOnUse">
<stop stop-color="#E2E2E2"/>
<stop offset="1" stop-color="#B5B5B5"/>
</linearGradient>
</defs>
</svg>
