<svg width="16" height="16" viewBox="0 0 16 16" fill="none" xmlns="http://www.w3.org/2000/svg">
<path fill-rule="evenodd" clip-rule="evenodd" d="M8.5 10C7.17019 10 6.08057 10.7085 5.34737 11.3732C4.97705 11.709 4.6862 12.0438 4.48753 12.295C4.38795 12.4209 4.31086 12.5266 4.25787 12.6021C4.23136 12.6399 4.21083 12.6702 4.19649 12.6917L4 13L4.19649 13.3083C4.21083 13.3298 4.23136 13.3601 4.25787 13.3979C4.31086 13.4734 4.38795 13.5791 4.48753 13.705C4.6862 13.9562 4.97705 14.291 5.34737 14.6268C6.08057 15.2915 7.17019 16 8.5 16C9.82981 16 10.9194 15.2915 11.6526 14.6268C12.0229 14.291 12.3138 13.9562 12.5125 13.705C12.6121 13.5791 12.6891 13.4734 12.7421 13.3979C12.7686 13.3601 12.7892 13.3298 12.8035 13.3083L13 13L12.8035 12.6917C12.7892 12.6702 12.7686 12.6399 12.7421 12.6021C12.6891 12.5266 12.6121 12.4209 12.5125 12.295C12.3138 12.0438 12.0229 11.709 11.6526 11.3732C10.9194 10.7085 9.82981 10 8.5 10ZM5.17773 13.0816C5.15515 13.053 5.13398 13.0258 5.11424 13C5.13398 12.9742 5.15515 12.947 5.17773 12.9184C5.35237 12.6976 5.60833 12.4032 5.93205 12.1096C6.58693 11.5159 7.47426 10.9658 8.49997 10.9658C9.52569 10.9658 10.413 11.5159 11.0679 12.1096C11.3916 12.4032 11.6476 12.6976 11.8222 12.9184C11.8448 12.947 11.866 12.9742 11.8857 13C11.866 13.0258 11.8448 13.053 11.8222 13.0816C11.6476 13.3024 11.3916 13.5968 11.0679 13.8904C10.413 14.4841 9.52569 15.0342 8.49997 15.0342C7.47426 15.0342 6.58693 14.4841 5.93205 13.8904C5.60833 13.5968 5.35237 13.3024 5.17773 13.0816Z" fill="white"/>
<path d="M8.49994 14.4383C7.74281 14.4383 7.15393 13.8091 7.15393 13C7.15393 12.1909 7.74281 11.5616 8.49994 11.5616C9.25707 11.5616 9.84595 12.1909 9.84595 13C9.84595 13.8091 9.25707 14.4383 8.49994 14.4383Z" fill="white"/>
<path d="M2.93445 8.4251V6.1026C2.93087 5.84666 2.97867 5.59256 3.07496 5.35541C3.17125 5.11825 3.3141 4.90282 3.49508 4.72184C3.67607 4.54085 3.8915 4.39806 4.12865 4.30177C4.3658 4.20547 4.61986 4.15762 4.87579 4.1612C5.13139 4.15883 5.38491 4.20753 5.62152 4.30425C5.85812 4.40098 6.07304 4.5438 6.25379 4.72454C6.43453 4.90528 6.57746 5.12032 6.67418 5.35692C6.77091 5.59352 6.8195 5.847 6.81713 6.1026V8.4251H7.97838V6.1026C7.97604 5.28045 7.64844 4.49269 7.06709 3.91134C6.48575 3.33 5.69793 3.00234 4.87579 3C4.05365 3.00234 3.26583 3.33 2.68448 3.91134C2.10314 4.49269 1.77553 5.28045 1.77319 6.1026V8.4251H2.93445Z" fill="white"/>
<path d="M9.31818 8H0.681818C0.501721 8.00259 0.329663 8.08244 0.202304 8.22253C0.0749449 8.36263 0.00235451 8.55189 0 8.75V14.25C0.00235451 14.4481 0.0749449 14.6374 0.202304 14.7775C0.329663 14.9176 0.501721 14.9974 0.681818 15L4 15C3.56003 14.4184 2.5 13 2.5 13C2.5 13 4.5 9 8.5 9C9.31818 9 10 9.25 10 9.25V8.75C9.99765 8.55189 9.92505 8.36263 9.7977 8.22253C9.67034 8.08244 9.49828 8.00259 9.31818 8Z" fill="white"/>
<path d="M8.5 4C8.5 4 8.5 3.66667 8 3C7.5 2.33333 6.5 2 6.5 2H11V0L16 3L11 6V4H8.5Z" fill="white"/>
</svg>
