<svg width="16" height="16" viewBox="0 0 16 16" fill="none" xmlns="http://www.w3.org/2000/svg">
<path d="M1.14404 15.8836L15.5716 8.63136C15.7001 8.57285 15.8084 8.48203 15.8841 8.36921C15.9599 8.2564 16 8.12612 16 7.99317C16 7.86022 15.9599 7.72994 15.8841 7.61712C15.8084 7.50431 15.7001 7.41348 15.5716 7.35497L1.14404 0.102764C1.02697 0.0360502 0.892415 0.000504121 0.75507 5.32006e-06C0.617724 -0.000493481 0.482869 0.0340918 0.365238 0.0999533C0.247607 0.165815 0.151723 0.260435 0.0880525 0.373482C0.0243823 0.486529 -0.00461701 0.613641 0.00421069 0.740962V15.2454C-0.0107444 15.3745 0.0143214 15.505 0.0764733 15.6213C0.138625 15.7377 0.235284 15.8351 0.35504 15.9021C0.474797 15.9692 0.612666 16.0031 0.752449 15.9998C0.892232 15.9965 1.0281 15.9562 1.14404 15.8836Z" fill="white"/>
</svg>
