<svg width="16" height="16" viewBox="0 0 16 16" fill="none" xmlns="http://www.w3.org/2000/svg">
<path d="M12.7899 11.84L8.6899 3.41001C8.62312 3.28491 8.52266 3.18099 8.3999 3.11001C8.28103 3.03214 8.14201 2.99066 7.9999 2.99066C7.85779 2.99066 7.71878 3.03214 7.5999 3.11001C7.47714 3.18099 7.37669 3.28491 7.3099 3.41001L3.2099 11.84C3.14965 11.9611 3.11881 12.0947 3.1199 12.23C3.12089 12.3644 3.15896 12.4959 3.2299 12.61C3.29647 12.7267 3.39317 12.8234 3.5099 12.89C3.62775 12.9608 3.76241 12.9988 3.8999 13H12.0999C12.2374 12.9988 12.3721 12.9608 12.4899 12.89C12.6066 12.8234 12.7033 12.7267 12.7699 12.61C12.8408 12.4959 12.8789 12.3644 12.8799 12.23C12.8858 12.0943 12.8547 11.9595 12.7899 11.84V11.84ZM7.9999 12C7.73513 11.9963 7.48154 11.8927 7.2899 11.71C7.19617 11.617 7.12178 11.5064 7.07101 11.3846C7.02024 11.2627 6.9941 11.132 6.9941 11C6.9941 10.868 7.02024 10.7373 7.07101 10.6154C7.12178 10.4936 7.19617 10.383 7.2899 10.29C7.48154 10.1073 7.73513 10.0037 7.9999 10C8.26512 10 8.51947 10.1054 8.70701 10.2929C8.89454 10.4804 8.9999 10.7348 8.9999 11C8.9999 11.2652 8.89454 11.5196 8.70701 11.7071C8.51947 11.8946 8.26512 12 7.9999 12V12ZM8.3299 9.33001H7.6699C7.60159 9.32923 7.5344 9.31256 7.47365 9.28132C7.4129 9.25008 7.36026 9.20512 7.3199 9.15001C7.21954 9.03346 7.16607 8.88377 7.1699 8.73001V5.93001C7.16607 5.77625 7.21954 5.62655 7.3199 5.51001C7.36026 5.45489 7.4129 5.40993 7.47365 5.37869C7.5344 5.34745 7.60159 5.33078 7.6699 5.33001H8.3299C8.39821 5.33078 8.4654 5.34745 8.52615 5.37869C8.5869 5.40993 8.63954 5.45489 8.6799 5.51001C8.78027 5.62655 8.83373 5.77625 8.8299 5.93001V8.73001C8.83373 8.88377 8.78027 9.03346 8.6799 9.15001C8.63954 9.20512 8.5869 9.25008 8.52615 9.28132C8.4654 9.31256 8.39821 9.32923 8.3299 9.33001V9.33001Z" fill="white"/>
</svg>
