<svg width="16" height="16" viewBox="0 0 16 16" fill="none" xmlns="http://www.w3.org/2000/svg">
<path fill-rule="evenodd" clip-rule="evenodd" d="M13.5 8C13.5 11.0376 11.0376 13.5 8 13.5C4.96243 13.5 2.5 11.0376 2.5 8C2.5 4.96243 4.96243 2.5 8 2.5C11.0376 2.5 13.5 4.96243 13.5 8ZM4 8C4 7.44772 4.44772 7 5 7H7V5C7 4.44772 7.44772 4 8 4C8.55228 4 9 4.44772 9 5V7H11C11.5523 7 12 7.44772 12 8C12 8.55228 11.5523 9 11 9H9V11C9 11.5523 8.55228 12 8 12C7.44771 12 7 11.5523 7 11V9H5C4.44772 9 4 8.55228 4 8Z" fill="white"/>
</svg>
