<svg width="16" height="16" viewBox="0 0 16 16" fill="none" xmlns="http://www.w3.org/2000/svg">
<path fill-rule="evenodd" clip-rule="evenodd" d="M8 15C11.866 15 15 11.866 15 8C15 4.13401 11.866 1 8 1C4.13401 1 1 4.13401 1 8C1 11.866 4.13401 15 8 15ZM8 16C12.4183 16 16 12.4183 16 8C16 3.58172 12.4183 0 8 0C3.58172 0 0 3.58172 0 8C0 12.4183 3.58172 16 8 16Z" fill="white"/>
<path d="M5.40038 10.8519C5.23927 11.1162 5.42948 11.4549 5.73897 11.4549L12.0609 11.4524C13.4417 11.4524 14.1304 10.6383 14.5351 10.0419C15.0863 9.22959 14.9993 7.77897 14.9993 7.77897C14.9993 7.77897 14.9863 10.0184 12.5614 10.0184L7.96329 10.0216C7.80883 10.0216 7.71369 9.85282 7.79366 9.72068L10.5617 5.14679C10.7217 4.88251 10.5314 4.54492 10.2225 4.54492L3.93558 4.545C2.55478 4.545 1.86605 5.35915 1.4614 5.95548C0.910164 6.76783 0.997201 8.21845 0.997201 8.21845C0.997201 8.21845 1.01012 5.97903 3.43503 5.97903L8.01865 5.97823C8.17339 5.97823 8.26849 6.14759 8.18794 6.27972L5.40038 10.8519Z" fill="white"/>
</svg>
