<svg width="16" height="16" viewBox="0 0 16 16" fill="none" xmlns="http://www.w3.org/2000/svg">
<circle cx="8" cy="8" r="8" fill="black"/>
<path fill-rule="evenodd" clip-rule="evenodd" d="M8 15C11.866 15 15 11.866 15 8C15 4.13401 11.866 1 8 1C4.13401 1 1 4.13401 1 8C1 11.866 4.13401 15 8 15ZM8 16C12.4183 16 16 12.4183 16 8C16 3.58172 12.4183 0 8 0C3.58172 0 0 3.58172 0 8C0 12.4183 3.58172 16 8 16Z" fill="white"/>
<path d="M5.40234 10.8521C5.24123 11.1163 5.43143 11.455 5.74092 11.455L12.0628 11.4525C13.4436 11.4525 14.1324 10.6384 14.537 10.0421C15.0882 9.22971 15.0012 7.77909 15.0012 7.77909C15.0012 7.77909 14.9883 10.0185 12.5634 10.0185L7.96524 10.0217C7.81078 10.0217 7.71564 9.85294 7.79561 9.7208L10.5637 5.14691C10.7236 4.88263 10.5333 4.54504 10.2244 4.54504L3.93753 4.54512C2.55673 4.54512 1.868 5.35928 1.46335 5.9556C0.912117 6.76795 0.999154 8.21857 0.999154 8.21857C0.999154 8.21857 1.01208 5.97915 3.43699 5.97915L8.0206 5.97835C8.17535 5.97835 8.27045 6.14771 8.18989 6.27984L5.40234 10.8521Z" fill="white"/>
</svg>
