<svg width="24" height="24" viewBox="0 0 24 24" fill="none" xmlns="http://www.w3.org/2000/svg">
<circle cx="12" cy="12" r="12" fill="black"/>
<path fill-rule="evenodd" clip-rule="evenodd" d="M12 23C18.0751 23 23 18.0751 23 12C23 5.92487 18.0751 1 12 1C5.92487 1 1 5.92487 1 12C1 18.0751 5.92487 23 12 23ZM12 24C18.6274 24 24 18.6274 24 12C24 5.37258 18.6274 0 12 0C5.37258 0 0 5.37258 0 12C0 18.6274 5.37258 24 12 24Z" fill="white"/>
<path d="M8.01499 16.3201C7.71864 16.8061 8.06851 17.4292 8.63782 17.4292L18.3809 17.4253C20.5507 17.4253 21.633 16.1459 22.2689 15.2089C23.1351 13.9323 22.9983 11.6528 22.9983 11.6528C22.9983 11.6528 22.978 15.1719 19.1674 15.1719L12.0382 15.1769C11.754 15.1769 11.579 14.8664 11.7261 14.6233L15.9295 7.67781C16.2237 7.19166 15.8736 6.57068 15.3054 6.57068L5.61946 6.57085C3.44964 6.57085 2.36735 7.85023 1.73147 8.78731C0.865246 10.0639 1.00202 12.3434 1.00202 12.3434C1.00202 12.3434 1.02232 8.82431 4.83289 8.82431L11.9362 8.82301C12.2209 8.82301 12.3958 9.13455 12.2476 9.3776L8.01499 16.3201Z" fill="white"/>
</svg>
