<svg width="16" height="16" viewBox="0 0 16 16" fill="none" xmlns="http://www.w3.org/2000/svg">
<path opacity="0.5" d="M7 0C5.67 0 4.4 0.53 3.46 1.46C2.52 2.4 2 3.67 2 5C2 6.33 2.53 7.6 3.46 8.54C4.4 9.48 5.67 10 7 10C8.33 10 9.6 9.47 10.54 8.54C11.48 7.6 12 6.33 12 5C12 3.67 11.47 2.4 10.54 1.46C9.6 0.52 8.33 0 7 0Z" fill="white"/>
<path d="M7.35993 8.60994C6.30993 8.60994 5.29993 8.18994 4.55993 7.44994C3.81993 6.70994 3.39993 5.69994 3.39993 4.64994C3.39993 3.62994 3.78993 2.63994 4.49993 1.90994C5.20993 1.16994 6.16993 0.729941 7.18993 0.689941H7.00993C5.85993 0.689941 4.75993 1.14994 3.94993 1.95994C3.13993 2.76994 2.67993 3.86994 2.67993 5.01994C2.67993 6.16994 3.13993 7.26994 3.94993 8.07994C4.75993 8.88994 5.85993 9.34994 7.00993 9.34994C8.15993 9.34994 9.25993 8.88994 10.0699 8.07994C10.8799 7.26994 11.3399 6.16994 11.3399 5.01994V4.83994C11.2899 5.85994 10.8499 6.82994 10.1099 7.52994C9.36993 8.22994 8.38993 8.62994 7.35993 8.61994V8.60994Z" fill="white"/>
<path d="M8.69995 4.2998C9.24995 4.2998 9.69995 3.8498 9.69995 3.2998C9.69995 2.7498 9.24995 2.2998 8.69995 2.2998C8.14995 2.2998 7.69995 2.7498 7.69995 3.2998C7.69995 3.8498 8.14995 4.2998 8.69995 4.2998Z" fill="white"/>
<path opacity="0.5" d="M8.24805 14C8.15137 13.6183 8.1001 13.2163 8.1001 12.7999C8.1001 12.5227 8.12769 12.2568 8.17798 12H2L3 8L0 12V14H8.24805Z" fill="white"/>
<path d="M12.4716 7.67627C11.3051 10.0094 9.6001 11.2657 9.6001 12.8809C9.6001 14.4962 10.8564 15.7525 12.4716 15.7525C14.0869 15.7525 15.3432 14.4962 15.3432 12.8809C15.3432 11.2657 13.6382 10.0094 12.4716 7.67627Z" fill="white"/>
</svg>
