<svg width="16" height="16" viewBox="0 0 16 16" fill="none" xmlns="http://www.w3.org/2000/svg">
<path d="M15.1999 13.3L8.99993 0.6C8.59993 -0.2 7.39993 -0.2 6.99993 0.6L0.799927 13.3C0.399927 14 0.999927 15 1.79993 15H14.0999C14.9999 15 15.5999 14 15.1999 13.3ZM6.99993 5C6.99993 4.4 7.39993 4 7.99993 4C8.59993 4 8.99993 4.4 8.99993 5V8.5C8.99993 9.1 8.59993 9.5 7.99993 9.5C7.39993 9.5 6.99993 9.1 6.99993 8.5V5ZM7.99993 13.1C7.39993 13.1 6.89993 12.6 6.89993 12C6.89993 11.4 7.39993 10.9 7.99993 10.9C8.59993 10.9 9.09993 11.4 9.09993 12C9.09993 12.6 8.59993 13.1 7.99993 13.1Z" fill="white"/>
</svg>
