<svg width="16" height="16" viewBox="0 0 16 16" fill="none" xmlns="http://www.w3.org/2000/svg">
<g clip-path="url(#clip0_414_2590)">
<path d="M6 11V13H11V15.5L16 12L11 8.5V11H6Z" fill="white"/>
<path d="M5 11H3V13H5V11Z" fill="white"/>
<path d="M2 11H0V13H2V11Z" fill="white"/>
<path opacity="0.5" d="M8 8H2C1.4 8 1 7.6 1 7V1C1 0.4 1.4 0 2 0H8C8.6 0 9 0.4 9 1V7C9 7.6 8.6 8 8 8Z" fill="white"/>
<path opacity="0.5" d="M9.8999 3.4001V4.6001L13.9999 7.4001V0.600098L9.8999 3.4001Z" fill="white"/>
</g>
<defs>
<clipPath id="clip0_414_2590">
<rect width="16" height="16" fill="white"/>
</clipPath>
</defs>
</svg>
