<svg width="16" height="16" viewBox="0 0 16 16" fill="none" xmlns="http://www.w3.org/2000/svg">
<rect opacity="0.5" x="0.5" y="1.5" width="15" height="13" stroke="white"/>
<path fill-rule="evenodd" clip-rule="evenodd" d="M12.784 6.77287C13.4675 6.08945 13.4675 4.98142 12.784 4.298L11.7234 3.23734C11.04 2.55392 9.93192 2.55392 9.2485 3.23734L7.65685 4.82899C7.29424 5.1916 7.13706 6.04845 7.49433 6.40572L9.77817 4.12188C10.1687 3.73135 10.8019 3.73135 11.1924 4.12188L11.8938 4.8233C12.2836 5.21314 12.2844 5.84495 11.8956 6.23575L9.61565 8.52704C9.97293 8.88432 10.7698 8.72758 11.1924 8.36452L12.784 6.77287ZM6.24264 11.9001C5.85212 12.2906 5.21895 12.2906 4.82843 11.9001L4.12132 11.1929C3.7308 10.8024 3.7308 10.1693 4.12132 9.77873L6.40648 7.49358C5.98921 7.13675 5.19105 7.29479 4.82843 7.65741L3.23752 9.24832C2.55407 9.93177 2.55411 11.0399 3.2376 11.7233L4.29833 12.7839C4.98176 13.4672 6.08955 13.4674 6.77293 12.784C7.38077 12.1761 8.04899 11.5079 8.36396 11.1929C8.72658 10.8303 8.91484 10.0019 8.55801 9.58468L6.24264 11.9001ZM5.88909 10.1323C6.06772 10.3109 6.3068 10.4291 6.60898 10.1269L10.1264 6.60954C10.4286 6.30736 10.3104 6.06828 10.1317 5.88965C9.95309 5.71101 9.71402 5.59281 9.41183 5.89499L5.89443 9.41239C5.59225 9.71458 5.65046 9.95409 5.88909 10.1323Z" fill="white"/>
</svg>
