<svg width="16" height="16" viewBox="0 0 16 16" fill="none" xmlns="http://www.w3.org/2000/svg">
<path d="M10.0001 1.27998L12.1601 5.75998L14.4001 2.71998V12.64L6.88008 6.15998L10.5601 6.47998L8.40008 2.07998L10.0001 1.27998ZM10.0001 0.47998C9.92008 0.47998 9.76008 0.47998 9.68008 0.55998L8.08008 1.35998C7.92008 1.43998 7.76008 1.59998 7.68008 1.83998C7.60008 2.07998 7.60008 2.23998 7.68008 2.47998L9.20008 5.59998L6.96008 5.43998H6.88008C6.56008 5.43998 6.24008 5.59998 6.16008 5.91998C6.00008 6.23998 6.08008 6.63998 6.40008 6.79998L13.9201 13.28C14.0801 13.44 14.2401 13.44 14.4801 13.44C14.5601 13.44 14.7201 13.44 14.8001 13.36C15.1201 13.2 15.2801 12.96 15.2801 12.64V2.71998C15.2801 2.39998 15.0401 2.07998 14.7201 1.99998C14.6401 1.99998 14.5601 1.91998 14.4801 1.91998C14.2401 1.91998 14.0001 1.99998 13.8401 2.23998L12.3201 4.23998L10.7201 0.95998C10.5601 0.63998 10.2401 0.47998 10.0001 0.47998Z" fill="white"/>
<path opacity="0.5" d="M4.55965 7.43998L11.1996 13.04V14.4L2.63965 7.19998H4.55965V7.43998V7.43998ZM4.95965 2.87998C4.87965 2.95998 4.71965 3.03998 4.71965 3.19998C4.71965 3.35998 4.71965 3.43998 4.71965 3.59998L5.51965 5.19998L6.55965 4.79998H6.79965L5.83965 2.47998L4.95965 2.87998Z" fill="white"/>
<path opacity="0.5" d="M2.55975 4.23992L3.27975 3.91992L4.15975 6.15992H3.91975L3.03975 6.39992L2.31975 4.87992C2.23975 4.79992 2.23975 4.63992 2.31975 4.47992C2.31975 4.39992 2.47975 4.31992 2.55975 4.23992ZM0.239746 8.47992L8.79975 15.7599V14.6399L1.91975 8.79992V8.47992H0.239746Z" fill="white"/>
</svg>
