<svg width="16" height="16" viewBox="0 0 16 16" fill="none" xmlns="http://www.w3.org/2000/svg">
<path d="M13 1V9H3V1H13ZM14 0H2V10H14V0Z" fill="white"/>
<path d="M2 10V0H14L2 10Z" fill="white"/>
<path d="M4 11H5V16H4V13H3V12H4V11Z" fill="white"/>
<path d="M6 12H7V15H6V12Z" fill="white"/>
<path d="M8 15V16H7V15H8Z" fill="white"/>
<path d="M8 12H9V15H8V12Z" fill="white"/>
<path d="M8 12V11H7V12H8Z" fill="white"/>
<path d="M10 12H11V15H10V12Z" fill="white"/>
<path d="M12 15V16H11V15H12Z" fill="white"/>
<path d="M12 12H11V11H12V12Z" fill="white"/>
<path d="M12 12V15H13V12H12Z" fill="white"/>
</svg>
