<svg width="16" height="16" viewBox="0 0 16 16" fill="none" xmlns="http://www.w3.org/2000/svg">
<path d="M8 9.11011C4.97 9.11011 2 12.5001 2 12.5001C2 12.5001 4.97 15.8901 8 15.8901C11.03 15.8901 14 12.5001 14 12.5001C14 12.5001 11.03 9.11011 8 9.11011ZM8.01 15.3701C6.43 15.3701 5.14 14.0901 5.14 12.5001C5.14 10.9101 6.42 9.63011 8.01 9.63011C9.6 9.63011 10.88 10.9101 10.88 12.5001C10.88 14.0901 9.6 15.3701 8.01 15.3701Z" fill="white"/>
<path fill-rule="evenodd" clip-rule="evenodd" d="M6.43008 10.46C6.90008 10.46 7.28008 10.84 7.28008 11.31C7.28008 11.78 6.90008 12.16 6.43008 12.16C5.96008 12.16 5.58008 11.78 5.58008 11.31C5.58008 10.84 5.96008 10.46 6.43008 10.46Z" fill="white"/>
<path d="M8 8H3C2.4 8 2 7.6 2 7V2C2 1.4 2.4 1 3 1H8C8.6 1 9 1.4 9 2V7C9 7.6 8.6 8 8 8Z" fill="white"/>
<path d="M10 4.02V4.98L13.6 7.5V1.5L10 4.02Z" fill="white"/>
</svg>
