<svg width="16" height="16" viewBox="0 0 16 16" fill="none" xmlns="http://www.w3.org/2000/svg">
<path d="M2.75 8C2.75 5.1125 5.1125 2.75 8 2.75C9.4875 2.75 10.8 3.36249 11.675 4.32499L15 1H1V15L4.325 11.675C3.3625 10.8 2.75 9.4875 2.75 8Z" fill="white"/>
<path d="M8.16292 12.0115C10.3117 12.0115 12.0001 10.3231 12.0001 8.17431C12.0001 7.0999 11.5396 6.17897 10.8489 5.48828L5.40015 10.9371C6.16758 11.551 7.08851 12.0115 8.16292 12.0115Z" fill="white"/>
<path d="M13.1824 7.67551C13.1824 7.80358 13.1824 8.05972 13.1824 8.18779H16V7.03516H13.1824C13.1824 7.2913 13.1824 7.54744 13.1824 7.67551Z" fill="white"/>
<path d="M7.67522 13.1826C7.54714 13.1826 7.291 13.1826 7.16293 13.1826V16.0002H8.1875V13.1826C8.05943 13.1826 7.80329 13.1826 7.67522 13.1826Z" fill="white"/>
<path d="M11.1334 11.9019L13.1825 13.9511L13.9509 13.1827L11.9018 11.1335C11.7737 11.5178 11.5176 11.7739 11.1334 11.9019Z" fill="white"/>
</svg>
