<svg width="16" height="16" viewBox="0 0 16 16" fill="none" xmlns="http://www.w3.org/2000/svg">
<g clip-path="url(#clip0_414_2573)">
<path d="M13.69 15.9999L1 7.97988V8.02988L13.69 -0.000119947C13.77 -0.0501199 15 1.61988 15 1.61988L2.36 7.99988L15 14.3799C15 14.3799 13.78 16.0399 13.69 15.9999Z" fill="white"/>
<path opacity="0.5" d="M9.1901 11.8601L9.3001 11.6901C9.9901 10.5901 10.3501 9.34011 10.3501 8.06011C10.3501 6.78011 9.9501 5.43011 9.2101 4.30011L9.1001 4.13011L10.2701 3.36011L10.3801 3.53011C11.2801 4.89011 11.7501 6.46011 11.7501 8.07011C11.7501 9.68011 11.3101 11.1201 10.4801 12.4401L10.3701 12.6101L9.1801 11.8701L9.1901 11.8601Z" fill="white"/>
</g>
<defs>
<clipPath id="clip0_414_2573">
<rect width="14" height="16" fill="white" transform="translate(1)"/>
</clipPath>
</defs>
</svg>
