<svg width="16" height="16" viewBox="0 0 16 16" fill="none" xmlns="http://www.w3.org/2000/svg">
<path fill-rule="evenodd" clip-rule="evenodd" d="M15.0999 5.10007C14.4999 3.30007 13.1999 0.300049 11.8999 0.300049C9.99989 0.300049 9.99989 2.10007 9.19989 2.10007C8.79989 2.10007 7.29989 2.10007 6.79989 2.10007C5.99989 2.10007 6.09989 0.300049 4.09989 0.300049C2.79989 0.300049 1.49989 3.40007 0.899886 5.10007C-0.200114 8.40007 -0.300114 10.0001 1.99989 10.0001C4.69989 10.0001 4.59989 7.00006 7.99989 7.00006C11.2999 7.00006 11.3999 10.0001 13.8999 10.0001C16.2999 10.0001 16.2999 8.40007 15.0999 5.10007ZM6.99989 5.00006H4.99989V7.00006H3.99989V5.00006H1.99989V4.00006H3.99989V2.00006H4.99989V4.00006H6.99989V5.00006ZM11.4999 6.60007C10.3999 6.60007 9.39989 5.70006 9.39989 4.50006C9.39989 3.40006 10.2999 2.40005 11.4999 2.40005C12.6999 2.40005 13.5999 3.30006 13.5999 4.50006C13.5999 5.60006 12.5999 6.60007 11.4999 6.60007Z" fill="white"/>
<path fill-rule="evenodd" clip-rule="evenodd" d="M11.5 3.5C10.9 3.5 10.5 3.9 10.5 4.5C10.5 5.1 10.9 5.5 11.5 5.5C12.1 5.5 12.5 5.1 12.5 4.5C12.5 3.9 12.1 3.5 11.5 3.5Z" fill="white"/>
<path fill-rule="evenodd" clip-rule="evenodd" d="M12 12.4444L10.2222 12.8889L10.1999 12.9112V12.9428L11.1427 14.5142L10.5142 15.1427L8.94281 14.1999H8.91122L8.88889 14.2222L8.44444 16H7.55555L7.11111 14.2222L7.08878 14.1999H7.05719L5.48584 15.1427L4.8573 14.5142L5.80011 12.9428V12.9112L5.77778 12.8889L4 12.4444V11.5556L5.77778 11.1111L5.80011 11.0888V11.0572L4.8573 9.48584L5.49615 8.847L7.05719 9.80011H7.08878L7.11111 9.77778L7.55555 8H8.45901L8.88889 9.77778L8.91122 9.80011H8.94281L10.5142 8.8573L11.1427 9.48584L10.1999 11.0572V11.0888L10.2222 11.1111L12 11.5556V12.4444ZM8 14.2222C9.2273 14.2222 10.2222 13.2273 10.2222 12C10.2222 10.7727 9.2273 9.77778 8 9.77778C6.7727 9.77778 5.77778 10.7727 5.77778 12C5.77778 13.2273 6.7727 14.2222 8 14.2222Z" fill="white"/>
<circle cx="7.99992" cy="12" r="2" stroke="white" stroke-width="1.33333"/>
</svg>
