<svg width="16" height="16" viewBox="0 0 16 16" fill="none" xmlns="http://www.w3.org/2000/svg">
<path opacity="0.5" d="M11 2V1H15V14H11V13H14V11H13V10H14V8H13V7H14V5H13V4H14V2H11Z" fill="white"/>
<path d="M0.780273 13.2611L4.36848 12.8698L3.39442 11.7792L5.54235 9.50641L9.03067 10.8634L8.57278 11.7792L11.7197 11.4629L9.92148 8.79875L9.48856 9.77282L6.25833 8.53234L6.22503 8.50736V5.01906H7.11583L5.54235 2.28003L3.98552 5.01906H4.85135V8.50736V8.73214L2.39538 10.9217L1.27147 9.8311L0.780273 13.2611Z" fill="white"/>
</svg>
