<svg width="16" height="16" viewBox="0 0 16 16" fill="none" xmlns="http://www.w3.org/2000/svg">
	<path d="M6.5498 1C7.0748 1 6.875 1.725 6.875 2.25V4.75L8 6.65723V8.62598L5.875 5.02246V2.25C5.875 2.16682 5.87897 2.08053 5.88379 2H4.11621C4.12101 2.08056 4.125 2.16697 4.125 2.25V5.02246L1.19043 10H8V10.5L7.5 11H0.950195L0.856445 10.9951C0.669913 10.9767 0.49264 10.904 0.347656 10.7852L0.27832 10.7217C0.122356 10.5657 0.0264148 10.3611 0.00488281 10.1436L0 10.0498L3.125 4.75V2.25C3.125 1.75778 2.94911 1.08932 3.37012 1.00781L3.46289 1H6.5498Z" fill="white"/>
	<path opacity="0.5" d="M3.44381 7L2.02759 9.5H7.96851L6.55229 7H3.44381Z" fill="white"/>
	<path d="M5.71875 15.0001L9.09106 14.6323L8.1756 13.6073L10.1943 11.4713L13.4727 12.7466L13.0424 13.6073L16 13.31L14.3099 10.8062L13.9031 11.7216L10.8672 10.5558L10.8359 10.5323V7.25391H11.6731L10.1943 4.67969L8.73114 7.25391H9.54487V10.5323V10.7436L7.23668 12.8014L6.18039 11.7764L5.71875 15.0001Z" fill="white"/>
</svg>
