<?xml version="1.0" encoding="utf-8"?>
<svg viewBox="0 0 500 500" xmlns="http://www.w3.org/2000/svg">
  <path d="M 250 456.974 C 208.973 418.279 173.509 382.686 143.608 350.197 C 112.794 316.594 88.18 286.893 69.76 261.095 C 52.074 236.887 40.222 216.344 34.205 199.466 C 28.736 184.334 26 167.054 26 147.627 C 26 114.984 38.491 88.626 63.47 68.56 C 84.985 51.519 110.97 43 141.421 43 C 189.008 43 225.202 62.112 250 100.332 C 274.979 62.112 311.174 43 358.579 43 C 393.771 43 422.49 53.987 444.736 75.964 C 464.246 95.393 474 119.28 474 147.627 C 474 169.605 470.351 189.275 463.06 206.631 C 456.86 221.763 445.921 239.916 430.24 261.095 C 411.642 287.533 387.205 317.233 356.939 350.197 C 328.678 380.612 293.032 416.204 250 456.974 Z" style="white-space: pre; stroke-width: 50px; fill: rgb(255, 255, 255); stroke: rgb(255, 255, 255);"/>
</svg>