<?xml version="1.0" encoding="utf-8"?>
<svg viewBox="0 0 500 500" xmlns="http://www.w3.org/2000/svg">
  <path d="M 250 457 C 208.973 418.304 173.509 382.712 143.608 350.224 C 112.794 316.62 88.18 286.92 69.76 261.121 C 52.074 236.913 40.222 216.37 34.205 199.492 C 28.736 184.359 26 167.08 26 147.654 C 26 115.009 38.491 88.653 63.47 68.586 C 84.985 51.545 110.97 43.026 141.421 43.026 C 189.008 43.026 225.202 62.137 250 100.358 C 274.979 62.137 311.174 43.026 358.579 43.026 C 393.771 43.026 422.49 54.013 444.736 75.99 C 464.246 95.418 474 119.306 474 147.654 C 474 169.632 470.351 189.301 463.06 206.658 C 456.86 221.79 445.921 239.942 430.24 261.121 C 411.642 287.558 387.205 317.26 356.939 350.224 C 328.678 380.638 293.032 416.229 250 457 Z" style="white-space: pre; stroke-width: 50px; fill: none; stroke: rgb(255, 255, 255);"/>
</svg>