<svg width="15" height="15" viewBox="0 0 15 15" fill="none" xmlns="http://www.w3.org/2000/svg">
<g clip-path="url(#clip0_414_2632)">
<path d="M7.5 15C3.3 15 0 11.7 0 7.5C0 3.3 3.3 0 7.5 0C11.7 0 15 3.3 15 7.5C15 11.7 11.7 15 7.5 15ZM7.5 1C3.9 1 1 3.9 1 7.5C1 11.1 3.9 14 7.5 14C11.1 14 14 11.1 14 7.5C14 3.9 11.1 1 7.5 1Z" fill="white"/>
<path opacity="0.5" fill-rule="evenodd" clip-rule="evenodd" d="M14.0999 8.1999C14.0999 8.1999 13.0999 9.2999 11.1999 9.9999C11.2999 9.2999 11.3999 8.5999 11.4999 7.7999H14.3999V7.0999H11.4999C11.4999 6.2999 11.3999 5.5999 11.1999 4.8999C13.0999 5.5999 14.0999 6.6999 14.0999 6.6999L14.5999 6.2999V6.1999C14.2999 5.8999 13.0999 4.7999 10.9999 4.0999C10.2999 1.9999 9.1999 0.799902 8.8999 0.499902H8.7999L8.1999 0.899902C8.1999 0.899902 9.2999 1.8999 9.9999 3.7999C9.3999 3.6999 8.6999 3.5999 7.8999 3.4999V0.599902H7.0999V3.4999C6.2999 3.4999 5.5999 3.5999 4.8999 3.7999C5.5999 1.8999 6.6999 0.899902 6.6999 0.899902L6.2999 0.399902H6.1999C5.8999 0.699902 4.6999 1.8999 4.0999 4.0999C1.8999 4.6999 0.699902 5.8999 0.399902 6.1999V6.2999L0.899902 6.6999C0.899902 6.6999 1.8999 5.5999 3.7999 4.8999C3.6999 5.5999 3.5999 6.2999 3.4999 7.0999H0.599902V7.8999H3.4999C3.4999 8.6999 3.5999 9.3999 3.7999 10.0999C1.8999 9.2999 0.899902 8.2999 0.899902 8.1999L0.399902 8.6999V8.7999C0.699902 9.0999 1.8999 10.2999 3.9999 10.8999C4.6999 12.9999 5.7999 14.1999 6.0999 14.4999H6.1999L6.5999 13.9999C6.5999 13.9999 5.4999 12.9999 4.7999 11.0999C5.4999 11.1999 6.1999 11.2999 6.9999 11.3999V14.2999H7.7999V11.3999C8.5999 11.3999 9.2999 11.2999 9.9999 11.0999C9.2999 12.9999 8.1999 13.9999 8.1999 13.9999L8.5999 14.4999H8.6999C8.9999 14.1999 10.1999 12.9999 10.7999 10.8999C12.8999 10.1999 14.0999 9.0999 14.3999 8.7999V8.6999L14.0999 8.1999ZM7.0999 10.6999C6.1999 10.6999 5.3999 10.4999 4.5999 10.2999C4.4999 9.5999 4.2999 8.7999 4.2999 7.8999H7.0999V10.6999ZM7.0999 7.0999H4.2999C4.2999 6.1999 4.4999 5.3999 4.6999 4.5999C5.3999 4.3999 6.1999 4.2999 7.1999 4.1999V7.0999H7.0999ZM10.2999 10.2999C9.5999 10.4999 8.7999 10.5999 7.7999 10.6999V7.8999H10.5999C10.6999 8.7999 10.4999 9.5999 10.2999 10.2999ZM7.8999 7.0999V4.2999C8.7999 4.2999 9.5999 4.4999 10.3999 4.6999C10.5999 5.3999 10.6999 6.1999 10.7999 7.1999H7.8999V7.0999Z" fill="white"/>
<path d="M10 7C11.1 7 12 6.1 12 5C12 3.9 11.1 3 10 3C8.9 3 8 3.9 8 5C8 6.1 8.9 7 10 7Z" fill="white"/>
</g>
<defs>
<clipPath id="clip0_414_2632">
<rect width="15" height="15" fill="white"/>
</clipPath>
</defs>
</svg>
