<svg width="16" height="16" viewBox="0 0 16 16" fill="none" xmlns="http://www.w3.org/2000/svg">
<path d="M2.56 7.4502H0V8.5102H2.55L2.56 7.4502Z" fill="white"/>
<path d="M3.55005 14.6602L4.47005 15.1902L5.75005 12.9802L4.82005 12.4502L3.55005 14.6602Z" fill="white"/>
<path d="M3.02007 10.2598L0.810059 11.5398L1.34006 12.4598L3.55006 11.1798L3.02007 10.2598Z" fill="white"/>
<path d="M5.74005 3.0098L4.46005 0.799805L3.54004 1.3398L4.82005 3.5498L5.74005 3.0098Z" fill="white"/>
<path d="M3.55005 4.81004L1.34004 3.54004L0.800049 4.47004L3.02005 5.74004L3.55005 4.81004Z" fill="white"/>
<path d="M7.46997 13.4502V16.0002H7.99997H8.52997V13.4502H7.99997H7.46997Z" fill="white"/>
<path d="M8.52997 2.53V0H7.99997H7.46997V2.53H7.99997H8.52997Z" fill="white"/>
<path d="M12.9799 5.74004L15.2 4.47004L14.66 3.54004L12.45 4.81004L12.9799 5.74004Z" fill="white"/>
<path d="M13.4399 7.4502L13.4499 8.5102H15.9999V7.4502H13.4399Z" fill="white"/>
<path d="M12.46 1.3398L11.54 0.799805L10.26 3.0098L11.18 3.5498L12.46 1.3398Z" fill="white"/>
<path d="M10.25 12.9802L11.53 15.1902L12.45 14.6602L11.18 12.4502L10.25 12.9802Z" fill="white"/>
<path d="M12.45 11.1798L14.66 12.4598L15.19 11.5398L12.9799 10.2598L12.45 11.1798Z" fill="white"/>
<path opacity="0.5" d="M9.41333 6.58667C9.04 6.21333 8.52667 6 8 6C7.47333 6 6.96 6.21333 6.58667 6.58667C6.21334 6.96 6 7.47333 6 8C6 8.52667 6.21334 9.04 6.58667 9.41333C6.96 9.78667 7.47333 10 8 10C8.52667 10 9.04 9.78667 9.41333 9.41333C9.78666 9.04 10 8.52667 10 8C10 7.47333 9.78666 6.96 9.41333 6.58667Z" fill="white"/>
<path fill-rule="evenodd" clip-rule="evenodd" d="M10.5834 5.41662C9.90086 4.73411 8.96017 4.34375 8 4.34375C7.03983 4.34375 6.09914 4.73411 5.41663 5.41662C4.73412 6.09913 4.34375 7.03983 4.34375 8C4.34375 8.96017 4.73412 9.90087 5.41663 10.5834C6.09914 11.2659 7.03983 11.6562 8 11.6562C8.96017 11.6562 9.90086 11.2659 10.5834 10.5834C11.2659 9.90087 11.6562 8.96017 11.6562 8C11.6562 7.03983 11.2659 6.09913 10.5834 5.41662ZM8 3.5C9.185 3.5 10.34 3.98 11.18 4.82C12.02 5.66 12.5 6.815 12.5 8C12.5 9.185 12.02 10.34 11.18 11.18C10.34 12.02 9.185 12.5 8 12.5C6.815 12.5 5.66001 12.02 4.82001 11.18C3.98001 10.34 3.5 9.185 3.5 8C3.5 6.815 3.98001 5.66 4.82001 4.82C5.66001 3.98 6.815 3.5 8 3.5Z" fill="white"/>
</svg>
