<svg width="16" height="16" viewBox="0 0 16 16" fill="none" xmlns="http://www.w3.org/2000/svg">
<g clip-path="url(#clip0_25191_25455)">
<path opacity="0.5" d="M10.7656 10.6277C10.7656 13.6062 8.3613 16.0105 5.38281 16.0105C2.40432 16.0105 7.19299e-07 13.599 8.4918e-07 10.6277C9.7906e-07 7.65637 2.4115 5.24487 5.38281 5.24487C8.35413 5.24487 10.7656 7.65637 10.7656 10.6277Z" fill="white"/>
<path d="M5.39309 8.32448C5.39309 7.47516 6.0816 6.78665 6.93092 6.78665C7.78024 6.78665 8.46875 7.47516 8.46875 8.32448C8.46875 9.1738 7.78024 9.8623 6.93092 9.8623C6.0816 9.8623 5.39309 9.1738 5.39309 8.32448Z" fill="white"/>
<path d="M3.07663 12.9372C4.26068 14.1213 5.35109 14.5201 6.75781 14.7353C5.65969 15.1013 3.72429 14.9859 2.40209 13.6636C1.07989 12.3414 0.895262 10.1987 1.2613 9.10053C1.45917 10.5244 1.89259 11.7532 3.07663 12.9372Z" fill="white"/>
<path d="M10.38 5.62L7 4.5L10.38 3.38L11.5 0L12.63 3.38L16 4.5L12.63 5.62L11.5 9L10.38 5.62Z" fill="white"/>
<path d="M13.2585 10.7291L11.6172 10.1852L13.2585 9.64136L13.8024 8L14.3512 9.64136L15.9877 10.1852L14.3512 10.7291L13.8024 12.3705L13.2585 10.7291Z" fill="white"/>
<path d="M5.03859 2.60289L3.65625 2.14484L5.03859 1.68678L5.49664 0.304443L5.95879 1.68678L7.33704 2.14484L5.95879 2.60289L5.49664 3.98523L5.03859 2.60289Z" fill="white"/>
</g>
<defs>
<clipPath id="clip0_25191_25455">
<rect width="16" height="16" fill="white"/>
</clipPath>
</defs>
</svg>
