<svg width="16" height="16" viewBox="0 0 16 16" fill="none" xmlns="http://www.w3.org/2000/svg">
<path d="M11.1899 15.7199L15.9999 15.9999L15.7199 11.1899L11.1899 15.7199Z" fill="white"/>
<path fill-rule="evenodd" clip-rule="evenodd" d="M9.23 9.23C9.62 8.84 10.25 8.84 10.64 9.23L14.18 12.77C14.57 13.16 14.57 13.79 14.18 14.18C13.79 14.57 13.16 14.57 12.77 14.18L9.23 10.64C8.84 10.25 8.84 9.62 9.23 9.23Z" fill="white"/>
<path d="M6 1L1 2.04V8.27L6 9.3V1Z" fill="white"/>
<path opacity="0.5" d="M8.17 8.17C8.64 7.7 9.27 7.44 9.93 7.44C9.95 7.44 9.97 7.44 10 7.44V2.04L6 1V9.3L7.69 8.87C7.81 8.62 7.97 8.38 8.17 8.17Z" fill="white"/>
</svg>
