<svg width="16" height="16" viewBox="0 0 16 16" fill="none" xmlns="http://www.w3.org/2000/svg">
<g clip-path="url(#clip0_16458_19924)">
<path fill-rule="evenodd" clip-rule="evenodd" d="M9.59 13.31L6.9 16C6.9 16 6.66 16 6.33 15.67C6 15.34 6 15.1 6 15.1L8.69 12.41L9.59 13.31Z" fill="white"/>
<path d="M12 7.5C13.38 7.5 14.5 8.62 14.5 10C14.5 11.38 13.38 12.5 12 12.5C10.62 12.5 9.5 11.38 9.5 10C9.5 8.62 10.62 7.5 12 7.5ZM12 6.25C9.93 6.25 8.25 7.93 8.25 10C8.25 12.07 9.93 13.75 12 13.75C14.07 13.75 15.75 12.07 15.75 10C15.75 7.93 14.07 6.25 12 6.25Z" fill="white"/>
<path fill-rule="evenodd" clip-rule="evenodd" d="M12.5405 4.77C12.4505 4.02 11.8305 3.44 11.0605 3.44C10.2305 3.44 9.56055 4.11 9.56055 4.94C9.56055 5.08 9.59055 5.22 9.62055 5.35C10.3905 4.95 11.2405 4.71 12.1405 4.74C12.2805 4.74 12.4005 4.77 12.5405 4.78V4.77Z" fill="white"/>
<path opacity="0.5" fill-rule="evenodd" clip-rule="evenodd" d="M8 6.62001C9.03 5.45001 10.52 4.70001 12.14 4.74001C12.69 4.75001 13.23 4.85001 13.73 5.02001C13.97 5.10001 15.16 5.52001 15.95 6.64001C15.52 2.91001 12.35 0.0100098 8.5 0.0100098C8.33 0.0100098 8.17 0.0200098 8 0.0400098V6.63001V6.62001Z" fill="white"/>
<path fill-rule="evenodd" clip-rule="evenodd" d="M0.119141 7.50003C0.119141 10.66 2.01914 13.3 4.75914 14.36L5.35914 13.78C2.71914 12.91 0.869141 10.46 0.869141 7.50003C0.879141 3.79003 3.78914 0.880028 7.49914 0.880028C7.66914 0.880028 7.82914 0.890028 7.99914 0.900028V0.150028C7.82914 0.140028 7.66914 0.130028 7.49914 0.130028C3.35914 0.120028 0.119141 3.36003 0.119141 7.50003Z" fill="white"/>
<path fill-rule="evenodd" clip-rule="evenodd" d="M8 0.78001C8.17 0.77001 8.33 0.75001 8.5 0.75001C11.59 0.75001 14.19 2.83001 14.99 5.67001C15.32 5.91001 15.66 6.23001 15.95 6.64001C15.52 2.91001 12.35 0.0100098 8.5 0.0100098C8.33 0.0100098 8.17 0.0200098 8 0.0400098V0.79001V0.78001Z" fill="white"/>
<path d="M7.50031 7.5H0.820312" stroke="white" stroke-width="0.5" stroke-miterlimit="10"/>
<path d="M7.50031 4C3.04031 4 0.820312 6.55 0.820312 6.55" stroke="white" stroke-width="0.5" stroke-miterlimit="10"/>
<path d="M0.820312 8.45001C0.820312 8.45001 3.04031 10.99 7.50031 10.99" stroke="white" stroke-width="0.5" stroke-miterlimit="10"/>
</g>
<defs>
<clipPath id="clip0_16458_19924">
<rect width="16" height="16" fill="white"/>
</clipPath>
</defs>
</svg>
