<svg width="16" height="16" viewBox="0 0 16 16" fill="none" xmlns="http://www.w3.org/2000/svg">
<path d="M5.5 13.5V2.5H10.5V13.5H5.5Z" stroke="white"/>
<path d="M9 4H7V12H9V4Z" fill="white"/>
<g opacity="0.5">
<path fill-rule="evenodd" clip-rule="evenodd" d="M13.0697 2.92188L15.7537 4.59237C15.9788 4.73245 16.0476 5.02845 15.9076 5.25352C15.7675 5.47858 15.4715 5.54747 15.2464 5.40739L13.1103 4.07789L10.891 5.68548C10.6763 5.841 10.3762 5.79303 10.2207 5.57834C10.0652 5.36365 10.1132 5.06354 10.3278 4.90803L13.0697 2.92188Z" fill="white"/>
<path fill-rule="evenodd" clip-rule="evenodd" d="M13.3716 6.16528L15.8287 8.69672C16.0133 8.88694 16.0088 9.19083 15.8186 9.37547C15.6284 9.56011 15.3245 9.55558 15.1398 9.36536L13.1684 7.3343L10.7427 8.52446C10.5047 8.64124 10.2171 8.54297 10.1003 8.30497C9.98356 8.06698 10.0818 7.77939 10.3198 7.66262L13.3716 6.16528Z" fill="white"/>
<path fill-rule="evenodd" clip-rule="evenodd" d="M13.4589 9.41772L15.8615 12.1684C16.0359 12.368 16.0154 12.6713 15.8158 12.8457C15.6161 13.0201 15.3129 12.9996 15.1385 12.7999L13.201 10.5818L10.7725 11.6574C10.5301 11.7648 10.2466 11.6553 10.1393 11.4129C10.0319 11.1705 10.1414 10.887 10.3838 10.7797L13.4589 9.41772Z" fill="white"/>
<path fill-rule="evenodd" clip-rule="evenodd" d="M2.92419 2.92554L5.61722 4.79282C5.83507 4.94387 5.88922 5.24292 5.73817 5.46078C5.58711 5.67863 5.28806 5.73278 5.07021 5.58173L2.89574 4.074L0.753602 5.40728C0.528538 5.54737 0.23253 5.47847 0.0924491 5.25341C-0.0476319 5.02835 0.02126 4.73234 0.246323 4.59226L2.92419 2.92554Z" fill="white"/>
<path fill-rule="evenodd" clip-rule="evenodd" d="M2.63351 6.16699L5.603 7.63184C5.84074 7.74911 5.9384 8.03692 5.82112 8.27466C5.70384 8.5124 5.41604 8.61006 5.17829 8.49278L2.82645 7.33262L0.839635 9.32327C0.652363 9.5109 0.348444 9.51119 0.160813 9.32392C-0.0268191 9.13665 -0.0271113 8.83273 0.16016 8.6451L2.63351 6.16699Z" fill="white"/>
<path fill-rule="evenodd" clip-rule="evenodd" d="M2.5442 9.41992L5.7197 10.7773C5.96346 10.8815 6.0766 11.1636 5.9724 11.4073C5.86821 11.6511 5.58613 11.7642 5.34237 11.66L2.81546 10.5799L0.880355 12.8431C0.708077 13.0446 0.405082 13.0683 0.203596 12.896C0.00210923 12.7237 -0.0215692 12.4207 0.150708 12.2192L2.5442 9.41992Z" fill="white"/>
</g>
</svg>
