<svg width="17" height="16" viewBox="0 0 17 16" fill="none" xmlns="http://www.w3.org/2000/svg">
<path opacity="0.5" fill-rule="evenodd" clip-rule="evenodd" d="M0 11.25L6 15.25V10.25L0 6.25V11.25Z" fill="white"/>
<path d="M9.61 0L0.5 4.94L6.5 8.94L15.61 3L9.61 0ZM9.63 1.13L13.6 3.12L10.34 5.25L6.62 2.77L9.63 1.14V1.13ZM2.43 5.03L5.62 3.3L9.43 5.84L6.5 7.75L2.43 5.04V5.03Z" fill="white"/>
<path opacity="0.5" fill-rule="evenodd" clip-rule="evenodd" d="M10 10.9999H7V10.2499L10 8.30993V10.9999ZM11 8.24993L14.14 10.1299L14.94 9.55993L16.01 8.78993V4.42993L10.1 8.24993H11.01H11Z" fill="white"/>
<path d="M7 12V14H11V16L16 13L11 10V12H7Z" fill="white"/>
</svg>
