<svg width="16" height="16" viewBox="0 0 16 16" fill="none" xmlns="http://www.w3.org/2000/svg">
<path fill-rule="evenodd" clip-rule="evenodd" d="M10 15.1V11.7281C9.6 11.6281 9.3 11.4281 9 11.3281V12H1V1H9V1.78125C9.3 1.58125 9.6 1.48125 10 1.38125V0.9C10 0.4 9.6 0 9.1 0H0.9C0.4 0 0 0.4 0 0.9V15C0 15.6 0.4 16 0.9 16H9C9.6 16 10 15.6 10 15.1ZM5 15.5C4.2 15.5 3.5 14.8 3.5 14C3.5 13.2 4.2 12.5 5 12.5C5.8 12.5 6.5 13.2 6.5 14C6.5 14.8 5.8 15.5 5 15.5Z" fill="white"/>
<path d="M11.5 2C10.3065 2 9.16194 2.4741 8.31803 3.31802C7.47412 4.16193 7 5.30653 7 6.5C7 7.69347 7.47412 8.83807 8.31803 9.68198C9.16194 10.5259 10.3065 11 11.5 11C12.6935 11 13.8381 10.5259 14.682 9.68198C15.5259 8.83807 16 7.69347 16 6.5C16 5.30653 15.5259 4.16193 14.682 3.31802C13.8381 2.4741 12.6935 2 11.5 2V2ZM9.25 9.65V3.35L15.154 6.5L9.25 9.65Z" fill="white"/>
</svg>
