<svg width="16" height="16" viewBox="0 0 16 16" fill="none" xmlns="http://www.w3.org/2000/svg">
<path d="M7.5 16C3.9 16 1 13.1 1 9.5C1 5.9 3.9 3 7.5 3C11.1 3 14 5.9 14 9.5C14 13.1 11.1 16 7.5 16ZM7.5 4C4.5 4 2 6.5 2 9.5C2 12.5 4.5 15 7.5 15C10.5 15 13 12.5 13 9.5C13 6.5 10.5 4 7.5 4Z" fill="white"/>
<path d="M11.9935 2.46372L14.5391 5.00928L15.8118 3.7365L13.2663 1.19094L11.9935 2.46372Z" fill="white"/>
<path opacity="0.5" d="M11.0542 4.50288L12.5391 5.98779L14.5189 4.00791L13.034 2.523L11.0542 4.50288Z" fill="white"/>
<path opacity="0.5" d="M9 1.5H6V3.5H9V1.5Z" fill="white"/>
<path d="M10 0H5V2H10V0Z" fill="white"/>
<path d="M10 7L5 12" stroke="white" stroke-width="1.5" stroke-miterlimit="10" stroke-linecap="round"/>
<path d="M5 7L10 12" stroke="white" stroke-width="1.5" stroke-miterlimit="10" stroke-linecap="round"/>
</svg>
