<svg width="16" height="16" viewBox="0 0 16 16" fill="none" xmlns="http://www.w3.org/2000/svg">
<path fill-rule="evenodd" clip-rule="evenodd" d="M11.608 8.23925L10.0547 6.68591V4.052H10.73V6.41577L12.0808 7.76649L11.608 8.23925Z" fill="white"/>
<path d="M13.4293 1.66413L15.1484 3.3833L16.008 2.52371L14.2889 0.804539L13.4293 1.66413Z" fill="white"/>
<path opacity="0.5" d="M12.794 3.04134L13.7969 4.04419L15.134 2.70705L14.1312 1.7042L12.794 3.04134Z" fill="white"/>
<path opacity="0.5" d="M11.4011 1.01343H9.375V2.36415H11.4011V1.01343Z" fill="white"/>
<path d="M12.0799 0H8.70312V1.35072H12.0799V0Z" fill="white"/>
<path d="M10.3899 2.02588C7.95855 2.02588 6 3.98443 6 6.41573C6 6.88512 6.073 7.33689 6.20831 7.76035H6.93345C6.76709 7.34189 6.67536 6.88798 6.67536 6.41573C6.67536 4.38965 8.36377 2.70124 10.3899 2.70124C12.4159 2.70124 14.1043 4.38965 14.1043 6.41573C14.1043 8.07743 12.9686 9.51199 11.4424 9.97425C11.4424 9.97425 11.6445 10.3125 11.7504 10.5921C13.5121 10.0218 14.7797 8.37174 14.7797 6.41573C14.7797 3.98443 12.8212 2.02588 10.3899 2.02588Z" fill="white"/>
<path d="M1.07031 9.50547H7.53683C9.08323 9.50547 10.3368 10.7591 10.3368 12.3055C10.3368 13.8519 9.08323 15.1055 7.53683 15.1055H7.13683M1.07031 9.50547L3.47031 7.10547M1.07031 9.50547L3.47031 11.9055" stroke="white" stroke-width="1.5" stroke-linecap="round"/>
</svg>
