<svg width="16" height="16" viewBox="0 0 16 16" fill="none" xmlns="http://www.w3.org/2000/svg">
	<path d="M8 1.875C11.3775 1.875 14.125 4.6225 14.125 8C14.125 11.3775 11.3775 14.125 8 14.125C4.6225 14.125 1.875 11.3775 1.875 8C1.875 4.6225 4.6225 1.875 8 1.875ZM8 1C4.1325 1 1 4.1325 1 8C1 11.8675 4.1325 15 8 15C11.8675 15 15 11.8675 15 8C15 4.1325 11.8675 1 8 1Z" fill="white"/>
	<path d="M1 8C2.00625 8.83125 3.17875 9.27749 4.36 9.57499C5.55 9.84624 6.76625 9.9775 8 9.96875C9.23375 9.9775 10.45 9.84624 11.64 9.57499C12.8213 9.26874 13.985 8.83125 15 8C14.405 9.19875 13.2062 10.0388 11.9637 10.5463C10.7037 11.0625 9.33875 11.2725 8 11.2812C6.66125 11.2725 5.29625 11.0625 4.03625 10.5463C2.79375 10.03 1.595 9.19875 1 8Z" fill="white"/>
	<path opacity="0.5" d="M8 5.02441C10.5356 5.02441 12.2547 5.65984 13.3506 6.31641C13.8966 6.64359 14.2841 6.97321 14.5381 7.22656C14.665 7.35317 14.7587 7.46073 14.8223 7.53906C14.854 7.57821 14.8783 7.61038 14.8955 7.63379C14.904 7.64538 14.9109 7.65484 14.916 7.66211C14.9186 7.66576 14.9202 7.66938 14.9219 7.67188C14.9227 7.67313 14.9242 7.67385 14.9248 7.6748L14.9258 7.67676C14.926 7.67702 14.9261 7.67762 14.5625 7.9209C14.2285 8.14434 14.2013 8.16238 14.1992 8.16406V8.16504H14.2002V8.16602L14.1992 8.16504C14.1978 8.16305 14.1951 8.15863 14.1904 8.15234C14.1812 8.13976 14.1653 8.11885 14.1426 8.09082C14.0971 8.03479 14.0238 7.95035 13.9199 7.84668C13.7118 7.6391 13.3801 7.35382 12.9004 7.06641C11.9443 6.49362 10.3818 5.89941 8 5.89941C5.61823 5.89941 4.05565 6.49362 3.09961 7.06641C2.61991 7.35382 2.28815 7.6391 2.08008 7.84668C1.97619 7.95035 1.90291 8.03479 1.85742 8.09082C1.83467 8.11885 1.81883 8.13976 1.80957 8.15234C1.80495 8.15863 1.80217 8.16305 1.80078 8.16504L1.7998 8.16602V8.16504H1.80078V8.16406C1.79871 8.16238 1.77147 8.14434 1.4375 7.9209L1.07422 7.67676L1.0752 7.6748C1.07584 7.67385 1.07727 7.67313 1.07812 7.67188C1.07984 7.66938 1.08143 7.66576 1.08398 7.66211C1.08909 7.65484 1.09596 7.64538 1.10449 7.63379C1.12171 7.61038 1.14595 7.57821 1.17773 7.53906C1.24133 7.46073 1.33502 7.35317 1.46191 7.22656C1.71587 6.97321 2.10344 6.64359 2.64941 6.31641C3.74525 5.65984 5.46437 5.02441 8 5.02441Z" fill="white"/>
</svg>
