<svg width="16" height="16" viewBox="0 0 16 16" fill="none" xmlns="http://www.w3.org/2000/svg">
	<path d="M9.5 8C9.5 7.17157 8.82843 6.5 8 6.5C7.17157 6.5 6.5 7.17157 6.5 8C6.5 8.82843 7.17157 9.5 8 9.5C8.82843 9.5 9.5 8.82843 9.5 8ZM10.5 8C10.5 9.38071 9.38071 10.5 8 10.5C6.61929 10.5 5.5 9.38071 5.5 8C5.5 6.61929 6.61929 5.5 8 5.5C9.38071 5.5 10.5 6.61929 10.5 8Z" fill="white"/>
	<path d="M14.9346 9C14.4501 12.3942 11.533 15.0039 8.00488 15.0039C5.45784 15.0039 3.23067 13.6429 2.00586 11.6094V13.5L1.99609 13.6006C1.94957 13.8286 1.74757 14 1.50586 14C1.26415 14 1.06215 13.8286 1.01562 13.6006L1.00586 13.5V10H4.50586L4.60645 10.0098C4.83441 10.0563 5.00586 10.2583 5.00586 10.5C5.00586 10.7417 4.83441 10.9437 4.60645 10.9902L4.50586 11H2.80566C3.84285 12.7954 5.7823 14.0039 8.00488 14.0039C10.9796 14.0039 13.4475 11.8396 13.9229 9H14.9346Z" fill="white"/>
	<path d="M8.00488 1C10.5529 1 12.7813 2.36171 14.0059 4.39648V2.5C14.0059 2.22386 14.2297 2 14.5059 2C14.782 2 15.0059 2.22386 15.0059 2.5V6H11.5059C11.2297 6 11.0059 5.77614 11.0059 5.5C11.0059 5.22386 11.2297 5 11.5059 5H13.2002C12.1625 3.20704 10.2256 2 8.00488 2C5.03158 2 2.56491 4.1623 2.08789 7H1.07617C1.56238 3.60772 4.47811 1 8.00488 1Z" fill="white"/>
</svg>
