<svg width="20" height="20" viewBox="0 0 20 20" fill="none" xmlns="http://www.w3.org/2000/svg">
<path d="M13.4982 0.259777L19.815 4.15978C19.8703 4.19131 19.9168 4.23983 19.9493 4.29988C19.9818 4.35994 19.999 4.42916 19.999 4.49977C19.999 4.57039 19.9818 4.63961 19.9493 4.69967C19.9168 4.75972 19.8703 4.80823 19.815 4.83977L13.4982 8.73977C13.4463 8.77416 13.3873 8.79186 13.3273 8.791C13.2673 8.79013 13.2086 8.77073 13.1575 8.73485C13.1064 8.69897 13.0647 8.64796 13.0369 8.58721C13.0091 8.52646 12.9962 8.45823 12.9995 8.38977V0.549778C13.0027 0.485157 13.0207 0.422625 13.0517 0.368427C13.0826 0.314229 13.1255 0.270259 13.176 0.24091C13.2264 0.21156 13.2827 0.197858 13.3393 0.201168C13.3959 0.204478 13.4507 0.224688 13.4982 0.259777Z" fill="white"/>
<path opacity="0.5" fill-rule="evenodd" clip-rule="evenodd" d="M15 14L18 18V20H0V18L3 14L1 18H17L15 14Z" fill="white"/>
<path d="M10 15L7 7L3 17H15L12 11L10 15Z" fill="white"/>
</svg>
