<svg width="16" height="16" viewBox="0 0 16 16" fill="none" xmlns="http://www.w3.org/2000/svg">
<g clip-path="url(#clip0_24999_27189)">
<g opacity="0.5">
<path d="M15.9311 6.94717C15.8853 6.60535 15.8169 6.26259 15.7248 5.92063C15.6328 5.57866 15.5199 5.24787 15.3879 4.92924L13.5401 5.69452C13.6191 5.88512 13.6891 6.08202 13.7495 6.28497C13.7734 6.34584 13.7919 6.39815 13.8024 6.43734C13.8719 6.69528 13.9234 6.95382 13.9578 7.21164L15.9311 6.94717Z" fill="white"/>
<path d="M13.5555 10.2922C13.7545 9.8104 13.8918 9.30127 13.9603 8.77704L15.9346 9.03547C15.8432 9.73359 15.6601 10.4116 15.3947 11.0531L13.5555 10.2922Z" fill="white"/>
<path d="M11.6649 12.7664C12.0837 12.4437 12.455 12.0691 12.7715 11.6548L14.3524 12.8632C13.9308 13.4147 13.4364 13.9134 12.8784 14.3429L11.6649 12.7664Z" fill="white"/>
<path d="M3.2292 11.6683C3.55213 12.0876 3.92707 12.4592 4.34177 12.7761L3.13662 14.3527C2.58504 13.9311 2.08635 13.4366 1.65687 12.8787L3.2292 11.6683Z" fill="white"/>
<path d="M2.03417 8.7894C2.0686 9.04707 2.12014 9.30546 2.18953 9.56324C2.25904 9.8215 2.34436 10.0713 2.44416 10.3118L0.611608 11.0708C0.479646 10.7522 0.366774 10.4214 0.274726 10.0794C0.182677 9.73744 0.114245 9.39468 0.0684324 9.05287L2.03417 8.7894Z" fill="white"/>
<path d="M2.43775 5.70521C2.2382 6.18749 2.10054 6.69719 2.03184 7.22203L0.0649414 6.96457C0.156325 6.26644 0.339418 5.58845 0.604825 4.94692L2.43775 5.70521Z" fill="white"/>
<path d="M4.33213 3.2303C3.91254 3.55285 3.54063 3.92744 3.22346 4.34181L1.6471 3.13687C2.06872 2.58529 2.56319 2.0866 3.12111 1.65712L4.33213 3.2303Z" fill="white"/>
<path d="M7.21086 2.03795C6.95187 2.07239 6.69214 2.1241 6.43302 2.19384C6.17636 2.26293 5.92806 2.34763 5.68888 2.44663L4.929 0.611852C5.24762 0.47989 5.57842 0.367018 5.92038 0.27497C6.26235 0.182921 6.6051 0.114489 6.94692 0.0686766L7.21086 2.03795Z" fill="white"/>
<path d="M10.2926 2.44271C9.81078 2.24319 9.30155 2.10545 8.77718 2.03654L9.03522 0.0651855C9.73335 0.156569 10.4113 0.339663 11.0529 0.60507L10.2926 2.44271Z" fill="white"/>
</g>
<path d="M6.04103 8.94359C6.22545 9.68879 6.97904 10.1434 7.72424 9.95897C7.96235 9.90004 8.1708 9.783 8.33821 9.62669L16.0021 0L6.41454 7.61945C6.07713 7.95257 5.91886 8.44993 6.04103 8.94359Z" fill="white"/>
</g>
<defs>
<clipPath id="clip0_24999_27189">
<rect width="16" height="16" fill="white"/>
</clipPath>
</defs>
</svg>
