<svg width="16" height="16" viewBox="0 0 16 16" fill="none" xmlns="http://www.w3.org/2000/svg">
<g clip-path="url(#clip0_414_2337)">
<path d="M8.96875 10.8L0.96875 4L1.04875 14.48L3.36875 11.28L5.68875 16L7.36875 15.2L5.12875 10.48L8.96875 10.8Z" fill="white"/>
<path d="M9.4799 0.8L11.7999 5.52L14.1999 2.32V12.8L6.1999 6L10.0399 6.32L7.7999 1.6L9.4799 0.8ZM9.4799 0C9.3999 0 9.2399 1.78814e-08 9.1599 0.08L7.4799 0.88C7.3199 0.96 7.1599 1.12 7.0799 1.36C6.9999 1.6 6.9999 1.76 7.0799 2L8.7599 5.44L6.2799 5.2H6.1999C5.8799 5.2 5.6399 5.36 5.4799 5.68C5.3199 6 5.3999 6.32 5.7199 6.56L13.7199 13.36C13.8799 13.52 14.0399 13.52 14.2799 13.52C14.3599 13.52 14.5199 13.52 14.5999 13.44C14.9199 13.28 15.0799 13.04 15.0799 12.72V2.32C15.0799 2 14.8399 1.68 14.5199 1.6C14.4399 1.6 14.3599 1.52 14.2799 1.52C14.0399 1.52 13.7999 1.6 13.6399 1.84L11.9599 4L10.1999 0.48C10.1199 0.16 9.7999 0 9.4799 0Z" fill="white"/>
</g>
<defs>
<clipPath id="clip0_414_2337">
<rect width="16" height="16" fill="white"/>
</clipPath>
</defs>
</svg>
