<svg width="16" height="16" viewBox="0 0 16 16" fill="none" xmlns="http://www.w3.org/2000/svg">
<path fill-rule="evenodd" clip-rule="evenodd" d="M5 1.5L13 0V12L11.3811 11.6965C11.4592 11.3097 11.5002 10.9096 11.5002 10.4999C11.5002 7.18781 8.81219 4.49976 5.50012 4.49976C5.33171 4.49976 5.16491 4.50671 5 4.52034V1.5Z" fill="white"/>
<path opacity="0.5" d="M16 10.5L13 12V0L16 2.5V10.5Z" fill="white"/>
<g clip-path="url(#clip0_19168_15036)">
<path opacity="0.5" d="M0.369629 10.4968C0.369629 13.3375 2.66272 15.6306 5.50342 15.6306C8.34412 15.6306 10.6372 13.3307 10.6372 10.4968C10.6372 7.66297 8.33727 5.36303 5.50342 5.36303C2.66957 5.36304 0.369629 7.66297 0.369629 10.4968Z" fill="white"/>
<path d="M5.27783 8.38892C5.27783 7.62184 4.65599 7 3.88892 7C3.12184 7 2.5 7.62184 2.5 8.38892C2.5 9.15599 3.12184 9.77783 3.88892 9.77783C4.65599 9.77783 5.27783 9.15599 5.27783 8.38892Z" fill="white"/>
<path d="M7.79231 12.6846C6.69159 13.7853 5.37825 14.3769 4.58594 14.5C6.05517 14.5 7.16552 14.2977 8.25385 13.2615C9.5625 12.0156 9.625 11.0941 9.625 9.61719C9.40962 10.5941 9.07831 11.3986 7.79231 12.6846Z" fill="white"/>
</g>
<defs>
<clipPath id="clip0_19168_15036">
<rect width="11" height="11" fill="white" transform="translate(0 16) rotate(-90)"/>
</clipPath>
</defs>
</svg>
