<svg width="16" height="16" viewBox="0 0 16 16" fill="none" xmlns="http://www.w3.org/2000/svg">
<g clip-path="url(#clip0_414_2267)">
<path d="M0.17334 10L3.44096 9.64367L2.55393 8.65049L4.50995 6.58075L7.68661 7.81653L7.26963 8.65049L10.1354 8.3624L8.49783 5.93631L8.10359 6.82336L5.16196 5.6937L5.13163 5.67095V2.49431H5.94285L4.50995 0L3.09221 2.49431H3.88069V5.67095V5.87565L1.64415 7.8696L0.620648 6.87643L0.17334 10Z" fill="white"/>
<path d="M10.6172 9.45947C7.84687 9.45947 6 12.2298 6 12.2298C6 12.2298 7.84687 15.0001 10.6172 15.0001C13.3875 15.0001 15.2344 12.2298 15.2344 12.2298C15.2344 12.2298 13.3875 9.45947 10.6172 9.45947Z" stroke="white" stroke-width="0.831107" stroke-miterlimit="10"/>
<path d="M10.629 13.9263C9.69262 13.9263 8.93262 13.1663 8.93262 12.2299C8.93262 11.2934 9.69262 10.5334 10.629 10.5334C11.5655 10.5334 12.3255 11.2934 12.3255 12.2299C12.3255 13.1663 11.5655 13.9263 10.629 13.9263Z" fill="white"/>
</g>
<defs>
<clipPath id="clip0_414_2267">
<rect width="16" height="16" fill="white"/>
</clipPath>
</defs>
</svg>
