<svg width="16" height="16" viewBox="0 0 16 16" fill="none" xmlns="http://www.w3.org/2000/svg">
<path opacity="0.5" fill-rule="evenodd" clip-rule="evenodd" d="M5 9V8H2V5H1V8V9V14V15H2H5V14H2V9H5Z" fill="white"/>
<path d="M10 8.5C7 8.5 5 11.5 5 11.5C5 11.5 7 14.5 10 14.5C13 14.5 15 11.5 15 11.5C15 11.5 13 8.5 10 8.5Z" stroke="white" stroke-width="0.900016" stroke-miterlimit="10"/>
<path d="M10.0168 13.3372C9.0027 13.3372 8.17969 12.5142 8.17969 11.5002C8.17969 10.4861 9.0027 9.66309 10.0168 9.66309C11.0308 9.66309 11.8538 10.4861 11.8538 11.5002C11.8538 12.5142 11.0308 13.3372 10.0168 13.3372Z" fill="white"/>
<path d="M15 1H1V4H15V1Z" fill="white"/>
</svg>
