<svg width="16" height="16" viewBox="0 0 16 16" fill="none" xmlns="http://www.w3.org/2000/svg">
<g clip-path="url(#clip0_414_2359)">
<path d="M5.44979 11.4601C3.89979 11.3101 2.51979 10.5601 1.51979 9.37007C0.399791 8.00007 0.00979133 6.40007 0.389791 4.64007C0.899791 2.22007 3.59979 0.710067 3.69979 0.640067C3.99979 0.470067 4.34979 0.580067 4.51979 0.880067C4.68979 1.16007 4.57979 1.53007 4.29979 1.70007C4.27979 1.71007 1.96979 3.02007 1.56979 4.89007C1.26979 6.27007 1.56979 7.53007 2.46979 8.62007C3.24979 9.58007 4.34979 10.1601 5.57979 10.2901C6.80979 10.4201 8.00979 10.0401 8.95979 9.26007C10.9198 7.65007 11.2098 4.73007 9.59979 2.77007C8.94979 1.98007 8.08979 1.43007 7.08979 1.21007C6.76979 1.14007 6.56979 0.810067 6.63979 0.490067C6.70979 0.170067 7.03979 -0.0499328 7.35979 0.0400672C8.60979 0.340067 9.69979 1.01007 10.5198 2.02007C12.5498 4.49007 12.1898 8.17007 9.71979 10.1901C8.52979 11.1701 7.00979 11.6301 5.45979 11.4801L5.44979 11.4601Z" fill="white"/>
<path d="M13.2898 10.93L13.6598 11.3C14.6898 12.33 14.8998 13.46 14.1798 14.19C13.4598 14.92 12.3998 14.78 11.3498 13.73L10.0098 12.39L9.00977 13.39L10.2898 14.67C11.8398 16.22 13.6998 16.48 15.0998 15.09C16.4898 13.7 16.2498 11.85 14.6798 10.28L13.3998 9L12.3998 10L13.3098 10.92L13.2898 10.93Z" fill="white"/>
<path d="M4 1V0H0.5C0.22 0 0 0.23 0 0.5C0 0.77 0.22 1 0.5 1H4Z" fill="white"/>
<path d="M5 0H4V4.5C4 4.78 4.23 5 4.5 5C4.77 5 5 4.78 5 4.5V0Z" fill="white"/>
</g>
<defs>
<clipPath id="clip0_414_2359">
<rect width="16" height="16" fill="white"/>
</clipPath>
</defs>
</svg>
