<svg width="16" height="16" viewBox="0 0 16 16" fill="none" xmlns="http://www.w3.org/2000/svg">
<g clip-path="url(#clip0_414_2368)">
<path opacity="0.5" d="M6 0C4.68 0 3.4 0.52 2.47 1.47C1.54 2.4 1 3.68 1 5C1 6.32 1.52 7.6 2.47 8.53C3.4 9.46 4.68 10 6 10C7.32 10 8.6 9.48 9.53 8.53C10.46 7.6 11 6.32 11 5C11 3.68 10.48 2.4 9.53 1.47C8.6 0.54 7.32 0 6 0Z" fill="white"/>
<path d="M6.36016 8.60993C5.30016 8.60993 4.30016 8.18993 3.56016 7.43993C2.82016 6.68993 2.39016 5.67993 2.39016 4.63993C2.39016 3.59993 2.78016 2.62993 3.49016 1.89993C4.20016 1.15993 5.16016 0.719932 6.18016 0.679932H6.00016C4.86016 0.679932 3.74016 1.13993 2.93016 1.94993C2.12016 2.75993 1.66016 3.85993 1.66016 5.01993C1.66016 6.17993 2.12016 7.27993 2.93016 8.08993C3.74016 8.89993 4.84016 9.35993 6.00016 9.35993C7.16016 9.35993 8.26016 8.89993 9.07016 8.08993C9.88016 7.27993 10.3402 6.17993 10.3402 5.01993V4.82993C10.3002 5.84993 9.85016 6.81993 9.12016 7.51993C8.38016 8.21993 7.40016 8.61993 6.38016 8.60993H6.37016H6.36016Z" fill="white"/>
<path d="M7.7002 4.30005C8.2602 4.30005 8.7002 3.86005 8.7002 3.30005C8.7002 2.74005 8.2602 2.30005 7.7002 2.30005C7.1402 2.30005 6.7002 2.74005 6.7002 3.30005C6.7002 3.86005 7.1402 4.30005 7.7002 4.30005Z" fill="white"/>
<path opacity="0.5" d="M6.48 13.1899L7.77 11.9999H1.82L2.52 9.65991L0 11.9999V13.9999H7.52L6.48 13.1899Z" fill="white"/>
<path d="M13.2898 10.93L13.6598 11.3C14.6898 12.33 14.8998 13.46 14.1798 14.19C13.4598 14.92 12.3998 14.78 11.3498 13.73L10.0098 12.39L9.00977 13.39L10.2898 14.67C11.8398 16.22 13.6998 16.48 15.0998 15.09C16.4898 13.7 16.2498 11.85 14.6798 10.28L13.3998 9L12.3998 10L13.3098 10.92L13.2898 10.93Z" fill="white"/>
</g>
<defs>
<clipPath id="clip0_414_2368">
<rect width="16" height="16" fill="white"/>
</clipPath>
</defs>
</svg>
