<svg width="16" height="16" viewBox="0 0 16 16" fill="none" xmlns="http://www.w3.org/2000/svg">
<path d="M9.50001 4.72773L10.8344 6.06211C12.9083 8.13593 13.323 10.3861 11.8714 11.8481C10.4197 13.3102 8.29404 13.0303 6.18911 10.9358L4.74153 9.48846L2.72999 11.5L4.06339 12.8334C7.17412 15.9441 10.8967 16.473 13.6963 13.6734C16.496 10.8737 15.9982 7.18228 12.8564 4.04044L11.5219 2.70605L9.50001 4.72773Z" fill="white"/>
<path d="M1.79022 10.5554L3.98922 8.35638L2.52322 6.89038L0.324219 9.08938L1.79022 10.5554Z" fill="white"/>
<path d="M8.39471 3.95163L10.5937 1.75262L9.12771 0.286621L6.92871 2.48562L8.39471 3.95163Z" fill="white"/>
</svg>
