<svg width="16" height="16" viewBox="0 0 16 16" fill="none" xmlns="http://www.w3.org/2000/svg">
<g clip-path="url(#clip0_414_2364)">
<path d="M4.2 7H1.8C1.35817 7 1 7.35817 1 7.8V10.2C1 10.6418 1.35817 11 1.8 11H4.2C4.64183 11 5 10.6418 5 10.2V7.8C5 7.35817 4.64183 7 4.2 7Z" fill="white"/>
<path d="M1.72021 5.28997V2.42997C1.72021 2.03997 2.04021 1.71997 2.43021 1.71997H9.57021C9.96021 1.71997 10.2802 2.03997 10.2802 2.42997V9.56997C10.2802 9.95997 9.96021 10.28 9.57021 10.28H6.71021" stroke="white" stroke-width="1.5" stroke-miterlimit="3.14" stroke-linecap="round"/>
<path d="M13.2898 10.93L13.6598 11.3C14.6898 12.33 14.8998 13.46 14.1798 14.19C13.4598 14.92 12.3998 14.78 11.3498 13.73L10.0098 12.39L9.00977 13.39L10.2898 14.67C11.8398 16.22 13.6998 16.48 15.0998 15.09C16.4898 13.7 16.2498 11.85 14.6798 10.28L13.3998 9L12.3998 10L13.3098 10.92L13.2898 10.93Z" fill="white"/>
</g>
<defs>
<clipPath id="clip0_414_2364">
<rect width="16" height="16" fill="white"/>
</clipPath>
</defs>
</svg>
