<svg width="16" height="16" viewBox="0 0 16 16" fill="none" xmlns="http://www.w3.org/2000/svg">
<g clip-path="url(#clip0_414_2374)">
<path opacity="0.5" d="M9.09017 0.929916C11.3802 3.21992 11.7202 7.29992 9.51017 9.50992C7.31017 11.7199 3.23017 11.3799 0.95017 9.08992C0.78017 8.91992 1.88017 9.17992 2.73017 9.17992C4.09017 9.17992 5.78017 8.49992 7.14017 7.13992C8.41017 5.86992 9.09017 4.16992 9.18017 2.71992C9.18017 1.86992 8.93017 0.769916 9.10017 0.939916L9.09017 0.929916Z" fill="white"/>
<path d="M2.98012 2.97003C4.85012 1.10003 7.05012 0.590034 7.81012 1.36003C8.57012 2.12003 8.06012 4.33003 6.20012 6.20003C4.33012 8.07003 2.13012 8.58003 1.37012 7.81003C0.610123 7.05003 1.12012 4.84003 2.98012 2.97003ZM2.31012 2.29003C0.020123 4.58003 -0.659877 7.47003 0.690123 8.83003C2.05012 10.19 5.01012 9.42003 7.22012 7.22003C9.42012 5.01003 10.1901 2.04003 8.83012 0.680034C7.48012 -0.679967 4.51012 0.0800335 2.31012 2.29003Z" fill="white"/>
<path d="M13.2898 10.93L13.6598 11.3C14.6898 12.33 14.8998 13.46 14.1798 14.19C13.4598 14.92 12.3998 14.78 11.3498 13.73L10.0098 12.39L9.00977 13.39L10.2898 14.67C11.8398 16.22 13.6998 16.48 15.0998 15.09C16.4898 13.7 16.2498 11.85 14.6798 10.28L13.3998 9L12.3998 10L13.3098 10.92L13.2898 10.93Z" fill="white"/>
</g>
<defs>
<clipPath id="clip0_414_2374">
<rect width="16" height="16" fill="white"/>
</clipPath>
</defs>
</svg>
