<svg width="16" height="16" viewBox="0 0 16 16" fill="none" xmlns="http://www.w3.org/2000/svg">
<path d="M12.63 1C12.88 1.48 13 1.98 13 2.5C13 4.02 11.93 5.39 10.22 6.08C9.49 6.37 9 7.11 9 7.92V8.09C9 8.9 9.49 9.64 10.22 9.93C11.93 10.62 13 11.99 13 13.51C13 14.03 12.88 14.53 12.63 15.01H3.37C3.12 14.53 3 14.03 3 13.51C3 11.99 4.07 10.62 5.78 9.93C6.51 9.64 7 8.9 7 8.09V7.92C7 7.11 6.51 6.37 5.78 6.08C4.07 5.39 3 4.02 3 2.5C3 1.98 3.12 1.48 3.37 1H12.63ZM13.19 0H2.81C2.3 0.74 2 1.59 2 2.5C2 4.49 3.39 6.2 5.41 7C5.78 7.15 6 7.52 6 7.91V8.08C6 8.47 5.77 8.85 5.41 8.99C3.39 9.8 2 11.51 2 13.49C2 14.4 2.3 15.25 2.81 15.99H13.19C13.7 15.25 14 14.4 14 13.49C14 11.5 12.61 9.79 10.59 8.99C10.22 8.84 10 8.47 10 8.08V7.91C10 7.52 10.23 7.14 10.59 7C12.61 6.19 14 4.48 14 2.5C14 1.59 13.7 0.74 13.19 0Z" fill="white"/>
<path opacity="0.5" d="M6.38 11.25C5.24 11.71 4.5 12.62 4.5 13.57C4.5 13.72 4.52 13.86 4.55 14.01H11.45C11.48 13.87 11.5 13.72 11.5 13.57C11.5 12.62 10.76 11.71 9.62 11.25C9.02 11.01 8.55 10.56 8.28 10H7.73C7.45 10.56 6.99 11.01 6.39 11.25H6.38Z" fill="white"/>
</svg>
