<svg width="16" height="16" viewBox="0 0 16 16" fill="none" xmlns="http://www.w3.org/2000/svg">
<g clip-path="url(#clip0_414_2506)">
<path d="M1 4H3V5H2V7H1V4Z" fill="white"/>
<path d="M11 10H12V8H11V10Z" fill="white"/>
<path d="M11 12H12V15H10V14H11V12Z" fill="white"/>
<path d="M2 9H1V11H2V9Z" fill="white"/>
<path d="M5 4H7V5H5V4Z" fill="white"/>
<path d="M9 4V5H11V6H12V4H9Z" fill="white"/>
<path d="M1 15V13H2V14H4V15H1Z" fill="white"/>
<path d="M6 14H8V15H6V14Z" fill="white"/>
<path d="M6.5 13C8.433 13 10 11.433 10 9.5C10 7.567 8.433 6 6.5 6C4.567 6 3 7.567 3 9.5C3 11.433 4.567 13 6.5 13Z" fill="white"/>
<path opacity="0.5" d="M9.03564 3H13.0002V6.96456C14.6963 6.72194 16.0002 5.26324 16.0002 3.5C16.0002 1.567 14.4332 0 12.5002 0C10.737 0 9.27826 1.30385 9.03564 3Z" fill="white"/>
</g>
<defs>
<clipPath id="clip0_414_2506">
<rect width="16" height="16" fill="white"/>
</clipPath>
</defs>
</svg>
