<svg width="16" height="16" viewBox="0 0 16 16" fill="none" xmlns="http://www.w3.org/2000/svg">
	<path opacity="0.5" d="M1.59998 3.19995H14.4" stroke="white" stroke-width="2" stroke-linecap="round"/>
	<path opacity="0.5" d="M1.59998 8H14.4" stroke="white" stroke-width="2" stroke-linecap="round"/>
	<path opacity="0.5" d="M1.59998 12.8H14.4" stroke="white" stroke-width="2" stroke-linecap="round"/>
	<path d="M5.59998 3.19998C5.59998 4.08363 6.31632 4.79998 7.19998 4.79998C8.08363 4.79998 8.79998 4.08363 8.79998 3.19998C8.79998 2.31632 8.08363 1.59998 7.19998 1.59998C6.31632 1.59998 5.59998 2.31632 5.59998 3.19998Z" fill="white"/>
	<path d="M8.80005 8.00002C8.80005 8.88368 9.51639 9.60002 10.4 9.60002C11.2837 9.60002 12 8.88368 12 8.00002C12 7.11637 11.2837 6.40002 10.4 6.40002C9.51639 6.40002 8.80005 7.11637 8.80005 8.00002Z" fill="white"/>
	<path d="M4 12.8C4 13.6836 4.71634 14.4 5.6 14.4C6.48366 14.4 7.2 13.6836 7.2 12.8C7.2 11.9163 6.48366 11.2 5.6 11.2C4.71634 11.2 4 11.9163 4 12.8Z" fill="white"/>
</svg>
