<svg width="16" height="16" viewBox="0 0 16 16" fill="none" xmlns="http://www.w3.org/2000/svg">
<path opacity="0.5" fill-rule="evenodd" clip-rule="evenodd" d="M5.38108 7.2942C3.84961 10.3793 3.3734 13.0593 3.62496 13.6318C4.19719 14.9341 6.91548 11.8668 8.93821 8.5891C10.9597 5.32298 12.6037 1.58424 11.0917 1.61836C10.2632 1.63706 8.2924 3.48226 6.19119 5.99493C8.62535 2.27268 11.413 -0.114222 12.5828 0.599761C13.8065 1.35476 12.7499 5.28869 10.2285 9.37487C7.70715 13.461 4.66319 16.158 3.42798 15.4017C2.26966 14.689 3.15706 11.1216 5.39517 7.27241L5.38108 7.2942Z" fill="white"/>
<path d="M8.69761 5.37512C8.70335 5.37796 8.70909 5.3808 8.71483 5.38365L8.73661 5.39775C8.72361 5.39019 8.71061 5.38265 8.69761 5.37512Z" fill="white"/>
<path d="M2.37725 3.62753C2.94868 3.37645 5.6198 3.85042 8.69761 5.37512C4.86339 3.15366 1.31759 2.27615 0.6073 3.43056C-0.148983 4.66577 2.54798 7.70973 6.63416 10.2311C10.7203 12.7525 14.6543 13.8091 15.4093 12.5854C16.0267 11.5738 14.3253 9.3524 11.4468 7.19597C11.4185 7.25244 11.39 7.30907 11.3611 7.36583C13.1597 8.99999 14.3755 10.4225 14.3907 11.0943C14.4248 12.6063 10.686 10.9622 7.41992 8.94079C4.14227 6.91806 1.07493 4.19977 2.37725 3.62753Z" fill="white"/>
<path d="M10.2145 6.36229C10.2192 6.35332 10.2239 6.34436 10.2286 6.33541C10.1576 6.28807 10.0861 6.24085 10.0141 6.19377C10.0814 6.25004 10.1482 6.30622 10.2145 6.36229Z" fill="white"/>
</svg>
