<svg width="16" height="16" viewBox="0 0 16 16" fill="none" xmlns="http://www.w3.org/2000/svg">
<path d="M10.2706 5.62L6.89062 4.5L10.2706 3.38L11.3906 0L12.5206 3.38L15.8906 4.5L12.5206 5.62L11.3906 9L10.2706 5.62Z" fill="white"/>
<path d="M13.1492 10.7291L11.5078 10.1852L13.1492 9.64136L13.6931 8L14.2418 9.64136L15.8783 10.1852L14.2418 10.7291L13.6931 12.3705L13.1492 10.7291Z" fill="white"/>
<path d="M4.92922 2.60289L3.54688 2.14484L4.92922 1.68678L5.38727 0.304443L5.84941 1.68678L7.22766 2.14484L5.84941 2.60289L5.38727 3.98523L4.92922 2.60289Z" fill="white"/>
<path d="M1.07031 9.50547H7.53683C9.08323 9.50547 10.3368 10.7591 10.3368 12.3055C10.3368 13.8519 9.08323 15.1055 7.53683 15.1055H7.13683M1.07031 9.50547L3.47031 7.10547M1.07031 9.50547L3.47031 11.9055" stroke="white" stroke-width="1.5" stroke-linecap="round"/>
</svg>
