<svg width="16" height="16" viewBox="0 0 16 16" fill="none" xmlns="http://www.w3.org/2000/svg">
<path opacity="0.5" fill-rule="evenodd" clip-rule="evenodd" d="M12 14L10.9688 10.1277L13 14V16H0V14L2.03125 10.0769L1 14H12Z" fill="white"/>
<path d="M6.95 11.8L4.7 5L2 13H11L8.75 7.872L6.95 11.8Z" fill="white"/>
<path d="M10.2706 5.62L6.89062 4.5L10.2706 3.38L11.3906 0L12.5206 3.38L15.8906 4.5L12.5206 5.62L11.3906 9L10.2706 5.62Z" fill="white"/>
<path d="M13.1492 10.7291L11.5078 10.1852L13.1492 9.64136L13.6931 8L14.2418 9.64136L15.8783 10.1852L14.2418 10.7291L13.6931 12.3705L13.1492 10.7291Z" fill="white"/>
<path d="M4.92922 2.60289L3.54688 2.14484L4.92922 1.68678L5.38727 0.304443L5.84941 1.68678L7.22766 2.14484L5.84941 2.60289L5.38727 3.98523L4.92922 2.60289Z" fill="white"/>
</svg>
