<svg width="16" height="16" viewBox="0 0 16 16" fill="none" xmlns="http://www.w3.org/2000/svg">
<path fill-rule="evenodd" clip-rule="evenodd" d="M5.75 6.75032L10.75 7.46032C11.4 7.56032 12 7.05032 12 6.38032V1.09032C12 0.430323 11.41 -0.0796767 10.75 0.0103233L4.64 0.910323V0.930323H4.58L0 1.61032V5.88032L2.99001 6.29032C3.41001 4.65032 4.33 3.19032 4.33 3.19032C4.33 3.19032 5.32 4.63032 5.75 6.75032ZM0.570007 5.07032L0.669998 2.42032L3.69 2.16032L2.73 5.23032L0.470001 5.06032H0.570007V5.07032ZM10.29 5.96032L6.41 5.61032L5.09 2.01032L10.29 1.54032V5.97032V5.96032Z" fill="white"/>
<path opacity="0.5" d="M14.6999 0.110244L10.9199 0.000244141L11.3399 7.39024L15.2299 5.46024C15.7099 5.19024 15.9999 4.69024 15.9999 4.14024V1.49024C15.9999 0.760244 15.4299 0.150244 14.6899 0.110244H14.6999Z" fill="white"/>
<path d="M8.5 16.0002H3.5C3.2 16.0002 3 15.8002 3 15.5002V10.5002C3 10.2002 3.2 10.0002 3.5 10.0002H8.5C8.8 10.0002 9 10.2002 9 10.5002V15.5002C9 15.8002 8.8 16.0002 8.5 16.0002ZM9.89999 12.6002V13.5002L13 15.7002V10.4002L9.89999 12.6002Z" fill="white"/>
</svg>
