<svg width="16" height="16" viewBox="0 0 16 16" fill="none" xmlns="http://www.w3.org/2000/svg">
<path d="M8.5 16.0002H2.5C2.2 16.0002 2 15.8002 2 15.5002V12.5002C2 12.2002 2.2 12.0002 2.5 12.0002H8.5C8.8 12.0002 9 12.2002 9 12.5002V15.5002C9 15.8002 8.8 16.0002 8.5 16.0002ZM3.6 8.69019C2.72 8.69019 2 9.41019 2 10.2902C2 11.1702 2.72 11.8902 3.6 11.8902C4.48 11.8902 5.2 11.1702 5.2 10.2902C5.2 9.41019 4.48 8.69019 3.6 8.69019ZM7.4 8.69019C6.52 8.69019 5.8 9.41019 5.8 10.2902C5.8 11.1702 6.52 11.8902 7.4 11.8902C8.28 11.8902 9 11.1702 9 10.2902C9 9.41019 8.28 8.69019 7.4 8.69019ZM9.9 13.8302V14.1602L13 15.9902V11.9902L9.9 13.8202V13.8302Z" fill="white"/>
<path fill-rule="evenodd" clip-rule="evenodd" d="M5.75 6.75032L10.75 7.46032C11.4 7.56032 12 7.05032 12 6.38032V1.09032C12 0.430323 11.41 -0.0796767 10.75 0.0103233L4.64 0.910323V0.930323H4.58L0 1.61032V5.88032L2.99 6.29032C3.41 4.65032 4.33 3.19032 4.33 3.19032C4.33 3.19032 5.32 4.63032 5.75 6.75032ZM0.57 5.07032L0.67 2.42032L3.69 2.16032L2.73 5.23032L0.469999 5.06032H0.57V5.07032ZM10.29 5.96032L6.41 5.61032L5.09 2.01032L10.29 1.54032V5.97032V5.96032Z" fill="white"/>
<path opacity="0.5" d="M14.6999 0.110245L10.9199 0.000244141L11.3399 7.39024L15.2299 5.46024C15.7099 5.19024 15.9999 4.69024 15.9999 4.14024V1.49024C15.9999 0.760244 15.4299 0.150245 14.6899 0.110245H14.6999Z" fill="white"/>
</svg>
