<svg width="16" height="16" viewBox="0 0 16 16" fill="none" xmlns="http://www.w3.org/2000/svg">
	<g clip-path="url(#clip0_1_10)">
		<path fill-rule="evenodd" clip-rule="evenodd" d="M12.0607 6.06066L15.4341 2.68722C15.7956 3.37884 16 4.16555 16 5C16 7.76142 13.7614 10 11 10C10.3551 10 9.73879 9.87792 9.17281 9.65562L3.41421 15.4142C2.63317 16.1953 1.36684 16.1953 0.585786 15.4142C-0.195262 14.6332 -0.195262 13.3668 0.585786 12.5858L6.34438 6.82719C6.12208 6.26121 6 5.64486 6 5C6 2.23858 8.23858 0 11 0C11.8345 0 12.6212 0.204413 13.3128 0.565896L9.93934 3.93934C9.35355 4.52513 9.35355 5.47487 9.93934 6.06066C10.5251 6.64645 11.4749 6.64645 12.0607 6.06066ZM2.75 14C2.75 14.4142 2.41421 14.75 2 14.75C1.58579 14.75 1.25 14.4142 1.25 14C1.25 13.5858 1.58579 13.25 2 13.25C2.41421 13.25 2.75 13.5858 2.75 14Z" fill="white"/>
	</g>
	<defs>
		<clipPath id="clip0_1_10">
			<rect width="16" height="16" fill="white"/>
		</clipPath>
	</defs>
</svg>
