<svg width="16" height="16" viewBox="0 0 16 16" fill="none" xmlns="http://www.w3.org/2000/svg">
<path fill-rule="evenodd" clip-rule="evenodd" d="M3.58931 11.3893L11.3893 3.58931L12.4107 4.61069L4.61069 12.4107L3.58931 11.3893Z" fill="white"/>
<path d="M8 2.8C10.86 2.8 13.2 5.14 13.2 8C13.2 10.86 10.86 13.2 8 13.2C5.14 13.2 2.8 10.86 2.8 8C2.8 5.14 5.14 2.8 8 2.8ZM8 1.5C4.44667 1.5 1.5 4.44667 1.5 8C1.5 11.5533 4.44667 14.5 8 14.5C11.5533 14.5 14.5 11.5533 14.5 8C14.5 4.44667 11.5533 1.5 8 1.5Z" fill="white"/>
</svg>
