<svg width="16" height="16" viewBox="0 0 16 16" fill="none" xmlns="http://www.w3.org/2000/svg">
<path opacity="0.5" d="M16 4L15.65 3.94C15.52 3.14 15.1 2.3 14.4 1.6C13.7 0.9 12.86 0.47 12.06 0.35L12 0C12.88 0.14 13.82 0.62 14.6 1.4C15.38 2.18 15.86 3.12 16 4Z" fill="white"/>
<path opacity="0.5" d="M12.1328 12.8691L11.3428 12.7491C11.0628 10.9591 10.0928 9.05914 8.52281 7.48914C6.95281 5.91914 5.04281 4.93914 3.25281 4.65914L3.13281 3.86914C5.12281 4.17914 7.23281 5.25914 8.99281 7.00914C10.7528 8.75914 11.8228 10.8791 12.1328 12.8691Z" fill="white"/>
<path d="M16 6H10V0L16 6Z" fill="white"/>
<g opacity="0.5">
<path d="M12.668 7C13.1657 7.87816 13.4914 8.78961 13.6279 9.66895L12.9883 9.56934C12.8536 8.72021 12.5292 7.84057 12.0273 7H12.668Z" fill="white"/>
<path d="M6.32812 2.36914C7.20827 2.51128 8.12109 2.83607 9 3.33301V3.9707C8.15872 3.46802 7.27766 3.1436 6.42773 3.00879L6.32812 2.36914Z" fill="white"/>
</g>
<path d="M0 13L2 11V6L10 14H5L3 16L0 13Z" fill="white"/>
</svg>
