<svg width="16" height="16" viewBox="0 0 16 16" fill="none" xmlns="http://www.w3.org/2000/svg">
<path d="M14.7499 13.5194L14.757 13.534L14.7651 13.5481C14.8544 13.7044 14.85 13.9295 14.7136 14.1461C14.5798 14.3586 14.3546 14.5 14.0992 14.5H1.79919C1.61552 14.5 1.41159 14.3808 1.27934 14.1576C1.14752 13.9351 1.1433 13.7056 1.23332 13.5481L1.24138 13.534L1.24851 13.5194L7.4473 0.821828C7.6637 0.392724 8.33469 0.392724 8.55109 0.821828L14.7499 13.5194ZM7.9992 3.5C7.58557 3.5 7.20203 3.64006 6.92064 3.92145C6.63925 4.20284 6.4992 4.58638 6.4992 5V8.5C6.4992 8.91362 6.63925 9.29716 6.92064 9.57855C7.20203 9.85994 7.58557 10 7.9992 10C8.41282 10 8.79636 9.85994 9.07775 9.57855C9.35914 9.29716 9.4992 8.91362 9.4992 8.5V5C9.4992 4.58638 9.35914 4.20284 9.07775 3.92145C8.79636 3.64006 8.41282 3.5 7.9992 3.5ZM6.3992 12C6.3992 12.8761 7.12305 13.6 7.9992 13.6C8.87534 13.6 9.5992 12.8761 9.5992 12C9.5992 11.1239 8.87534 10.4 7.9992 10.4C7.12305 10.4 6.3992 11.1239 6.3992 12Z" fill="white" stroke="white"/>
</svg>
