<svg width="16" height="16" viewBox="0 0 16 16" fill="none" xmlns="http://www.w3.org/2000/svg">
<g clip-path="url(#clip0_24412_22510)">
<path opacity="0.5" d="M2.02978 0.931159L8.29026 3.32932L8.67509 3.71415L8.5 4.5L8 5V8.69124L1.13485 1.82609L2.02978 0.931159Z" fill="white"/>
<path opacity="0.5" d="M0.423573 7.05445L3.4629 7.5503L4.44946 8.53686L4.94531 11.5762L4.5214 12.0001L-0.000339649 7.47837L0.423573 7.05445Z" fill="white"/>
<path fill-rule="evenodd" clip-rule="evenodd" d="M3.61041 7.27045L9.32208 1.55878L11.3152 0.696077L10.4525 2.68921L4.74085 8.40088L2.46015 9.92796L2.08333 9.55115L3.61041 7.27045Z" fill="white"/>
<path d="M16.0036 11.7273L9.36719 6L9.45808 14.7274L11.3672 12.091L13.2763 16.0001L14.64 15.3637L12.8218 11.4546L16.0036 11.7273Z" fill="white"/>
</g>
<defs>
<clipPath id="clip0_24412_22510">
<rect width="16" height="16" fill="white"/>
</clipPath>
</defs>
</svg>
