<svg width="16" height="16" viewBox="0 0 16 16" fill="none" xmlns="http://www.w3.org/2000/svg">
<path d="M2.5 6.5L6.5 8.5" stroke="white" stroke-miterlimit="10" stroke-linecap="round"/>
<path d="M2.27639 6.05279C2.0294 6.17628 1.92929 6.47662 2.05279 6.72361C2.17628 6.9706 2.47662 7.07071 2.72361 6.94721L2.27639 6.05279ZM6.5 4.5L6.72361 4.05279L6.5 3.94098L6.27639 4.05279L6.5 4.5ZM10.5 6.5L10.7236 6.94721C10.893 6.86252 11 6.68939 11 6.5C11 6.31061 10.893 6.13748 10.7236 6.05279L10.5 6.5ZM6.27639 8.05279C6.0294 8.17628 5.92929 8.47662 6.05279 8.72361C6.17628 8.9706 6.47662 9.07071 6.72361 8.94721L6.27639 8.05279ZM2.72361 6.94721L6.72361 4.94721L6.27639 4.05279L2.27639 6.05279L2.72361 6.94721ZM6.27639 4.94721L10.2764 6.94721L10.7236 6.05279L6.72361 4.05279L6.27639 4.94721ZM10.2764 6.05279L6.27639 8.05279L6.72361 8.94721L10.7236 6.94721L10.2764 6.05279Z" fill="white"/>
<path d="M2.5 6.5V11.5L6.5 13.5" stroke="white" stroke-miterlimit="10" stroke-linecap="round" stroke-linejoin="round"/>
<path d="M6.5 13.5V8.5" stroke="white" stroke-miterlimit="10" stroke-linecap="round"/>
<path d="M6.5 0.5V4.5" stroke="white" stroke-miterlimit="10" stroke-linecap="round"/>
<path d="M3.5 12.5L0.5 15.5" stroke="white" stroke-miterlimit="10" stroke-linecap="round"/>
<path d="M14 8C14 4.68629 11.3137 2 8 2" stroke="white"/>
<path d="M10.75 9.5L8.74999 11.5L10.75 13.5" stroke="white" stroke-miterlimit="10" stroke-linecap="round"/>
<path d="M9.5 11.5H13C14.1046 11.5 15 12.3954 15 13.5V13.5C15 14.6046 14.1046 15.5 13 15.5H12.25" stroke="white" stroke-linecap="round"/>
</svg>
