<svg width="16" height="16" viewBox="0 0 16 16" fill="none" xmlns="http://www.w3.org/2000/svg">
<g clip-path="url(#clip0_4743_1350)">
<path d="M15.87 8C15.8703 5.9006 15.0453 3.88522 13.573 2.38861C12.1007 0.892002 10.0991 0.0341152 8 0V1.59998C9.67475 1.634 11.2694 2.32327 12.4417 3.51984C13.6139 4.7164 14.2703 6.3249 14.27 8C14.2728 8.86629 14.0965 9.7238 13.7524 10.5188C13.4082 11.3138 12.9035 12.0292 12.27 12.62L10 10.35V16H15.66L13.39 13.74C14.1789 13.0076 14.8068 12.119 15.2337 11.1309C15.6607 10.1427 15.8774 9.07645 15.87 8Z" fill="white"/>
<path d="M7.99909 14.39C6.32606 14.356 4.73289 13.6681 3.56091 12.4737C2.38893 11.2793 1.73136 9.67337 1.72909 8C1.72634 7.13371 1.90256 6.2762 2.24672 5.4812C2.59088 4.6862 3.09554 3.97085 3.72909 3.38L5.99909 5.65002V0H0.339088L2.60909 2.26001C1.82019 2.99243 1.19231 3.88095 0.765358 4.86914C0.338407 5.85733 0.121725 6.92355 0.129088 8C0.128811 10.0994 0.953796 12.1148 2.42609 13.6114C3.89838 15.108 5.89997 15.9659 7.99909 16V14.39Z" fill="white"/>
</g>
<defs>
<clipPath id="clip0_4743_1350">
<rect width="16" height="16" fill="white"/>
</clipPath>
</defs>
</svg>
