<svg width="16" height="16" viewBox="0 0 16 16" fill="none" xmlns="http://www.w3.org/2000/svg">
<path fill-rule="evenodd" clip-rule="evenodd" d="M10.875 8.8501C9.40357 8.8501 8.1979 9.58367 7.38662 10.272C6.97686 10.6197 6.65503 10.9664 6.4352 11.2265C6.32502 11.3568 6.23971 11.4663 6.18109 11.5445C6.15175 11.5836 6.12904 11.6149 6.11317 11.6372L5.89575 11.9565L6.11317 12.2757C6.12904 12.298 6.15175 12.3294 6.18109 12.3685C6.23971 12.4466 6.32502 12.5561 6.4352 12.6865C6.65503 12.9466 6.97686 13.2933 7.38662 13.6409C8.1979 14.3293 9.40357 15.0629 10.875 15.0629C12.3464 15.0629 13.5521 14.3293 14.3634 13.6409C14.7731 13.2933 15.095 12.9466 15.3148 12.6865C15.425 12.5561 15.5103 12.4466 15.5689 12.3685C15.5982 12.3294 15.621 12.298 15.6368 12.2757L15.8542 11.9565L15.6368 11.6372C15.621 11.6149 15.5982 11.5836 15.5689 11.5445C15.5103 11.4663 15.425 11.3568 15.3148 11.2265C15.095 10.9664 14.7731 10.6197 14.3634 10.272C13.5521 9.58367 12.3464 8.8501 10.875 8.8501ZM7.1989 12.041C7.17393 12.0114 7.1505 11.9832 7.12866 11.9565C7.1505 11.9298 7.17393 11.9016 7.1989 11.872C7.39215 11.6434 7.67537 11.3385 8.03356 11.0345C8.75818 10.4197 9.74001 9.8501 10.875 9.8501C12.0099 9.8501 12.9918 10.4197 13.7164 11.0345C14.0746 11.3385 14.3578 11.6434 14.551 11.872C14.576 11.9016 14.5994 11.9298 14.6213 11.9565C14.5994 11.9832 14.576 12.0114 14.551 12.041C14.3578 12.2696 14.0746 12.5745 13.7164 12.8784C12.9918 13.4932 12.0099 14.0629 10.875 14.0629C9.74001 14.0629 8.75818 13.4932 8.03356 12.8784C7.67537 12.5745 7.39215 12.2696 7.1989 12.041Z" fill="white"/>
<path d="M10.8749 13.4458C10.0372 13.4458 9.38557 12.7942 9.38557 11.9565C9.38557 11.1187 10.0372 10.4671 10.8749 10.4671C11.7127 10.4671 12.3643 11.1187 12.3643 11.9565C12.3643 12.7942 11.7127 13.4458 10.8749 13.4458Z" fill="white"/>
<path d="M4.31 6.12V3.5C4.30596 3.21129 4.35988 2.92463 4.46851 2.6571C4.57713 2.38958 4.73827 2.14655 4.94244 1.94238C5.14661 1.73821 5.38964 1.57713 5.65717 1.46851C5.92469 1.35988 6.21129 1.3059 6.5 1.30994C6.78834 1.30727 7.07434 1.3622 7.34125 1.47131C7.60816 1.58043 7.85061 1.74154 8.0545 1.94543C8.2584 2.14933 8.41964 2.3919 8.52875 2.65881C8.63786 2.92572 8.69267 3.21166 8.69 3.5V6.12H10V3.5C9.99736 2.57255 9.62779 1.68388 8.97198 1.02808C8.31618 0.37227 7.42745 0.00263855 6.5 0C5.57255 0.00263855 4.68382 0.37227 4.02802 1.02808C3.37221 1.68388 3.00264 2.57255 3 3.5V6.12H4.31Z" fill="white"/>
<path d="M11.25 6H1.75C1.55189 6.00259 1.36263 6.08244 1.22253 6.22253C1.08244 6.36263 1.00259 6.55189 1 6.75V12.25C1.00259 12.4481 1.08244 12.6374 1.22253 12.7775C1.36263 12.9176 1.55189 12.9974 1.75 13H4.74706C4.2631 12.4184 4 12 4 12C4 12 6.82979 7.5 11 7.5C11.3427 7.5 11.6763 7.53038 12 7.58615V6.75C11.9974 6.55189 11.9176 6.36263 11.7775 6.22253C11.6374 6.08244 11.4481 6.00259 11.25 6Z" fill="white"/>
</svg>
