<svg width="16" height="16" viewBox="0 0 16 16" fill="none" xmlns="http://www.w3.org/2000/svg">
<path d="M15 0.933777H1V14.0671H9.38883C9.21629 13.7359 9.09542 13.3763 9.03798 13.0002H1.93333V2.00018H14.0667V9.38855C14.4133 9.569 14.7289 9.80601 15 10.0861V0.933777Z" fill="white"/>
<path opacity="0.5" d="M9.03795 13H7L10.5 7L11.721 9.09313C10.1911 9.46238 9 10.8823 9 12.5007C9 12.6696 9.01297 12.8364 9.03795 13Z" fill="white"/>
<path opacity="0.5" d="M1 13H5.5863L7.60938 9.6566L5.20329 5.44641L1 13Z" fill="white"/>
<path opacity="0.5" d="M9.77 6.04C10.7475 6.04 11.54 5.24754 11.54 4.27C11.54 3.29246 10.7475 2.5 9.77 2.5C8.79246 2.5 8 3.29246 8 4.27C8 5.24754 8.79246 6.04 9.77 6.04Z" fill="white"/>
<path fill-rule="evenodd" clip-rule="evenodd" d="M15.4992 12.9001C15.4992 12.8001 15.4992 12.7001 15.4992 12.5001C15.4992 12.4001 15.4992 12.3001 15.4992 12.1001L14.5992 12.0001C14.4992 11.8001 14.4992 11.6001 14.3992 11.4001L14.9992 10.6001C14.7992 10.4001 14.6992 10.2001 14.4992 10.1001L13.6992 10.7001C13.4992 10.6001 13.2992 10.5001 13.0992 10.5001L12.9992 9.6001C12.8992 9.6001 12.7992 9.6001 12.5992 9.6001C12.4992 9.6001 12.2992 9.6001 12.1992 9.6001L12.0992 10.5001C11.8992 10.6001 11.6992 10.6001 11.4992 10.7001L10.6992 10.1001C10.4992 10.3001 10.2992 10.4001 10.1992 10.6001L10.7992 11.4001C10.6992 11.6001 10.5992 11.8001 10.5992 12.0001L9.69922 12.1001C9.69922 12.2001 9.69922 12.3001 9.69922 12.5001C9.69922 12.6001 9.69922 12.7001 9.69922 12.9001L10.5992 13.0001C10.6992 13.2001 10.6992 13.4001 10.7992 13.6001L10.1992 14.4001C10.3992 14.6001 10.4992 14.8001 10.6992 14.9001L11.4992 14.3001C11.6992 14.4001 11.8992 14.5001 12.0992 14.5001L12.1992 15.4001C12.2992 15.4001 12.3992 15.4001 12.5992 15.4001C12.6992 15.4001 12.7992 15.4001 12.9992 15.4001L13.0992 14.5001C13.2992 14.4001 13.4992 14.4001 13.6992 14.3001L14.4992 14.9001C14.6992 14.7001 14.8992 14.6001 14.9992 14.4001L14.3992 13.6001C14.4992 13.4001 14.5992 13.2001 14.5992 13.0001L15.4992 12.9001ZM12.4992 13.8001C11.7992 13.8001 11.1992 13.2001 11.1992 12.5001C11.1992 11.8001 11.7992 11.2001 12.4992 11.2001C13.1992 11.2001 13.7992 11.8001 13.7992 12.5001C13.7992 13.2001 13.1992 13.8001 12.4992 13.8001Z" fill="white"/>
</svg>
