<svg width="16" height="16" viewBox="0 0 16 16" fill="none" xmlns="http://www.w3.org/2000/svg">
<path opacity="0.5" d="M15.1997 8.07989H12.4797L11.1997 5.91989C11.1997 5.83989 11.4397 6.71989 11.1997 7.27989L10.7197 8.07989L11.3597 9.19989C11.5197 9.43989 11.7597 9.59989 12.1597 9.59989H15.1997C15.5997 9.59989 15.9197 9.27989 15.9197 8.87989C15.9997 8.39989 15.6797 8.07989 15.1997 8.07989Z" fill="#C0C0C0"/>
<path opacity="0.5" d="M5.91957 11.1199C5.51957 10.8799 5.27957 10.5599 5.11957 10.1599L3.91957 11.9999H1.27957C0.87957 11.9999 0.55957 12.3199 0.55957 12.7199C0.55957 13.1199 0.87957 13.4399 1.27957 13.4399H4.31957C4.63957 13.4399 4.87957 13.3599 5.03957 13.0399L6.15957 11.1199H5.91957Z" fill="#C0C0C0"/>
<path fill-rule="evenodd" clip-rule="evenodd" d="M10.2404 2.2401C9.6804 3.2001 10.0004 4.4001 10.9604 4.9601C11.9204 5.5201 13.1204 5.2001 13.6804 4.2401C14.2404 3.2801 13.9204 2.0801 12.9604 1.5201C12.0804 0.880096 10.8004 1.2801 10.2404 2.2401Z" fill="#C0C0C0"/>
<path fill-rule="evenodd" clip-rule="evenodd" d="M4.40045 6.55999L6.16045 4.63999L7.84045 5.51999L5.68045 9.19999C5.60045 9.75999 5.84045 10.4 6.40045 10.72L6.56045 10.8L9.68045 12.56V15.2C9.68045 15.6 10.0005 15.92 10.4005 15.92C10.8005 15.92 11.1205 15.6 11.1205 15.2V12.16C11.1205 11.92 11.0405 11.76 10.8805 11.6C10.8805 11.6 10.8005 11.6 10.8005 11.52C10.8005 11.52 10.7204 11.52 10.7204 11.44L8.80045 10.32L10.4005 7.51999L10.8005 6.71999C11.0405 6.23999 10.9605 5.59999 10.6405 5.35999L9.44045 4.63999L9.20045 4.47999C9.12045 4.47999 9.04045 4.39999 9.04045 4.39999L6.32045 3.03999C5.92045 2.87999 5.52045 3.03999 5.28045 3.27999L3.28045 5.51999C3.04045 5.83999 3.04045 6.31999 3.36045 6.55999C3.68045 6.87999 4.16045 6.87999 4.40045 6.55999Z" fill="#C0C0C0"/>
</svg>
