<svg width="16" height="16" viewBox="0 0 16 16" fill="none" xmlns="http://www.w3.org/2000/svg">
<g clip-path="url(#clip0_22597_18893)">
<path opacity="0.5" fill-rule="evenodd" clip-rule="evenodd" d="M8 12H0.632812V5.93555H8V12ZM12.0036 7V5.93555H11L12.0036 7Z" fill="white"/>
<path fill-rule="evenodd" clip-rule="evenodd" d="M9.19681 2.47125L7.6807 3.0777V1.31143L9.24229 0.704996L9.19681 2.47125ZM6.92265 1.61466L5.36106 2.22868V3.99495L6.92265 3.3885V1.61466ZM3.00353 4.90461L4.51963 4.29816V2.5319L3.00353 3.13834V4.90461ZM10.0382 0.401767V2.16803L11.5543 1.55401L10.9479 0L10.0382 0.401767ZM2.24547 3.43398L0.0546875 4.25268L0.668709 5.81427L2.18482 5.20782L2.24547 3.43398Z" fill="white"/>
<path d="M15.98 11.478L9 5.50391L9.08747 14.6969L11.1255 11.8804L13.111 16.0001L14.5718 15.2917L12.6125 11.2069L15.98 11.478Z" fill="white"/>
</g>
<defs>
<clipPath id="clip0_22597_18893">
<rect width="16" height="16" fill="white"/>
</clipPath>
</defs>
</svg>
