<svg width="16" height="16" viewBox="0 0 16 16" fill="none" xmlns="http://www.w3.org/2000/svg">
<path fill-rule="evenodd" clip-rule="evenodd" d="M7.6671 15.1502C3.81304 15.1502 0.687744 12.1661 0.687744 8.48618C0.687744 4.53342 2.96884 1.87666 7.34384 1.87666C10.8584 1.87666 12.5379 4.05172 12.7892 6.36533C12.8222 6.59018 12.8393 6.81988 12.8393 7.05325C12.8393 9.67619 10.6792 11.8363 8.0563 11.8363C5.43335 11.8363 3.27328 9.67619 3.27328 7.05325C3.27328 6.4241 3.39756 5.82158 3.62269 5.26912C2.85359 6.03066 2.41412 7.17535 2.41412 8.63824C2.41412 11.0579 5.02473 13.5394 7.68111 13.5394C11.423 13.5394 14.1682 11.0688 14.1682 7.49593C14.1682 3.92303 13.4859 2.86851 12.0136 0.761719C14.9343 2.23407 15.473 3.74388 15.473 8.01578C15.473 12.2877 12.4288 15.1502 7.68111 15.1502H7.6671ZM6.82815 8.54897L10.2266 9.58485L10.6953 7.98329L8.00003 7.53335L8.00006 2.99996L6.12506 3.62496L6.82815 8.54897Z" fill="white"/>
</svg>
