<svg width="12" height="12" viewBox="0 0 12 12" fill="none" xmlns="http://www.w3.org/2000/svg">
<path fill-rule="evenodd" clip-rule="evenodd" d="M5.73363 11.72C2.65038 11.72 0.150146 9.33275 0.150146 6.38879C0.150146 3.22659 1.97503 1.10118 5.47503 1.10118C8.28432 1.10118 9.62799 2.83832 9.83082 4.68748C9.85767 4.86883 9.87158 5.05414 9.87158 5.24244C9.87158 7.34079 8.14352 9.06885 6.04517 9.06885C3.94681 9.06885 2.21875 7.34079 2.21875 5.24244C2.21875 4.73902 2.31821 4.25691 2.49839 3.81486C1.88294 4.4241 1.53125 5.33995 1.53125 6.51045C1.53125 8.44616 3.61973 10.4314 5.74484 10.4314C8.73839 10.4314 10.9345 8.45491 10.9345 5.5966C10.9345 2.73828 10.3887 1.89466 9.21081 0.209229C11.5474 1.38711 11.9784 2.59496 11.9784 6.01248C11.9784 9.43 9.54296 11.72 5.74484 11.72H5.73363ZM5.0625 6.43909L7.78125 7.26779L8.15625 5.98654L6 5.62659L6.00003 1.99988L4.50003 2.49988L5.0625 6.43909Z" fill="white"/>
</svg>
