<svg width="20" height="20" viewBox="0 0 20 20" fill="none" xmlns="http://www.w3.org/2000/svg">
<path d="M6.4645 5.50063L10 9.03613L13.5355 5.50063L10 1.96513L6.4645 5.50063Z" fill="white"/>
<path d="M1 5.5H19" stroke="white" stroke-miterlimit="10"/>
<path d="M2.50156 7.39961C3.5509 7.39961 4.40156 6.54895 4.40156 5.49961C4.40156 4.45027 3.5509 3.59961 2.50156 3.59961C1.45222 3.59961 0.601562 4.45027 0.601562 5.49961C0.601562 6.54895 1.45222 7.39961 2.50156 7.39961Z" fill="white"/>
<path d="M17.5016 7.39961C18.5509 7.39961 19.4016 6.54895 19.4016 5.49961C19.4016 4.45027 18.5509 3.59961 17.5016 3.59961C16.4522 3.59961 15.6016 4.45027 15.6016 5.49961C15.6016 6.54895 16.4522 7.39961 17.5016 7.39961Z" fill="white"/>
<path opacity="0.5" d="M0.497308 17.0004C0.397308 15.7004 0.397308 14.4004 0.697308 13.1004C1.19731 11.9004 1.79731 10.7004 2.69731 9.60039C3.59731 8.60039 4.69731 7.70039 5.99731 7.20039C7.29731 6.70039 8.59731 6.40039 9.99731 6.40039C11.2973 6.40039 12.6973 6.60039 13.9973 7.20039C15.2973 7.70039 16.3973 8.60039 17.2973 9.60039C18.1973 10.6004 18.8973 11.8004 19.2973 13.1004C19.5973 14.4004 19.6973 15.7004 19.4973 17.0004C19.0973 15.8004 18.6973 14.6004 18.0973 13.5004C17.6973 12.4004 17.0973 11.3004 16.2973 10.4004C14.7973 8.60039 12.3973 7.60039 9.99731 7.60039C7.59731 7.60039 5.19731 8.50039 3.69731 10.4004C2.89731 11.3004 2.29731 12.4004 1.89731 13.5004C1.29731 14.6004 0.897308 15.8004 0.497308 17.0004Z" fill="white"/>
<path d="M14.1228 12.0089L14.846 14.0179L11.7121 15.0625L13.6406 17.6339L11.9531 19L10.0246 16.2679L8.09598 19L6.32812 17.7143L8.2567 15.1429L5.20312 14.0982L5.92634 12.0893L8.89955 13.2946V10H10.9888V13.2946L14.1228 12.0089Z" fill="white"/>
</svg>
