<svg width="20" height="20" viewBox="0 0 20 20" fill="none" xmlns="http://www.w3.org/2000/svg">
<g opacity="0.5">
<path d="M7.70402 7.73996C7.18314 7.85016 6.67502 8.00141 6.19844 8.19999C4.89844 8.69999 3.79844 9.39999 2.89844 10.4C1.99844 11.3 1.29844 12.5 0.798437 13.7C0.498437 14.9 0.398438 16.2 0.498438 17.5C0.898438 16.3 1.29844 15.1 1.89844 14.1C2.39844 13 2.99844 12 3.79844 11.2C5.00744 9.74919 6.80111 8.94803 8.65584 8.69178L7.70402 7.73996Z" fill="white"/>
<path d="M11.3346 8.70129L12.3223 7.71362C12.881 7.82562 13.4397 7.9851 13.9984 8.19999C15.1984 8.69999 16.3984 9.49999 17.2984 10.4C18.1984 11.4 18.8984 12.5 19.3984 13.7C19.6984 15 19.7984 16.3 19.6984 17.5C19.2984 16.3 18.8984 15.1 18.2984 14.1C18.2277 13.9889 18.158 13.8788 18.089 13.7698C17.4752 12.8 16.9176 11.9192 16.1984 11.2C14.9095 9.83047 13.1662 8.98014 11.3346 8.70129Z" fill="white"/>
</g>
<path d="M9.64645 10.3897L10 10.7432L10.3535 10.3897L13.8183 6.92489L14.1719 6.57134L13.8183 6.21779L10.3535 2.753L10 2.39945L9.64645 2.753L6.18166 6.21779L5.82811 6.57134L6.18166 6.92489L9.64645 10.3897Z" stroke="white"/>
</svg>
