<svg width="20" height="20" viewBox="0 0 20 20" fill="none" xmlns="http://www.w3.org/2000/svg">
<path d="M19.0025 4.5C19.0025 4.5 17.5025 1.5 14.5 1.5C9 1.5 8.16936 11.7425 4.5 11.7425C2.60627 11.7425 1.5025 10 1.5025 10" stroke="white" stroke-width="1.5" stroke-miterlimit="10" stroke-linecap="round"/>
<path fill-rule="evenodd" clip-rule="evenodd" d="M19.8797 14.7976C19.8797 14.7976 19.9595 14.3193 19.9595 14.0801C19.9595 13.8409 19.8797 13.3625 19.8797 13.3625L18.0459 13.1233C17.9662 12.7247 17.8068 12.326 17.5676 11.9274L18.6838 10.4125C18.3649 10.0139 18.0459 9.69494 17.6473 9.37602L16.1324 10.4922C15.8135 10.253 15.4149 10.0936 14.9365 10.0139L14.6973 8.18007C14.6973 8.18007 14.2189 8.10034 13.9797 8.10034C13.7405 8.10034 13.1824 8.18007 13.1824 8.18007L12.9432 10.0139C12.5446 10.0936 12.1459 10.253 11.827 10.4922L10.3122 9.37602C9.91351 9.69494 9.59459 10.0139 9.27567 10.4125L10.3919 11.9274C10.1527 12.2463 9.99324 12.6449 9.91351 13.0436L8.07972 13.2828C8.07972 13.2828 8 13.7612 8 14.0003C8 14.2395 8.07972 14.7179 8.07972 14.7179L9.91351 14.9571C9.99324 15.3557 10.1527 15.7544 10.3919 16.0733L9.27567 17.5882C9.59459 17.9868 9.91351 18.3057 10.3122 18.6247L11.827 17.5084C12.1459 17.7476 12.5446 17.9071 12.9432 17.9868L13.1824 19.8206C13.1824 19.8206 13.6608 19.9003 13.9797 19.9003C14.2189 19.9003 14.6973 19.8206 14.6973 19.8206L14.9365 17.9868C15.3351 17.9071 15.7338 17.7476 16.1324 17.5084L17.6473 18.6247C18.0459 18.3057 18.3649 17.9868 18.6838 17.5882L17.5676 16.0733C17.8068 15.6747 17.9662 15.3557 18.0459 14.8774L19.8797 14.7976ZM13.9 17.2693C12.1459 17.2693 10.7108 15.8341 10.7108 14.0801C10.7108 12.326 12.1459 10.8909 13.9 10.8909C15.654 10.8909 17.0892 12.326 17.0892 14.0801C17.0892 15.8341 15.654 17.2693 13.9 17.2693Z" fill="white"/>
<path opacity="0.5" d="M13.8981 12.5656C14.6954 12.5656 15.413 13.2034 15.413 14.0805C15.413 14.8778 14.7751 15.5953 13.8981 15.5953C13.1008 15.5953 12.3832 14.9575 12.3832 14.0805C12.3832 13.2832 13.0211 12.5656 13.8981 12.5656ZM13.8981 11.7683C12.6224 11.7683 11.5859 12.8048 11.5859 14.0805C11.5859 15.3561 12.6224 16.3926 13.8981 16.3926C15.1738 16.3926 16.2103 15.3561 16.2103 14.0805C16.2103 12.8048 15.1738 11.7683 13.8981 11.7683Z" fill="white"/>
</svg>
