<svg width="20" height="20" viewBox="0 0 20 20" fill="none" xmlns="http://www.w3.org/2000/svg">
<path opacity="0.5" d="M10.9375 6.80498C9.7671 6.375 9.2024 6.08848 8.82136 4.28125C8.43658 2.45623 7.90419 0.625 5.98899 0.625C4.0738 0.625 2.86362 2.07669 2.86362 5.625C2.86362 8.41765 1.30093 9.61698 0.03125 9.78125L0.0314083 11.5434C2.92873 11.1562 4.21875 8.9375 4.21875 6.4375C4.21875 3.9375 4.8616 2.1875 5.77684 2.1875C6.69208 2.1875 7.30051 3.53393 7.61679 5.78125C7.80902 7.14711 8.9159 8.21773 9.7671 8.61198L10.9375 6.80498Z" fill="white"/>
<path d="M19.4749 17.5187L19.1112 18.3368C18.3234 18.8444 17.6189 19.1739 16.9977 19.3254C16.384 19.4769 15.8348 19.5527 15.35 19.5527C14.4409 19.5527 13.5773 19.3747 12.7591 19.0186C11.9486 18.6626 11.2857 18.0603 10.7706 17.2119C10.263 16.3634 10.0092 15.3407 10.0092 14.1438C10.0092 13.3483 10.1077 12.6324 10.3047 11.9961C10.5016 11.3522 10.7062 10.8749 10.9183 10.5643C11.138 10.2537 11.5054 9.90902 12.0205 9.53024C12.5357 9.15146 13.0811 8.84844 13.6568 8.62117C14.2326 8.39391 14.8538 8.28027 15.5204 8.28027C16.4295 8.28027 17.2287 8.49618 17.9181 8.92798C18.615 9.35221 19.1037 9.89765 19.384 10.5643C19.6643 11.231 19.8044 11.9393 19.8044 12.6892C19.8044 12.9241 19.793 13.1514 19.7703 13.371L19.6453 13.496C19.1302 13.6097 18.437 13.6854 17.5658 13.7233C16.6946 13.7612 16.1189 13.7801 15.8386 13.7801H12.191C12.2061 15.3483 12.6001 16.5035 13.3728 17.2459C14.1455 17.9883 15.0924 18.3596 16.2136 18.3596C16.7439 18.3596 17.2514 18.2686 17.7363 18.0868C18.2287 17.905 18.7476 17.6512 19.2931 17.3255L19.4749 17.5187ZM12.191 12.8711C12.3273 12.8938 12.85 12.9203 13.7591 12.9506C14.6758 12.9809 15.3538 12.9961 15.7932 12.9961C16.8462 12.9961 17.4863 12.9771 17.7136 12.9392C17.7211 12.7574 17.7249 12.6173 17.7249 12.5188C17.7249 11.3446 17.4863 10.4734 17.009 9.90523C16.5318 9.32949 15.8803 9.04162 15.0545 9.04162C14.153 9.04162 13.4485 9.36358 12.941 10.0075C12.441 10.6514 12.191 11.6059 12.191 12.8711Z" fill="white"/>
</svg>
