<svg width="20" height="20" viewBox="0 0 20 20" fill="none" xmlns="http://www.w3.org/2000/svg">
<path d="M6.46487 4.50063L10.0004 8.03613L13.5359 4.50063L10.0004 0.965133L6.46487 4.50063Z" fill="white"/>
<path d="M1 4.5H19" stroke="white" stroke-miterlimit="10"/>
<path d="M2.49998 6.39986C3.54932 6.39986 4.39998 5.5492 4.39998 4.49986C4.39998 3.45051 3.54932 2.59985 2.49998 2.59985C1.45063 2.59985 0.599976 3.45051 0.599976 4.49986C0.599976 5.5492 1.45063 6.39986 2.49998 6.39986Z" fill="white"/>
<path d="M17.5 6.39986C18.5493 6.39986 19.4 5.5492 19.4 4.49986C19.4 3.45051 18.5493 2.59985 17.5 2.59985C16.4506 2.59985 15.6 3.45051 15.6 4.49986C15.6 5.5492 16.4506 6.39986 17.5 6.39986Z" fill="white"/>
<path opacity="0.5" d="M0.499993 15.9999C0.399993 14.6999 0.399993 13.3999 0.699993 12.0999C1.19999 10.8999 1.79999 9.6999 2.69999 8.5999C3.59999 7.5999 4.69999 6.6999 5.99999 6.1999C7.29999 5.6999 8.59999 5.3999 9.99999 5.3999C11.3 5.3999 12.7 5.5999 14 6.1999C15.3 6.6999 16.4 7.5999 17.3 8.5999C18.2 9.5999 18.9 10.7999 19.3 12.0999C19.6 13.3999 19.7 14.6999 19.5 15.9999C19.1 14.7999 18.7 13.5999 18.1 12.4999C17.7 11.3999 17.1 10.2999 16.3 9.3999C14.8 7.5999 12.4 6.5999 9.99999 6.5999C7.59999 6.5999 5.19999 7.4999 3.69999 9.3999C2.89999 10.2999 2.29999 11.3999 1.89999 12.4999C1.29999 13.5999 0.899993 14.7999 0.499993 15.9999Z" fill="white"/>
<path d="M12.6182 8L9.5637 13.1273H13.8182L8.25461 20L10.4364 14.8727H6.18188L12.6182 8Z" fill="white"/>
</svg>
