<svg width="16" height="16" viewBox="0 0 16 16" fill="none" xmlns="http://www.w3.org/2000/svg">
<g clip-path="url(#clip0_22597_18894)">
<path d="M16 10.9912L9 5L9.08772 14.2193L11.1316 11.3947L13.1228 15.5263L14.5877 14.8158L12.6228 10.7193L16 10.9912Z" fill="white"/>
<path opacity="0.5" d="M6.02031 3.32007C6.35654 3.32007 6.68522 3.41977 6.96478 3.60657C7.24434 3.79337 7.46224 4.05887 7.59091 4.36951C7.71958 4.68014 7.75324 5.02195 7.68765 5.35172C7.62205 5.68149 7.46014 5.9844 7.22239 6.22215C6.98464 6.4599 6.68173 6.62181 6.35197 6.6874C6.0222 6.753 5.68038 6.71933 5.36975 6.59066C5.05912 6.46199 4.79361 6.2441 4.60681 5.96454C4.42002 5.68497 4.32031 5.3563 4.32031 5.02007C4.32031 4.5692 4.49942 4.1368 4.81823 3.81799C5.13704 3.49917 5.56944 3.32007 6.02031 3.32007Z" fill="white"/>
<path opacity="0.5" d="M0.904121 7C0.687126 7 0.479017 7.0862 0.325578 7.23964C0.172139 7.39308 0.0859375 7.60119 0.0859375 7.81818C0.0859375 8.03518 0.172139 8.24329 0.325578 8.39673C0.479017 8.55017 0.687126 8.63637 0.904121 8.63637H3.94777V15.1818C3.94777 15.3988 4.03397 15.6069 4.18741 15.7604C4.34085 15.9138 4.54895 16 4.76595 16C4.98295 16 5.19105 15.9138 5.34449 15.7604C5.49793 15.6069 5.58413 15.3988 5.58413 15.1818V11.9091H6.40232V15.1818C6.40232 15.3988 6.48852 15.6069 6.64196 15.7604C6.7954 15.9138 7.00351 16 7.2205 16C7.4375 16 7.64561 15.9138 7.79905 15.7604C7.95248 15.6069 8.03869 15.3988 8.03869 15.1818V7H0.904121Z" fill="white"/>
<path opacity="0.5" d="M0 2.66319L0.250653 3.60313L1.10444 3.34465V7.04961H1.49608V3.21932L6 1.95822L10.5039 3.21932V5.43603L10.8956 5.72585V3.34465L11.7493 3.60313L12 2.66319L6.94778 1.52742L11.8747 0L6 1.17493L0.125326 0L5.05222 1.52742L0 2.66319Z" fill="white"/>
</g>
<defs>
<clipPath id="clip0_22597_18894">
<rect width="16" height="16" fill="white"/>
</clipPath>
</defs>
</svg>
