<svg width="64" height="64" viewBox="0 0 64 64" fill="none" xmlns="http://www.w3.org/2000/svg">
<g filter="url(#filter0_i_22267_18531)">
<rect x="10" y="34" width="20" height="20" fill="url(#paint0_linear_22267_18531)"/>
</g>
<g filter="url(#filter1_i_22267_18531)">
<rect x="34" y="34" width="20" height="20" fill="url(#paint1_linear_22267_18531)"/>
</g>
<g filter="url(#filter2_i_22267_18531)">
<rect x="10" y="10" width="20" height="20" fill="url(#paint2_linear_22267_18531)"/>
</g>
<g filter="url(#filter3_i_22267_18531)">
<rect x="34" y="10" width="20" height="20" fill="url(#paint3_linear_22267_18531)"/>
</g>
<path fill-rule="evenodd" clip-rule="evenodd" d="M11 6C8.23858 6 6 8.23858 6 11V53C6 55.7614 8.23858 58 11 58H53C55.7614 58 58 55.7614 58 53V11C58 8.23858 55.7614 6 53 6H11ZM10 11C10 10.4477 10.4477 10 11 10H30L30 30H10V11ZM10 34V53C10 53.5523 10.4477 54 11 54H30L30 34H10ZM34 54H53C53.5523 54 54 53.5523 54 53V34H34L34 54ZM54 30V11C54 10.4477 53.5523 10 53 10H34L34 30H54Z" fill="#C0C0C0"/>
<defs>
<filter id="filter0_i_22267_18531" x="10" y="34" width="20" height="24" filterUnits="userSpaceOnUse" color-interpolation-filters="sRGB">
<feFlood flood-opacity="0" result="BackgroundImageFix"/>
<feBlend mode="normal" in="SourceGraphic" in2="BackgroundImageFix" result="shape"/>
<feColorMatrix in="SourceAlpha" type="matrix" values="0 0 0 0 0 0 0 0 0 0 0 0 0 0 0 0 0 0 127 0" result="hardAlpha"/>
<feOffset dy="4"/>
<feGaussianBlur stdDeviation="2"/>
<feComposite in2="hardAlpha" operator="arithmetic" k2="-1" k3="1"/>
<feColorMatrix type="matrix" values="0 0 0 0 0 0 0 0 0 0 0 0 0 0 0 0 0 0 0.6 0"/>
<feBlend mode="normal" in2="shape" result="effect1_innerShadow_22267_18531"/>
</filter>
<filter id="filter1_i_22267_18531" x="34" y="34" width="20" height="24" filterUnits="userSpaceOnUse" color-interpolation-filters="sRGB">
<feFlood flood-opacity="0" result="BackgroundImageFix"/>
<feBlend mode="normal" in="SourceGraphic" in2="BackgroundImageFix" result="shape"/>
<feColorMatrix in="SourceAlpha" type="matrix" values="0 0 0 0 0 0 0 0 0 0 0 0 0 0 0 0 0 0 127 0" result="hardAlpha"/>
<feOffset dy="4"/>
<feGaussianBlur stdDeviation="2"/>
<feComposite in2="hardAlpha" operator="arithmetic" k2="-1" k3="1"/>
<feColorMatrix type="matrix" values="0 0 0 0 0 0 0 0 0 0 0 0 0 0 0 0 0 0 0.6 0"/>
<feBlend mode="normal" in2="shape" result="effect1_innerShadow_22267_18531"/>
</filter>
<filter id="filter2_i_22267_18531" x="10" y="10" width="20" height="24" filterUnits="userSpaceOnUse" color-interpolation-filters="sRGB">
<feFlood flood-opacity="0" result="BackgroundImageFix"/>
<feBlend mode="normal" in="SourceGraphic" in2="BackgroundImageFix" result="shape"/>
<feColorMatrix in="SourceAlpha" type="matrix" values="0 0 0 0 0 0 0 0 0 0 0 0 0 0 0 0 0 0 127 0" result="hardAlpha"/>
<feOffset dy="4"/>
<feGaussianBlur stdDeviation="2"/>
<feComposite in2="hardAlpha" operator="arithmetic" k2="-1" k3="1"/>
<feColorMatrix type="matrix" values="0 0 0 0 0 0 0 0 0 0 0 0 0 0 0 0 0 0 0.6 0"/>
<feBlend mode="normal" in2="shape" result="effect1_innerShadow_22267_18531"/>
</filter>
<filter id="filter3_i_22267_18531" x="34" y="10" width="20" height="24" filterUnits="userSpaceOnUse" color-interpolation-filters="sRGB">
<feFlood flood-opacity="0" result="BackgroundImageFix"/>
<feBlend mode="normal" in="SourceGraphic" in2="BackgroundImageFix" result="shape"/>
<feColorMatrix in="SourceAlpha" type="matrix" values="0 0 0 0 0 0 0 0 0 0 0 0 0 0 0 0 0 0 127 0" result="hardAlpha"/>
<feOffset dy="4"/>
<feGaussianBlur stdDeviation="2"/>
<feComposite in2="hardAlpha" operator="arithmetic" k2="-1" k3="1"/>
<feColorMatrix type="matrix" values="0 0 0 0 0 0 0 0 0 0 0 0 0 0 0 0 0 0 0.6 0"/>
<feBlend mode="normal" in2="shape" result="effect1_innerShadow_22267_18531"/>
</filter>
<linearGradient id="paint0_linear_22267_18531" x1="20" y1="54" x2="20" y2="34" gradientUnits="userSpaceOnUse">
<stop stop-color="#3E3E3E"/>
<stop offset="1" stop-color="#6C6C6C"/>
</linearGradient>
<linearGradient id="paint1_linear_22267_18531" x1="44" y1="54" x2="44" y2="34" gradientUnits="userSpaceOnUse">
<stop stop-color="#3E3E3E"/>
<stop offset="1" stop-color="#6C6C6C"/>
</linearGradient>
<linearGradient id="paint2_linear_22267_18531" x1="20" y1="30" x2="20" y2="10" gradientUnits="userSpaceOnUse">
<stop stop-color="#3E3E3E"/>
<stop offset="1" stop-color="#6C6C6C"/>
</linearGradient>
<linearGradient id="paint3_linear_22267_18531" x1="44" y1="30" x2="44" y2="10" gradientUnits="userSpaceOnUse">
<stop stop-color="#3E3E3E"/>
<stop offset="1" stop-color="#6C6C6C"/>
</linearGradient>
</defs>
</svg>
