<svg width="64" height="64" viewBox="0 0 64 64" fill="none" xmlns="http://www.w3.org/2000/svg">
<g filter="url(#filter0_i_22267_18529)">
<rect x="10" y="10" width="44" height="44" fill="url(#paint0_linear_22267_18529)"/>
</g>
<path fill-rule="evenodd" clip-rule="evenodd" d="M6 11C6 8.23858 8.23858 6 11 6H53C55.7614 6 58 8.23858 58 11V53C58 55.7614 55.7614 58 53 58H11C8.23858 58 6 55.7614 6 53V11ZM11 10C10.4477 10 10 10.4477 10 11V53C10 53.5523 10.4477 54 11 54H53C53.5523 54 54 53.5523 54 53V11C54 10.4477 53.5523 10 53 10H11Z" fill="#C0C0C0"/>
<defs>
<filter id="filter0_i_22267_18529" x="10" y="10" width="44" height="48" filterUnits="userSpaceOnUse" color-interpolation-filters="sRGB">
<feFlood flood-opacity="0" result="BackgroundImageFix"/>
<feBlend mode="normal" in="SourceGraphic" in2="BackgroundImageFix" result="shape"/>
<feColorMatrix in="SourceAlpha" type="matrix" values="0 0 0 0 0 0 0 0 0 0 0 0 0 0 0 0 0 0 127 0" result="hardAlpha"/>
<feOffset dy="4"/>
<feGaussianBlur stdDeviation="2"/>
<feComposite in2="hardAlpha" operator="arithmetic" k2="-1" k3="1"/>
<feColorMatrix type="matrix" values="0 0 0 0 0 0 0 0 0 0 0 0 0 0 0 0 0 0 0.6 0"/>
<feBlend mode="normal" in2="shape" result="effect1_innerShadow_22267_18529"/>
</filter>
<linearGradient id="paint0_linear_22267_18529" x1="32" y1="54" x2="32" y2="10" gradientUnits="userSpaceOnUse">
<stop stop-color="#3E3E3E"/>
<stop offset="1" stop-color="#6C6C6C"/>
</linearGradient>
</defs>
</svg>
