<svg width="20" height="20" viewBox="0 0 20 20" fill="none" xmlns="http://www.w3.org/2000/svg">
<path opacity="0.5" d="M11.708 2.20807C14.3192 -0.165258 17.7484 0.756232 18.7656 1.03619L18.2344 2.9649C17.1043 2.65389 14.6243 2.08645 12.8818 3.8526C12.3334 4.41273 12.0612 5.1897 11.9814 6.22955C11.9004 7.28698 12.0261 8.48187 12.168 9.79596C12.3049 11.0644 12.4578 12.4526 12.3584 13.7276C12.2577 15.0193 11.8908 16.3251 10.8809 17.3448L10.8721 17.3526C9.56431 18.6423 7.98368 19.0775 6.58496 19.1319C5.19998 19.1857 3.94677 18.8708 3.17578 18.6065L3.82422 16.7149C4.45321 16.9306 5.45039 17.175 6.50781 17.1339C7.54981 17.0932 8.60152 16.7789 9.46289 15.9317C10.01 15.3768 10.2836 14.607 10.3643 13.5723C10.4464 12.5181 10.3215 11.3247 10.1797 10.0108C10.0428 8.74249 9.88936 7.35312 9.9873 6.07623C10.0865 4.7829 10.4508 3.47495 11.4561 2.45026L11.458 2.4483L11.708 2.20807Z" fill="white"/>
<circle cx="11" cy="10" r="3" fill="white"/>
</svg>
