<svg width="20" height="20" viewBox="0 0 20 20" fill="none" xmlns="http://www.w3.org/2000/svg">
<path d="M10.3097 2.23741C13.1849 -0.376085 16.9339 0.65915 17.9279 0.932727L17.0783 4.01769C15.925 3.70031 13.7884 3.25492 12.3146 4.74523L12.3156 4.7462C11.9026 5.16712 11.6562 5.78493 11.5822 6.75011C11.5415 7.28103 11.558 7.85356 11.6027 8.47472H8.39467C8.35443 7.81594 8.34239 7.14836 8.39174 6.50499C8.49678 5.13596 8.88942 3.66899 10.0314 2.50499L10.0343 2.50206L10.3097 2.23741Z" fill="white"/>
<path opacity="0.5" d="M11.8965 10.4746C11.9788 11.3864 12.0307 12.3419 11.96 13.249C11.8533 14.617 11.4574 16.0823 10.3096 17.2412L10.3027 17.248L10.2969 17.2549C8.85545 18.6764 7.11654 19.1475 5.61133 19.2061C4.12812 19.2637 2.79801 18.9274 1.98438 18.6484L3.02148 15.6221C3.60787 15.8231 4.52817 16.0461 5.4873 16.0088C6.42083 15.9724 7.31308 15.6956 8.04004 14.9834C8.44909 14.5675 8.6949 13.9574 8.76953 13C8.82801 12.2495 8.7736 11.4145 8.68164 10.4746H11.8965Z" fill="white"/>
</svg>
