<svg width="24" height="24" viewBox="0 0 24 24" fill="none" xmlns="http://www.w3.org/2000/svg">
<circle cx="18.5" cy="18.5" r="3.5" fill="white"/>
<path d="M2 3H7.15091C7.53413 3 7.60175 3.28178 7.64684 3.65373L9.732 15.8829L16.7652 3.38322C16.8379 3.26626 16.9391 3.16971 17.0594 3.10267C17.1796 3.03563 17.315 3.00029 17.4527 3H20.0338V4.28491C20.0338 4.28491 18.5122 4.07076 18.1177 4.72448L8.58234 20.5041C8.49463 20.6538 8.3696 20.7781 8.21947 20.8651C8.06933 20.952 7.89921 20.9984 7.72574 21H6.59862C6.59862 21 4.3444 5.25423 4.25423 4.72448C4.16406 4.19474 2 4.28491 2 4.28491V3Z" fill="white"/>
</svg>
