<svg width="24" height="24" viewBox="0 0 24 24" fill="none" xmlns="http://www.w3.org/2000/svg">
<path d="M17.6616 8.34025C17.9327 6.48098 18.636 4.71119 19.715 3.17297C19.715 3.17297 19.715 3.27396 19.715 3.32446C19.715 3.78871 19.8995 4.23395 20.2277 4.56223C20.556 4.89051 21.0013 5.07494 21.4655 5.07494C21.9298 5.07494 22.375 4.89051 22.7033 4.56223C23.0316 4.23395 23.216 3.78871 23.216 3.32446C23.2166 3.009 23.1286 2.69972 22.9619 2.43188C22.7953 2.16404 22.5567 1.94842 22.2734 1.80962H22.1219C21.2846 1.50617 20.3673 1.50617 19.5299 1.80962C16.8032 2.56704 15.7428 6.53928 15.7428 6.53928L15.4398 6.74125H10.3904L9.9696 8.42441H15.221L13.5379 17.3451C13.2744 18.3486 12.731 19.2565 11.971 19.9628C11.2111 20.6691 10.2659 21.1447 9.24584 21.3342C9.34936 21.1071 9.4011 20.8599 9.39732 20.6104C9.39732 20.1283 9.20581 19.6659 8.8649 19.325C8.524 18.9841 8.06163 18.7926 7.57952 18.7926C7.09741 18.7926 6.63505 18.9841 6.29414 19.325C5.95324 19.6659 5.76172 20.1283 5.76172 20.6104C5.78043 21.0229 5.94165 21.4162 6.21789 21.7231C6.49413 22.0301 6.86828 22.2317 7.27655 22.2936V22.2936C14.6151 23.7074 15.6923 17.3956 15.6923 17.3956L17.3755 10.0066H22.4249L22.8457 8.32342H17.5269L17.6616 8.34025Z" fill="white"/>
<path d="M1.5 14V11H6V8L11.25 12.5L6 17V14H1.5Z" fill="white"/>
</svg>
